SplineFontDB: 3.2
FontName: twoweekendgo-regular
FullName: Two Weekend Go
FamilyName: Two Weekend Go
Weight: Regular
Copyright: Copyright (c) 2023, CtrlSTheWorld
UComments: "(c) Copyright 2023 by CtrlSTheWorld.+AAoA-Created with FontForge (http://fontforge.org)"
Version: 0.1
ItalicAngle: 0
UnderlinePosition: -500
UnderlineWidth: 50
Ascent: 800
Descent: 200
InvalidEm: 0
LayerCount: 2
Layer: 0 0 "Back" 1
Layer: 1 0 "Fore" 0
HasVMetrics: 1
XUID: [1021 519 -1351378580 18688]
StyleMap: 0x0000
FSType: 0
OS2Version: 0
OS2_WeightWidthSlopeOnly: 0
OS2_UseTypoMetrics: 1
CreationTime: 1664896815
ModificationTime: 1677643193
PfmFamily: 33
TTFWeight: 400
TTFWidth: 5
LineGap: 90
VLineGap: 90
OS2TypoAscent: 0
OS2TypoAOffset: 1
OS2TypoDescent: 0
OS2TypoDOffset: 1
OS2TypoLinegap: 90
OS2WinAscent: 0
OS2WinAOffset: 1
OS2WinDescent: 0
OS2WinDOffset: 1
HheadAscent: 0
HheadAOffset: 1
HheadDescent: 0
HheadDOffset: 1
OS2XHeight: 600
OS2Vendor: 'PfEd'
Lookup: 1 0 0 "'zero' Slashed Zero in Latin lookup 2" { "'zero' Slashed Zero"  } ['zero' ('DFLT' <'dflt' > 'latn' <'dflt' > ) ]
Lookup: 258 0 0 "'kern' horizontal kerning lookup" { "'kern' ASCII letter to ASCII letter" [150,15,2] "'kern' multi-symbols" [150,15,2] } ['kern' ('DFLT' <'dflt' > 'latn' <'dflt' > ) ]
MarkAttachClasses: 1
DEI: 91125
LangName: 1033
Encoding: ISO8859-1
UnicodeInterp: none
NameList: AGL For New Fonts
DisplaySize: -48
AntiAlias: 1
FitToEm: 0
WidthSeparation: 150
WinInfo: 0 39 14
BeginPrivate: 0
EndPrivate
Grid
-1000 811.584060669 m 0
 2000 811.584060669 l 1024
-1000 600 m 0
 2000 600 l 1024
  Named: "the x-height"
EndSplineSet
TeXData: 1 0 0 503316 251658 167772 0 1048576 167772 783286 444596 497025 792723 393216 433062 380633 303038 157286 324010 404750 52429 2506097 1059062 262144
BeginChars: 276 203

StartChar: zero
Encoding: 48 48 0
Width: 800
Flags: W
HStem: -12.1963 58.5244<213.602 588.496> 749.444 58.8856<211.322 586.789>
VStem: 74.0088 65.9395<165.899 626.957> 660.052 65.9395<168.453 629.321>
LayerCount: 2
Fore
SplineSet
550.620117188 740.313476562 m 0
 516.718247719 746.376029479 458.915823859 749.443734421 400.999997405 749.443734421 c 0
 342.335974308 749.443734421 283.555599663 746.424724397 249.379882812 740.313476562 c 0
 202.1796875 731.875976562 164.147460938 702.958007812 156.0234375 654.682617188 c 0
 142.905273438 576.716796875 139.948242188 503.852539062 139.948242188 397.08203125 c 0
 139.948242188 291.458007812 142.905273438 218.59375 156.0234375 140.626953125 c 0
 171.892835498 46.328125 279.509619325 46.328125 400.546875 46.328125 c 24
 520.168903817 46.328125 628.110979722 46.328125 643.9765625 140.626953125 c 0
 657.094726562 218.59375 660.051757812 291.458007812 660.051757812 397.08203125 c 0
 660.051757812 503.852539062 657.094726562 576.716796875 643.9765625 654.682617188 c 0
 635.854492188 702.958007812 597.822265625 731.875976562 550.620117188 740.313476562 c 0
74.0087890625 396.98828125 m 0
 74.0087890625 662.784552128 86.0530124201 765.889084289 208.875 796.095703125 c 0
 241.800298542 804.19329186 321.499492408 808.329377333 401.00000297 808.329377333 c 0
 575.994178468 808.329377333 670.530032332 798.21221851 700 704 c 0
 720.488226163 638.501413033 725.991210938 524.283203125 725.991210938 396.98828125 c 0
 725.991210938 102.609265339 704.428634992 22.3803943652 591.125 -0.7861328125 c 0
 545.450195312 -10.1240234375 474.416015625 -12.1962890625 400.680664062 -12.1962890625 c 24
 220.24553224 -12.1962890625 136.956958838 -7.7451410427 98.40625 95.685546875 c 0
 74.4365234375 159.993164062 74.0087890625 277.693359375 74.0087890625 396.98828125 c 0
EndSplineSet
Validated: 1
Substitution2: "'zero' Slashed Zero" zero.slash
EndChar

StartChar: one
Encoding: 49 49 1
Width: 800
Flags: W
HStem: 0 60<100 384 454 700> 785 20G<399.5 422.009>
VStem: 384 70<60 736>
LayerCount: 2
Fore
SplineSet
384 736 m 1
 110 628 l 1
 90 685 l 1
 364 796.836914062 l 2
 380.37890625 803.521484375 391 805 408 805 c 3
 436.017578125 805 454 783 454 758 c 2
 454 60 l 1
 700 60 l 1
 700 0 l 1
 100 0 l 1
 100 60 l 1
 384 60 l 1
 384 736 l 1
EndSplineSet
Validated: 1
EndChar

StartChar: two
Encoding: 50 50 2
Width: 800
Flags: W
HStem: 0 60<155 722> 751.444 56.8857<211.322 587.284>
VStem: 82 73<60 225.875 620.881 700.626> 648.669 63.4406<518.881 697.158>
LayerCount: 2
Fore
SplineSet
155 60 m 1
 722 60 l 1
 722 0 l 1
 82 0 l 1
 88 186 96.533203125 278.577148438 162 338 c 0
 227 397 298 414 381 427 c 0
 466.504882812 440.392578125 575 462 613.051757812 500.08203125 c 0
 635.414865696 522.462632892 648.668762168 557.681593661 648.668762168 609 c 0
 648.668762168 652.183075144 641.713530872 726.030305066 550.620117188 742.313476562 c 0
 516.708843985 748.377711116 458.909175947 751.443744126 401.000002595 751.443744126 c 0
 342.329193895 751.443744126 283.545980458 748.423004307 249.379882812 742.313476562 c 0
 202.1796875 733.875976562 164.147460938 704.958007812 156.0234375 656.682617188 c 0
 153.631835938 642.467773438 151.578125 626.423828125 149.818359375 612.311523438 c 1
 82.927450147 621.867507122 l 1
 95.0863297576 717.933914414 123.693663456 775.146358341 208.875 796.095703125 c 0
 241.783920147 804.189263787 321.489217677 808.329395964 400.99999703 808.329395964 c 0
 479.832238772 808.329395964 554.975585938 805.09765625 587.125 795.095703125 c 0
 712.109375 756.210335084 712.109375 672.925993193 712.109375 598 c 0
 712.109375 491.744645845 675.323046157 414.883513282 478 380 c 0
 374.386045465 361.682733824 286.920073735 350.111240179 236 313 c 0
 177 270 162 208 155 60 c 1
EndSplineSet
Validated: 1
EndChar

StartChar: three
Encoding: 51 51 3
Width: 800
Flags: W
HStem: -12.1963 58.5244<214.455 587.943> 397 57<242 572.798> 749.444 58.8856<226.541 575.139>
VStem: 87.8457 64.252<101.399 171.215> 100.182 65.2373<635.02 695.806> 641.812 61.46<509.61 693.118> 655.097 64.8203<103.122 338.933>
LayerCount: 2
Fore
SplineSet
703.272460938 604.94140625 m 0xec
 703.272460938 481.191949668 655.920610724 445.228612064 630.836071927 430.303893776 c 1
 666.024589947 412.135399583 688.133736147 383.099856429 702.875 346.904296875 c 0
 716.8515625 312.586914062 719.916992188 283.8203125 719.916992188 236.586914062 c 0
 719.916992188 152.357458938 719.169427108 33.32946692 591.125 0.2138671875 c 0
 545.990274589 -11.4591398658 474.416015625 -12.1962890625 400.680664062 -12.1962890625 c 0
 209.239085414 -12.1962890625 146.635368404 -0.127231510907 110.40625 69.685546875 c 0
 102.392578125 85.1279296875 88 128 87.845703125 171.21484375 c 1
 152.09765625 179.546875 l 1
 153.021484375 172.712890625 154.318359375 152.7578125 156.0234375 142.626953125 c 0
 164.145507812 94.3525390625 202.1796875 65.435546875 249.379882812 56.9970703125 c 0
 292.588867188 49.271484375 340.174804688 46.328125 400.546875 46.328125 c 0
 596.129711907 46.328125 629.269702857 78.1595895821 644.9765625 129.626953125 c 0
 650.647460938 148.209960938 655.096679688 177.929311057 655.096679688 237.586914062 c 0xf2
 655.096679688 395.918558056 575.309015442 397 381 397 c 2
 242 397 l 1
 242 454 l 1
 412 455 l 2
 622.390744382 456.238212834 641.8125 506.905362471 641.8125 609.94140625 c 0
 641.8125 731.025251076 562.030448588 749.443734421 400.999997405 749.443734421 c 0
 251.303890934 749.443734421 171.020637887 736.993180549 165.418945312 627.524414062 c 1
 100.181640625 635.920898438 l 1
 101.185546875 652.0546875 103.530273438 682.966796875 116 708 c 0
 156.165053304 788.633726874 198.408139454 808.329377333 401.00000297 808.329377333 c 0
 542.874732207 808.329377333 633.420780017 797.526751973 680 723 c 0
 699.109511958 692.424780867 703.272460938 642.969726562 703.272460938 604.94140625 c 0xec
EndSplineSet
Validated: 1
EndChar

StartChar: four
Encoding: 52 52 4
Width: 800
Flags: W
HStem: 0 21G<523 593> 186 64<159 523 593 740>
VStem: 523 70<0 186 250 480>
LayerCount: 2
Fore
SplineSet
523 480 m 1
 593 480 l 1
 593 250 l 1
 740 250 l 1
 740 186 l 1
 593 186 l 1
 593 0 l 1
 523 0 l 1
 523 186 l 1
 137 186 l 2
 120.4921875 186 75 192.440429688 75 236 c 0
 75 261 98.3596833082 287.799796677 121 317 c 2
 511 820 l 1
 565 773 l 1
 159 250 l 1
 523 250 l 1
 523 480 l 1
EndSplineSet
Validated: 1
EndChar

StartChar: five
Encoding: 53 53 5
Width: 800
Flags: W
HStem: -12.1963 60.5244<207.518 592.514> 447 59.8857<235.111 590.963> 736 64<195 700>
VStem: 89 65.4745<95.2985 146.962> 125 70<465 736> 658 65<106.768 384.76>
LayerCount: 2
Fore
SplineSet
404 447 m 0xf4
 294.842286466 447 233.571529703 442.969521395 195 392 c 1
 125 392 l 1
 125 800 l 1
 700 800 l 1
 700 736 l 1
 195 736 l 1
 195 465 l 5xec
 218.795859742 488.795859742 245.92925404 506.885742188 404 506.885742188 c 0
 581.350250562 506.885742188 660.606812353 495.789407973 701 405.556640625 c 0
 722.579101562 357.3515625 723 294.192382812 723 256 c 0
 723 138.847080871 713.563732898 24.2481940516 591.125 -0.7861328125 c 0
 545.450195312 -10.1240234375 474.416015625 -12.1962890625 400.680664062 -12.1962890625 c 0
 217.697664652 -12.1962890625 102.68996774 -10.9773052588 89 146 c 1
 154.474545244 154.999998936 l 1
 163.629175657 59.317213649 231.822936103 48.328125 400.546875 48.328125 c 0
 539.092893162 48.328125 627.954473868 54.0778120137 646.9765625 133.626953125 c 0
 654 163 658 212.041992188 658 256 c 0
 658 327.034611987 658 419.211956693 553.620117188 437.870117188 c 0
 519.717773438 443.932617188 461.916015625 447 404 447 c 0xf4
EndSplineSet
Validated: 1
EndChar

StartChar: six
Encoding: 54 54 6
Width: 800
Flags: W
HStem: -12.1963 58.5244<213.966 591.024> 458.443 58.8857<212.356 586.831> 749.444 58.8856<211.267 589.189>
VStem: 73.0088 68.9912<119.357 579.204> 641.145 65.4619<676.396 704.911> 655.741 65.9619<105.273 390.696>
LayerCount: 2
Fore
SplineSet
401 458.443359375 m 0xf4
 192.838266053 458.443359375 142 436.983653022 142 276 c 0
 142 205.953220432 151.063475316 160.792464857 156.0234375 140.626953125 c 0
 167 96 202.179812451 63.4362457547 249.379882812 54.9970703125 c 0
 292.588867188 47.271484375 340.174804688 46.328125 400.546875 46.328125 c 24
 527.391489592 46.328125 620.112570725 50.3684132842 642 122 c 0
 653 158 655.741210938 220.568359375 655.741210938 249 c 0
 655.741210938 276.456054688 653 338 641.9765625 374.682617188 c 0
 630.370117188 413.305664062 597.822265625 440.875976562 550.620117188 449.313476562 c 0
 516.717773438 455.375976562 458.916015625 458.443359375 401 458.443359375 c 0xf4
641.14453125 663 m 1xf8
 622.097678945 730.329386774 578.58130189 749.443734421 400.999997405 749.443734421 c 0
 342.335974308 749.443734421 283.555599663 746.424724397 249.379882812 740.313476562 c 0
 202.1796875 731.875976562 166.076563908 705.593839284 156.0234375 657.682617188 c 0
 145.919921875 609.53125 140 555 138 452 c 1
 148 473 180.47570397 495.58570065 207.875 503.095703125 c 0
 241.504882812 512.313476562 321.499023438 517.329101562 401 517.329101562 c 0
 664.514961209 517.329101562 721.703125 490.922175759 721.703125 253 c 0xf4
 721.703125 5.05809391294 658.512547789 -12.1962890625 400.680664062 -12.1962890625 c 24
 220.24553224 -12.1962890625 136.956958838 -7.7451410427 98.40625 95.685546875 c 0
 74.4365234375 159.993164062 73.0087890625 225.693359375 73.0087890625 344.98828125 c 0
 73.0087890625 472.283203125 76.3654052236 641.339111147 102 705 c 0
 137.401961912 792.917144085 199.314228185 808.329377333 401.00000297 808.329377333 c 0
 622.060865271 808.329377333 682.154422241 787.230935207 706.606445312 678 c 1
 641.14453125 663 l 1xf8
EndSplineSet
Validated: 1
EndChar

StartChar: eight
Encoding: 56 56 7
Width: 800
Flags: W
HStem: -12.1963 58.5244<216.82 583.551> 418.443 60.8848<215.775 584.492> 749.443 58.8857<219.336 579.07>
VStem: 82 67.001<110.55 353.955> 100 65.001<524.963 703.754> 634.999 65.001<524.897 703.672> 650.999 67.001<110.767 353.931>
LayerCount: 2
Fore
SplineSet
400.453125 46.328125 m 0xf2
 592.155013058 46.328125 650.999023438 59.1472226517 650.999023438 230 c 0
 650.999023438 283.009414709 641.490234375 321.151367188 634 342.415039062 c 0
 610.216577928 409.93611239 543.623457423 418.443359375 400 418.443359375 c 0
 257.176808564 418.443359375 189.884375596 410.222719182 166 342.415039062 c 0
 158.509765625 321.151367188 149.000976562 283.009451554 149.000976562 230 c 0
 149.000976562 58.5320412034 208.429260953 46.328125 400.453125 46.328125 c 0xf2
634.999023438 615 m 0xec
 634.999023438 713.870084919 611.686888382 749.443359375 400 749.443359375 c 0
 188.819802287 749.443359375 165.000976562 714.249866606 165.000976562 615 c 0
 165.000976562 584.899038572 165.000976562 511.118859465 237 489.165039062 c 0
 265.712890625 480.41015625 309.978515625 479.328125 400.453125 479.328125 c 0
 549.909305942 479.328125 604.16565555 479.328125 629.052734375 558 c 0
 634.31640625 574.639648438 634.999023438 599 634.999023438 615 c 0xec
718 245 m 0xe2
 718 -3.81002823578 641.800484508 -12.1962890625 400.319335938 -12.1962890625 c 0
 158.532895388 -12.1962890625 82 -4.21078575667 82 245 c 0xf2
 82 281.013671875 88.73828125 354.556640625 118 399 c 0
 131.538085938 419.561523438 158 440 200.790039062 450.66015625 c 1
 115.784265457 481.133960751 100 537.855859992 100 614 c 0
 100 650.013671875 107 704 131 739.079101562 c 0
 168.435069885 793.795142178 226.055447704 808.329101562 400 808.329101562 c 0
 575.135995245 808.329101562 631.861438148 793.361758572 669 739.079101562 c 0
 693 704 700 650.013671875 700 614 c 0xec
 700 537.857673887 684.216920667 481.134385966 599.209960938 450.66015625 c 1
 642 440 668.461914062 419.561523438 682 399 c 0
 711.26171875 354.556640625 718 281.013671875 718 245 c 0xe2
EndSplineSet
Validated: 1
EndChar

StartChar: nine
Encoding: 57 57 8
Width: 800
Flags: W
HStem: -12.3291 58.8857<209.184 586.157> 302.671 58.8857<211.67 586.796> 749.672 58.5244<207.306 584.391>
VStem: 78.6523 65.9629<423.827 694.349> 91.75 65.4609<91.0887 119.604> 656.355 68.9922<216.796 676.643>
LayerCount: 2
Fore
SplineSet
397.80859375 749.671875 m 24xf4
 177.307826349 749.671875 144.615234375 729.133041856 144.615234375 562 c 0
 144.615234375 386.497764841 178.944634765 361.556640625 397.35546875 361.556640625 c 0
 607.607025591 361.556640625 656.35546875 383.650136582 656.35546875 546 c 0
 656.35546875 603.046875 647.29296875 635.208007812 642.33203125 655.373046875 c 0
 631.35546875 700 596.17578125 732.563476562 548.9765625 741.002929688 c 0
 505.767578125 748.728515625 458.181640625 749.671875 397.80859375 749.671875 c 24xf4
157.2109375 133 m 1xec
 176.257768005 65.6706902871 219.773055089 46.556640625 397.35546875 46.556640625 c 0
 456.01953125 46.556640625 514.80078125 49.5751953125 548.9765625 55.6865234375 c 0
 596.17578125 64.1240234375 632.208984375 93.0419921875 642.33203125 141.317382812 c 0
 652.353108359 189.106493927 656.66015625 299.381835938 659 368 c 1
 647 341 616.8203125 321.627929688 589.48046875 314.904296875 c 0
 556.554621394 306.806909424 476.857421875 302.670898438 397.35546875 302.670898438 c 0
 201.349458125 302.670898438 135.447320258 318.095549876 97.35546875 401 c 0
 80.35546875 438 78.65234375 502.952148438 78.65234375 558 c 0xf4
 78.65234375 660.974312336 81.6925457532 771.117680241 207.23046875 796.786132812 c 0
 252.90625 806.125 323.939453125 808.196289062 397.67578125 808.196289062 c 24
 578.113273083 808.196289062 661.401040715 803.74335695 699.94921875 700.314453125 c 0
 723.919921875 636.006835938 725.34765625 570.306640625 725.34765625 451.01171875 c 0
 725.34765625 323.716796875 721.990234375 154.661132812 696.35546875 91 c 0
 660.954077122 3.08485069668 599.049015808 -12.3291015625 397.35546875 -12.3291015625 c 0
 176.377791867 -12.3291015625 116.196787887 8.73928295856 91.75 118 c 1
 157.2109375 133 l 1xec
EndSplineSet
Validated: 1
EndChar

StartChar: seven
Encoding: 55 55 9
Width: 800
Flags: W
HStem: 0 21G<231 318.351> 740 60<80 651>
LayerCount: 2
Fore
SplineSet
80 800 m 1
 683 800 l 2
 709 800 728 788.071289062 728 764 c 3
 728 747 725.41015625 737.19921875 707.703125 706 c 2
 307 0 l 1
 231 0 l 1
 651 740 l 1
 80 740 l 1
 80 800 l 1
EndSplineSet
Validated: 1
EndChar

StartChar: colon
Encoding: 58 58 10
Width: 280
Flags: W
HStem: 0 107<90.893 189.107> 313 107<90.893 189.107>
VStem: 86.5 107<4.39297 102.607 317.393 415.607>
LayerCount: 2
Fore
SplineSet
126.5 420 m 2
 153.5 420 l 2
 175.5 420 193.5 402 193.5 380 c 2
 193.5 353 l 2
 193.5 331 175.5 313 153.5 313 c 2
 126.5 313 l 2
 104.5 313 86.5 331 86.5 353 c 2
 86.5 380 l 2
 86.5 402 104.5 420 126.5 420 c 2
126.5 107 m 2
 153.5 107 l 2
 175.5 107 193.5 89 193.5 67 c 2
 193.5 40 l 2
 193.5 18 175.5 0 153.5 0 c 2
 126.5 0 l 2
 104.5 0 86.5 18 86.5 40 c 2
 86.5 67 l 2
 86.5 89 104.5 107 126.5 107 c 2
EndSplineSet
Validated: 1
EndChar

StartChar: semicolon
Encoding: 59 59 11
Width: 280
Flags: W
HStem: -103 20<88.85 106.756> 0 107<91.143 143.25> 313 107<91.143 189.357>
VStem: 86.75 107<4.39297 100.519 317.393 415.607> 143.25 50.5<-53.5 0>
LayerCount: 2
Fore
SplineSet
126.75 420 m 2xf0
 153.75 420 l 2
 175.75 420 193.75 402 193.75 380 c 2
 193.75 353 l 2
 193.75 331 175.75 313 153.75 313 c 2
 126.75 313 l 2
 104.75 313 86.75 331 86.75 353 c 2
 86.75 380 l 2
 86.75 402 104.75 420 126.75 420 c 2xf0
126.75 107 m 2
 148.75 107 l 2
 173.75 107 193.75 87 193.75 62 c 2
 193.75 26 l 2xf0
 193.75 -67 132.25 -97 90.25 -103 c 1
 86.25 -83 l 1
 130.25 -67 143.25 -48 143.25 0 c 1xe8
 126.75 0 l 2
 104.75 0 86.75 18 86.75 40 c 2
 86.75 67 l 2
 86.75 89 104.75 107 126.75 107 c 2
EndSplineSet
Validated: 1
EndChar

StartChar: comma
Encoding: 44 44 12
Width: 280
Flags: W
HStem: -103 20<88.85 106.756> 0 107<91.143 143.25>
VStem: 86.75 107<4.39297 100.519> 143.25 50.5<-53.5 0>
LayerCount: 2
Fore
SplineSet
126.75 107 m 2xe0
 148.75 107 l 2
 173.75 107 193.75 87 193.75 62 c 2
 193.75 26 l 2xe0
 193.75 -67 132.25 -97 90.25 -103 c 1
 86.25 -83 l 1
 130.25 -67 143.25 -48 143.25 0 c 1xd0
 126.75 0 l 2
 104.75 0 86.75 18 86.75 40 c 2
 86.75 67 l 2
 86.75 89 104.75 107 126.75 107 c 2xe0
EndSplineSet
Validated: 1
EndChar

StartChar: period
Encoding: 46 46 13
Width: 280
Flags: W
HStem: 0 107<90.893 189.107>
VStem: 86.5 107<4.39297 102.607>
LayerCount: 2
Fore
SplineSet
126.5 107 m 2
 153.5 107 l 2
 175.5 107 193.5 89 193.5 67 c 2
 193.5 40 l 2
 193.5 18 175.5 0 153.5 0 c 2
 126.5 0 l 2
 104.5 0 86.5 18 86.5 40 c 2
 86.5 67 l 2
 86.5 89 104.5 107 126.5 107 c 2
EndSplineSet
Validated: 1
EndChar

StartChar: parenleft
Encoding: 40 40 15
Width: 360
Flags: W
HStem: 788 20G<255.8 300.183>
VStem: 91.3623 68.8926<67.6421 531.5>
LayerCount: 2
Fore
SplineSet
160.254882812 300 m 3
 160.254882812 211.747070312 162 71 188 -2 c 4
 214.650390625 -76.8251953125 263 -129 315 -162 c 1
 289.599609375 -209 l 1
 222 -174 162.651367188 -114.705078125 128.400390625 -25 c 0
 99 52 91.3623046875 147.91015625 91.3623046875 299 c 3
 91.3623046875 451.08984375 99 547 128.400390625 624 c 0
 162.651367188 713.705078125 222 773 289.599609375 808 c 1
 315 760 l 1
 263 727 214.650390625 675.825195312 188 601 c 0
 162 528 160.254882812 389.252929688 160.254882812 300 c 3
EndSplineSet
Validated: 1
EndChar

StartChar: parenright
Encoding: 41 41 16
Width: 360
Flags: W
HStem: 788 20G<57.8169 102.2>
VStem: 197.745 68.8926<67.6421 531.624>
LayerCount: 2
Fore
SplineSet
197.745117188 300 m 3
 197.745117188 389.252929688 196 528 170 601 c 0
 143.349609375 675.825195312 95 727 43 760 c 1
 68.400390625 808 l 1
 136 773 195.348632812 713.705078125 229.599609375 624 c 0
 259 547 266.637695312 452.08984375 266.637695312 299 c 3
 266.637695312 147.91015625 259 52 229.599609375 -25 c 0
 195.348632812 -114.705078125 136 -174 68.400390625 -209 c 1
 43 -162 l 1
 95 -129 143.349609375 -76.8251953125 170 -2 c 0
 196 71 197.745117188 211.747070312 197.745117188 300 c 3
EndSplineSet
Validated: 1
EndChar

StartChar: plus
Encoding: 43 43 17
Width: 720
VWidth: 1050
Flags: W
HStem: 268 64<110 328 392 610>
VStem: 328 64<50 268 332 550>
LayerCount: 2
Fore
SplineSet
328 550 m 1
 392 550 l 1
 392 332 l 1
 610 332 l 1
 610 268 l 1
 392 268 l 1
 392 50 l 1
 328 50 l 1
 328 268 l 1
 110 268 l 1
 110 332 l 1
 328 332 l 1
 328 550 l 1
EndSplineSet
Validated: 1
EndChar

StartChar: quotesingle
Encoding: 39 39 18
Width: 221
Flags: W
HStem: 621.1 178.9<76.4833 143.517>
VStem: 74 72<621.1 800>
LayerCount: 2
Fore
SplineSet
74 800 m 1
 146 800 l 1
 146 703.900390625 l 2
 146 628.407226562 141.200195312 621.099609375 126.799804688 621.099609375 c 2
 93.2001953125 621.099609375 l 2
 78.7998046875 621.099609375 74 628.408203125 74 703.900390625 c 2
 74 800 l 1
EndSplineSet
Validated: 1
EndChar

StartChar: equal
Encoding: 61 61 19
Width: 720
Flags: W
HStem: 135 60<110 610> 305 60<110 610>
LayerCount: 2
Fore
SplineSet
110 195 m 5
 610 195 l 5
 610 135 l 5
 110 135 l 5
 110 195 l 5
110 365 m 1
 610 365 l 1
 610 305 l 1
 110 305 l 1
 110 365 l 1
EndSplineSet
Validated: 1
EndChar

StartChar: less
Encoding: 60 60 20
Width: 720
Flags: W
LayerCount: 2
Fore
SplineSet
200.700195312 250 m 1
 600 85 l 1
 600 15 l 1
 116 215 l 1
 116 285 l 1
 600 485 l 1
 600 415 l 1
 200.700195312 250 l 1
EndSplineSet
Validated: 1
EndChar

StartChar: greater
Encoding: 62 62 21
Width: 720
Flags: W
LayerCount: 2
Fore
SplineSet
519.299804688 250 m 1
 120 415 l 1
 120 485 l 1
 604 285 l 1
 604 215 l 1
 120 15 l 1
 120 85 l 1
 519.299804688 250 l 1
EndSplineSet
Validated: 1
EndChar

StartChar: hyphen
Encoding: 45 45 22
Width: 400
VWidth: 1050
Flags: W
HStem: 265 70<30 370>
LayerCount: 2
Fore
SplineSet
30 265 m 1
 30 335 l 1
 370 335 l 1
 370 265 l 1
 30 265 l 1
EndSplineSet
Validated: 1
EndChar

StartChar: slash
Encoding: 47 47 23
Width: 540
Flags: W
LayerCount: 2
Fore
SplineSet
389.5 780 m 1
 461.5 780 l 1
 150.5 -180 l 1
 78.5 -180 l 1
 389.5 780 l 1
EndSplineSet
Validated: 1
EndChar

StartChar: backslash
Encoding: 92 92 24
Width: 540
Flags: W
LayerCount: 2
Fore
SplineSet
150.5 780 m 1
 461.5 -180 l 1
 389.5 -180 l 1
 78.5 780 l 1
 150.5 780 l 1
EndSplineSet
Validated: 1
EndChar

StartChar: O
Encoding: 79 79 25
Width: 881
Flags: W
HStem: -12.1963 58.5244<213.338 661.138> 749.443 58.8857<212.707 661.86>
VStem: 61 65.9395<166.339 626.957> 747.043 65.9395<168.453 628.354>
LayerCount: 2
Fore
SplineSet
636.611328125 738.313476562 m 0
 602.708984375 744.375976562 495.907226562 749.443359375 437.991210938 749.443359375 c 0
 379.327148438 749.443359375 270.546875 746.424804688 236.37109375 740.313476562 c 0
 189.170898438 731.875976562 151.138671875 702.958007812 143.014648438 654.682617188 c 0
 129.896484375 576.716796875 126.939453125 503.852539062 126.939453125 397.08203125 c 0
 126.939453125 291.458007812 130.896484375 220.59375 144.014648438 142.626953125 c 0
 152.138671875 94.3525390625 190.170898438 65.435546875 237.37109375 56.9970703125 c 0
 280.580078125 49.271484375 358.990234375 46.328125 437.538085938 46.328125 c 24
 515.9921875 46.328125 594.404296875 47.271484375 637.611328125 54.9970703125 c 0
 684.813476562 63.435546875 722.845703125 92.3525390625 730.967773438 140.626953125 c 0
 744.0859375 218.59375 747.04296875 291.458007812 747.04296875 397.08203125 c 0
 747.04296875 503.852539062 743.0859375 574.716796875 729.967773438 652.682617188 c 0
 721.845703125 700.958007812 683.813476562 729.875976562 636.611328125 738.313476562 c 0
61 396.98828125 m 0
 61 662.784312517 73.0444279326 765.889900487 195.866210938 796.095703125 c 0
 228.791992188 804.193359375 358.490234375 808.329101562 437.991210938 808.329101562 c 0
 516.833007812 808.329101562 645.48046875 804.30859375 678.116210938 796.095703125 c 0
 735.662109375 781.614257812 771.69140625 752.911132812 786.991210938 704 c 0
 807.479492188 638.500976562 812.982421875 524.283203125 812.982421875 396.98828125 c 0
 812.982421875 102.609265343 791.419845932 22.380394366 678.116210938 -0.7861328125 c 0
 632.44140625 -10.1240234375 531.991210938 -12.1962890625 437.671875 -12.1962890625 c 24
 342.991210938 -12.1962890625 241.357421875 -10.9814453125 195.866210938 -0.7861328125 c 0
 63.8670326289 28.7976881882 61 153.620807865 61 396.98828125 c 0
EndSplineSet
Validated: 1
EndChar

StartChar: N
Encoding: 78 78 26
Width: 868
Flags: W
HStem: 0 21G<71 141> 789 11G<102.652 131.5 721 791>
VStem: 71 70<0 698> 721 70<102 800>
LayerCount: 2
Fore
SplineSet
141 698 m 1
 141 0 l 1
 71 0 l 1
 71 754 l 2
 71 786 90.3046875 809 115 809 c 0
 148 809 167.685546875 779.743164062 179.72265625 765 c 2
 721 102 l 1
 721 800 l 1
 791 800 l 1
 791 46 l 2
 791 14 771.6953125 -9 747 -9 c 0
 714 -9 694.314453125 20.2568359375 682.27734375 35 c 2
 141 698 l 1
EndSplineSet
Validated: 1
EndChar

StartChar: H
Encoding: 72 72 27
Width: 869
Flags: W
HStem: 0 21G<72 142 722 792> 400 64<142 722> 780 20G<72 142 722 792>
VStem: 72 70<0 400 464 800> 722 70<0 400 464 800>
LayerCount: 2
Fore
SplineSet
142 400 m 1
 142 0 l 1
 72 0 l 1
 72 800 l 1
 142 800 l 1
 142 464 l 1
 722 464 l 1
 722 800 l 1
 792 800 l 1
 792 0 l 1
 722 0 l 1
 722 400 l 1
 142 400 l 1
EndSplineSet
Validated: 1
EndChar

StartChar: I
Encoding: 73 73 28
Width: 219
Flags: W
HStem: 0 21G<72 142> 780 20G<72 142>
VStem: 72 70<0 800>
LayerCount: 2
Fore
SplineSet
72 800 m 1
 142 800 l 1
 142 0 l 1
 72 0 l 1
 72 800 l 1
EndSplineSet
Validated: 1
EndChar

StartChar: J
Encoding: 74 74 29
Width: 734
Flags: W
HStem: -12.1963 58.5244<179.877 522.217> 780 20G<589.957 659.957>
VStem: 53 68.4814<101.77 163.716> 589.957 69.9912<111.906 800>
LayerCount: 2
Fore
SplineSet
659.948242188 282.98828125 m 2
 659.947265625 233 658.729492188 124.28125 639.55078125 82.685546875 c 0
 598.475671343 -6.39844220488 487.035921135 -12.1962890625 350.637695312 -12.1962890625 c 24
 161.209051532 -12.1962890625 75.6699757106 -3.2922612562 53 163 c 1
 121.481445312 170 l 1
 135.429129543 68.9803594939 171.506973443 46.328125 350.50390625 46.328125 c 24
 581.174934017 46.328125 589.95703125 85.937787065 589.95703125 299 c 10
 589.95703125 800 l 1
 659.95703125 800 l 1
 659.948242188 282.98828125 l 2
EndSplineSet
Validated: 1
EndChar

StartChar: M
Encoding: 77 77 30
Width: 1107
Flags: W
HStem: 0 21G<71 141 961 1031> 789 20G<105.652 134.5 967.5 996.348>
VStem: 71 70<0 690> 961 70<0 690>
LayerCount: 2
Fore
SplineSet
593.864257812 159.705078125 m 2
 580.942382812 141.040039062 567.734375 130.91796875 551 130.91796875 c 0
 534.265625 130.91796875 520.892578125 141.279296875 508.135742188 159.705078125 c 2
 141 690 l 1
 141 0 l 1
 71 0 l 1
 71 754 l 2
 71 786 93.3046875 809 118 809 c 0
 151 809 165.915039062 784.94140625 179.72265625 765 c 2
 551 228.801757812 l 1
 922.27734375 765 l 2
 935.15234375 783.59375 951 809 984 809 c 0
 1008.6953125 809 1031 786 1031 754 c 2
 1031 0 l 1
 961 0 l 1
 961 690 l 1
 593.864257812 159.705078125 l 2
EndSplineSet
Validated: 1
EndChar

StartChar: L
Encoding: 76 76 31
Width: 810
Flags: W
HStem: 0 64<142 752> 780 20G<72 142>
VStem: 72 70<64 800>
LayerCount: 2
Fore
SplineSet
72 800 m 1
 142 800 l 1
 142 64 l 1
 752 64 l 1
 752 0 l 1
 72 0 l 1
 72 800 l 1
EndSplineSet
Validated: 1
EndChar

StartChar: C
Encoding: 67 67 32
Width: 870
Flags: W
HStem: -12.1963 58.5244<212.838 661.547> 609 21G<730.395 795.535> 749.443 58.8857<212.707 661.719>
VStem: 61 65.9395<167.018 625.953> 731.447 64.0879<616.126 695.777> 741.544 66.208<103.747 192>
LayerCount: 2
Fore
SplineSet
741.543945312 196 m 1xf4
 807.751953125 192 l 1xf4
 801.597093699 59.0673897219 756.181551031 14.3575712209 682.116210938 -0.7861328125 c 0
 636.44140625 -10.1240234375 531.991210938 -12.1962890625 437.671875 -12.1962890625 c 24
 342.991210938 -12.1962890625 241.357421875 -8.9814453125 195.866210938 1.2138671875 c 0
 61 31.4402511282 61 178.964325496 61 396.98828125 c 0
 61 631.92992189 68.0724256127 762.667126178 195.866210938 794.095703125 c 0
 228.791992188 802.193359375 358.490234375 808.329101562 437.991210938 808.329101562 c 0
 516.833007812 808.329101562 641.48046875 804.30859375 674.116210938 796.095703125 c 0
 777.124219408 770.173702045 790.863087867 705.237070131 795.53515625 617 c 1
 731.447265625 609 l 1xf8
 729.342544593 652.400320157 725.878990532 723.820405222 633.611328125 740.313476562 c 0
 599.708984375 746.375976562 495.907226562 749.443359375 437.991210938 749.443359375 c 0
 379.327148438 749.443359375 270.546875 744.424804688 236.37109375 738.313476562 c 0
 189.170898438 729.875976562 151.138671875 696.958007812 143.014648438 648.682617188 c 0
 129.896484375 570.716796875 126.939453125 503.852539062 126.939453125 397.08203125 c 0
 126.939453125 291.458007812 129.896484375 224.59375 143.014648438 146.626953125 c 0
 151.138671875 98.3525390625 189.170898438 65.435546875 236.37109375 56.9970703125 c 0
 279.580078125 49.271484375 358.990234375 46.328125 437.538085938 46.328125 c 24
 515.9921875 46.328125 598.404296875 47.271484375 641.611328125 54.9970703125 c 0
 688.813476562 63.435546875 722.991210938 94 734.967773438 136.626953125 c 0
 739.143554688 151.490234375 740.703125 178.881835938 741.543945312 196 c 1xf4
EndSplineSet
Validated: 1
EndChar

StartChar: Q
Encoding: 81 81 33
Width: 924
Flags: W
HStem: -12.1963 58.5244<212.838 616.68> 749.443 58.8857<212.707 662.36>
VStem: 61 65.9395<165.372 626.957> 747.043 65.9395<167.67 629.321>
LayerCount: 2
Fore
SplineSet
687.048828125 73.90234375 m 1
 709.750976562 88.6884765625 725.986328125 111.016601562 730.967773438 140.626953125 c 0
 744.0859375 218.59375 747.04296875 291.458007812 747.04296875 397.08203125 c 0
 747.04296875 503.852539062 744.0859375 576.716796875 730.967773438 654.682617188 c 0
 722.845703125 702.958007812 684.813476562 731.875976562 637.611328125 740.313476562 c 0
 603.708984375 746.375976562 495.907226562 749.443359375 437.991210938 749.443359375 c 0
 379.327148438 749.443359375 270.546875 746.424804688 236.37109375 740.313476562 c 0
 189.170898438 731.875976562 151.138671875 702.958007812 143.014648438 654.682617188 c 0
 129.896484375 576.716796875 126.939453125 503.852539062 126.939453125 397.08203125 c 0
 126.939453125 291.458007812 129.896484375 218.59375 143.014648438 140.626953125 c 0
 151.138671875 92.3525390625 189.170898438 63.435546875 236.37109375 54.9970703125 c 0
 279.580078125 47.271484375 358.990234375 46.328125 437.538085938 46.328125 c 0
 505.537109375 46.328125 573.504882812 47.037109375 618.545898438 52.255859375 c 1
 466.991210938 220 l 1
 553.991210938 222 l 5
 687.048828125 73.90234375 l 1
812.982421875 396.98828125 m 0
 812.982421875 126.974850438 792.15771499 58.5133137095 734.450195312 21.12890625 c 1
 886.991210938 -148 l 1
 800.991210938 -151 l 1
 667.840820312 -2.6259765625 l 1
 618.53515625 -10.4013671875 525.44921875 -12.1962890625 437.671875 -12.1962890625 c 0
 342.991210938 -12.1962890625 241.357421875 -10.9814453125 195.866210938 -0.7861328125 c 0
 63.8670326289 28.7976881882 61 153.620807865 61 396.98828125 c 0
 61 662.784312517 73.0444279326 765.889900487 195.866210938 796.095703125 c 0
 228.791992188 804.193359375 358.490234375 808.329101562 437.991210938 808.329101562 c 0
 516.833007812 808.329101562 645.48046875 804.30859375 678.116210938 796.095703125 c 0
 735.662109375 781.614257812 771.69140625 752.911132812 786.991210938 704 c 0
 807.479492188 638.500976562 812.982421875 524.283203125 812.982421875 396.98828125 c 0
EndSplineSet
Validated: 1
EndChar

StartChar: asterisk
Encoding: 42 42 34
Width: 400
VWidth: 1050
Flags: W
HStem: 155.232 294.636
VStem: 168.568 62.8633<340.472 449.868>
LayerCount: 2
Fore
SplineSet
231.431640625 340.470703125 m 1
 335.47265625 374.276367188 l 1
 354.896484375 314.491210938 l 1
 250.853515625 280.6875 l 1
 315.158203125 192.18359375 l 1
 264.30078125 155.232421875 l 1
 199.998046875 243.735351562 l 1
 135.69921875 155.233398438 l 1
 84.841796875 192.18359375 l 1
 149.14453125 280.688476562 l 1
 45.103515625 314.491210938 l 1
 64.525390625 374.27734375 l 1
 168.568359375 340.471679688 l 1
 168.568359375 449.868164062 l 1
 231.431640625 449.868164062 l 1
 231.431640625 340.470703125 l 1
EndSplineSet
Validated: 1
EndChar

StartChar: bracketleft
Encoding: 91 91 35
Width: 360
Flags: W
HStem: -180 55<181 305> 725 55<181 305>
VStem: 115 190<-180 -125 725 780> 115 66<-125 725>
LayerCount: 2
Fore
SplineSet
115 780 m 5xe0
 305 780 l 1
 305 725 l 1xe0
 181 725 l 1
 181 -125 l 1xd0
 305 -125 l 1
 305 -180 l 1
 115 -180 l 1
 115 780 l 5xe0
EndSplineSet
Validated: 1
EndChar

StartChar: bracketright
Encoding: 93 93 36
Width: 360
Flags: W
HStem: -180 55<55 179> 725 55<55 179>
VStem: 55 190<-180 -125 725 780> 179 66<-125 725>
LayerCount: 2
Fore
SplineSet
245 780 m 1xe0
 245 -180 l 1
 55 -180 l 1
 55 -125 l 1xe0
 179 -125 l 1
 179 725 l 1xd0
 55 725 l 1
 55 780 l 1
 245 780 l 1xe0
EndSplineSet
Validated: 1
EndChar

StartChar: underscore
Encoding: 95 95 37
Width: 640
Flags: W
HStem: -60 60<10 630>
LayerCount: 2
Fore
SplineSet
10 0 m 1
 630 0 l 1
 630 -60 l 1
 10 -60 l 1
 10 0 l 1
EndSplineSet
Validated: 1
EndChar

StartChar: percent
Encoding: 37 37 38
Width: 900
Flags: W
HStem: -0.607422 61.3574<588.958 724.827> 236.787 59.8203<588.958 724.827> 485.393 61.3574<172.958 308.827> 722.787 59.8203<172.958 308.827>
VStem: 103.76 58.3857<559.039 711.196> 320.702 59.5381<559.039 711.196> 519.76 58.3857<73.0389 225.196> 736.702 59.5381<73.0389 225.196>
LayerCount: 2
Fore
SplineSet
611.919921875 296.607421875 m 2
 704.080078125 296.607421875 l 2
 754.767578125 296.607421875 796.240234375 255.135742188 796.240234375 204.448242188 c 2
 796.240234375 91.5517578125 l 2
 796.240234375 40.8642578125 754.767578125 -0.607421875 704.080078125 -0.607421875 c 2
 611.919921875 -0.607421875 l 2
 561.232421875 -0.607421875 519.759765625 40.8642578125 519.759765625 91.5517578125 c 2
 519.759765625 204.448242188 l 2
 519.759765625 255.135742188 561.232421875 296.607421875 611.919921875 296.607421875 c 2
631.893554688 236.787109375 m 2
 602.333007812 236.787109375 578.145507812 213.487304688 578.145507812 185.010742188 c 2
 578.145507812 112.526367188 l 2
 578.145507812 84.048828125 602.333007812 60.75 631.893554688 60.75 c 2
 682.954101562 60.75 l 2
 712.514648438 60.75 736.702148438 84.048828125 736.702148438 112.526367188 c 2
 736.702148438 185.010742188 l 2
 736.702148438 213.487304688 712.514648438 236.787109375 682.954101562 236.787109375 c 2
 631.893554688 236.787109375 l 2
653 780 m 1
 735 780 l 1
 247 0 l 1
 165 0 l 1
 653 780 l 1
195.919921875 782.607421875 m 2
 288.080078125 782.607421875 l 2
 338.767578125 782.607421875 380.240234375 741.135742188 380.240234375 690.448242188 c 2
 380.240234375 577.551757812 l 2
 380.240234375 526.864257812 338.767578125 485.392578125 288.080078125 485.392578125 c 2
 195.919921875 485.392578125 l 2
 145.232421875 485.392578125 103.759765625 526.864257812 103.759765625 577.551757812 c 2
 103.759765625 690.448242188 l 2
 103.759765625 741.135742188 145.232421875 782.607421875 195.919921875 782.607421875 c 2
215.893554688 722.787109375 m 2
 186.333007812 722.787109375 162.145507812 699.487304688 162.145507812 671.010742188 c 2
 162.145507812 598.526367188 l 2
 162.145507812 570.048828125 186.333007812 546.75 215.893554688 546.75 c 2
 266.954101562 546.75 l 2
 296.514648438 546.75 320.702148438 570.048828125 320.702148438 598.526367188 c 2
 320.702148438 671.010742188 l 2
 320.702148438 699.487304688 296.514648438 722.787109375 266.954101562 722.787109375 c 2
 215.893554688 722.787109375 l 2
EndSplineSet
Validated: 1
EndChar

StartChar: B
Encoding: 66 66 39
Width: 821
Flags: W
HStem: 0 59<142 614.946> 400 67<142 592.453> 740 60<142 590.557>
VStem: 72 70<59 400 467 740> 646.999 65.001<514.249 692.207> 690.999 67.001<120.97 330.907>
LayerCount: 2
Fore
SplineSet
758 227 m 0xf4
 758 12.2010205865 652.258805235 0 418 0 c 2
 72 0 l 1
 72 800 l 1
 416 799.998046875 l 2
 526.900745277 799.862895517 636.503922708 796.115688373 681 731.079101562 c 0
 705 696 712 643.013671875 712 607 c 0xf8
 712 517.056412853 691.804719832 465.194160694 612.209960938 436.66015625 c 1
 754.428102118 414.972702877 758 290.014395651 758 227 c 0xf4
418 740 m 2
 142 740 l 1
 142 467 l 1
 420 467 l 2
 528.808196045 467 616.694536867 467 641.052734375 544 c 0
 646.31640625 560.639648438 646.999023438 592 646.999023438 608 c 0
 646.999023438 723.014783394 585.109263743 740 418 740 c 2
142 59 m 1
 417 59 l 2
 634.100035104 59 690.999023438 83.9017888456 690.999023438 220 c 0xf4
 690.999023438 273.009765625 686.231445312 303.868164062 675 323.415039062 c 4
 630.993035155 400 516.681015397 400 420 400 c 2
 142 400 l 1
 142 59 l 1
EndSplineSet
Validated: 1
EndChar

StartChar: P
Encoding: 80 80 40
Width: 809
Flags: W
HStem: 0 21G<72 142> 400 63<142 622.827> 736 64<142 618.152>
VStem: 72 70<0 400 463 736> 678.999 68.001<512.475 685.701>
LayerCount: 2
Fore
SplineSet
426 799.998046875 m 2
 617.828092623 799.764271825 747 789.768986717 747 605 c 0
 747 484.939117935 710.82226905 442.197159925 626 416 c 0
 577.837890625 401.125 498.853515625 400 430 400 c 2
 142 400 l 1
 142 0 l 1
 72 0 l 1
 72 800 l 1
 426 799.998046875 l 2
678.999023438 606 m 0
 678.999023438 718.001117273 614.494936235 736 428 736 c 2
 142 736 l 1
 142 463 l 1
 430 463 l 2
 621.957579707 463 678.999023438 475.012573534 678.999023438 606 c 0
EndSplineSet
Validated: 1
EndChar

StartChar: R
Encoding: 82 82 41
Width: 820
Flags: W
HStem: 0 21G<72 142 666.919 771> 400 63<142 587.247> 736 64<142 616.795>
VStem: 72 70<0 400 463 736> 678.999 68.001<511.189 685.62>
LayerCount: 2
Fore
SplineSet
747 605 m 0
 747 492.636522339 712.158313924 450.573094803 633.076171875 423.885742188 c 1
 703.027682113 398.271652657 725.923155021 378.76438872 729 188 c 0
 729.653320312 147.4921875 731.791015625 97.0009765625 737 72 c 0
 742 48 758 12 771 0 c 1
 701 0 l 1
 632.838999072 36.3525338282 695.47053686 278.76596682 632 352 c 0
 619 367 594 379 564 388 c 0
 529.876953125 398.236328125 512 400 430 400 c 2
 142 400 l 1
 142 0 l 1
 72 0 l 1
 72 800 l 1
 426 799.998046875 l 2
 614.70907371 799.768072879 747 792.040244733 747 605 c 0
678.999023438 606 m 0
 678.999023438 722.386015539 604.490883812 736 428 736 c 2
 142 736 l 1
 142 463 l 1
 430 463 l 2
 619.5882387 463 678.999023438 472.432866102 678.999023438 606 c 0
EndSplineSet
Validated: 1
EndChar

StartChar: question
Encoding: 63 63 42
Width: 560
Flags: W
HStem: 0 107<229.893 328.107> 747.499 58.501<173.454 387.788>
VStem: 59 70<592 708.092> 225.5 107<4.39297 102.607> 242 70<209 344.103> 432.005 68.9951<523.563 704.622>
LayerCount: 2
Fore
SplineSet
281 747.499023438 m 0xec
 244.721914226 747.499023438 129 747.499023438 129 648 c 26
 129 592 l 1
 59 592 l 1
 59 648 l 2
 59 731.904296875 130 786 184 797 c 0
 217.783203125 803.881835938 241 806 280 806 c 0
 325.01171875 806 351 804 380 797 c 0
 442.494140625 781.915039062 491.943359375 732.052734375 499 649 c 0
 500.274414062 634 501 619 501 604 c 0
 501 581.230841088 501 519.951623359 458 477.641601562 c 1
 345 357.454101562 l 1
 324.907226562 337.684570312 312 307 312 271 c 2
 312 257 l 2
 312 240 310 209 304 209 c 2
 249 209 l 2
 244 209 242 240 242 258 c 2
 242 293 l 2
 242 340 265.40625 369.747070312 290 395.229492188 c 2
 405 517.384765625 l 2
 420.124378948 533.450413784 432.004882812 555.464704155 432.004882812 609 c 0
 432.004882812 708.411833126 400.537735998 747.499023438 281 747.499023438 c 0xec
265.5 107 m 2
 292.5 107 l 2
 314.5 107 332.5 89 332.5 67 c 2
 332.5 40 l 2
 332.5 18 314.5 0 292.5 0 c 2
 265.5 0 l 2
 243.5 0 225.5 18 225.5 40 c 2
 225.5 67 l 2xf4
 225.5 89 243.5 107 265.5 107 c 2
EndSplineSet
Validated: 1
EndChar

StartChar: exclam
Encoding: 33 33 43
Width: 280
Flags: W
HStem: 0 107<90.893 189.107> 780 20G<102 178>
VStem: 86.5 107<4.39297 102.607> 102 76<239.576 800>
LayerCount: 2
Fore
SplineSet
102 800 m 1xd0
 178 800 l 1
 178 480 l 2
 178 430 170 226 166 226 c 2
 114 226 l 2
 110 226 102 430 102 480 c 2
 102 800 l 1xd0
126.5 107 m 2
 153.5 107 l 2
 175.5 107 193.5 89 193.5 67 c 2
 193.5 40 l 2
 193.5 18 175.5 0 153.5 0 c 2
 126.5 0 l 2
 104.5 0 86.5 18 86.5 40 c 2
 86.5 67 l 2xe0
 86.5 89 104.5 107 126.5 107 c 2
EndSplineSet
Validated: 1
EndChar

StartChar: quotedbl
Encoding: 34 34 44
Width: 381
Flags: W
HStem: 621.1 178.9<76.4833 143.517 236.483 303.517>
VStem: 74 72<621.1 800> 234 72<621.1 800>
LayerCount: 2
Fore
SplineSet
306 800 m 1
 306 703.900390625 l 2
 306 628.408203125 301.200195312 621.099609375 286.799804688 621.099609375 c 2
 253.200195312 621.099609375 l 2
 238.799804688 621.099609375 234 628.407226562 234 703.900390625 c 2
 234 800 l 1
 306 800 l 1
74 800 m 1
 146 800 l 1
 146 703.900390625 l 2
 146 628.407226562 141.200195312 621.099609375 126.799804688 621.099609375 c 2
 93.2001953125 621.099609375 l 2
 78.7998046875 621.099609375 74 628.408203125 74 703.900390625 c 2
 74 800 l 1
EndSplineSet
Validated: 1
EndChar

StartChar: U
Encoding: 85 85 45
Width: 894
Flags: W
HStem: -12.1963 58.5244<221.669 667.502> 780 20G<67 134 753 820>
VStem: 67 67<111.427 800> 753 67<106.305 800>
LayerCount: 2
Fore
SplineSet
134 324 m 2
 134 51.5363514559 145.467290822 46.328125 444.546875 46.328125 c 24
 625.448532916 46.328125 709.784830989 48.7818989103 737.9765625 118.626953125 c 0
 751.25390625 151.521484375 753 232 753 324 c 10
 753 800 l 1
 820 800 l 1
 820 324 l 18
 820 228 818.173828125 117.428710938 798.59375 78.685546875 c 0
 757.322316351 -2.97927750449 689.998316902 -12.1962890625 444.680664062 -12.1962890625 c 24
 235.792214316 -12.1962890625 134.582055388 -10.4251265408 93.40625 74.685546875 c 0
 71 121 67 186 67 324 c 10
 67 800 l 1
 134 800 l 1
 134 324 l 2
EndSplineSet
Validated: 1
EndChar

StartChar: grave
Encoding: 96 96 46
Width: 360
Flags: W
HStem: 626.469 173.531
VStem: 91 174.864
LayerCount: 2
Fore
SplineSet
91 800 m 1
 189 800 l 1
 223 744 l 2
 252.139648438 696.004882812 265.864257812 664.912109375 265.864257812 649 c 3
 265.864257812 643.62109375 264.682617188 639.9765625 262 638 c 2
 250 628 l 2
 248.479492188 626.879882812 246.46484375 626.46875 244 626.46875 c 3
 229.280273438 626.46875 198.505859375 646.420898438 161 700 c 2
 91 800 l 1
EndSplineSet
Validated: 1
EndChar

StartChar: V
Encoding: 86 86 47
Width: 835
Flags: W
HStem: 780 20G<42 126.396 705.554 790>
LayerCount: 2
Fore
SplineSet
42 800 m 1
 118 800 l 1
 415.11328125 92.25 l 1
 714 800 l 1
 790 800 l 1
 462.712890625 25 l 2
 451.415039062 -1.7529296875 436.19921875 -12.3828125 413.918945312 -12.3828125 c 0
 391.678710938 -12.3828125 378.577148438 -1.7578125 367.344726562 25 c 2
 42 800 l 1
EndSplineSet
Validated: 1
EndChar

StartChar: W
Encoding: 87 87 48
Width: 1140
Flags: W
HStem: 780 20G<42 123.146 1012.42 1093>
LayerCount: 2
Fore
SplineSet
628.092773438 687 m 6
 854.88671875 92.25 l 1
 1017 800 l 1
 1093 800 l 1
 902.655273438 25 l 2
 895.818359375 -2.8369140625 878.321289062 -12.3828125 856.081054688 -12.3828125 c 0
 833.80078125 -12.3828125 817.919921875 -2.517578125 807.287109375 25 c 6
 567.5 645.5546875 l 1
 347.712890625 25 l 6
 337.962890625 -2.529296875 321.19921875 -12.3828125 298.918945312 -12.3828125 c 0
 276.678710938 -12.3828125 259.879882812 -2.76171875 252.344726562 25 c 2
 42 800 l 1
 118 800 l 1
 300.11328125 92.25 l 1
 506.907226562 687 l 6
 523 733.283203125 543.84375 744.608398438 567.5 744.608398438 c 0
 591.15625 744.608398438 610.953125 731.947265625 628.092773438 687 c 6
EndSplineSet
Validated: 1
EndChar

StartChar: A
Encoding: 65 65 49
Width: 839
Flags: W
HStem: 0 21G<45 129.396 708.554 793> 238 68<249.459 587.774> 792.75 20G<405.493 430.753>
LayerCount: 2
Fore
SplineSet
45 0 m 1
 370.344726562 775 l 2
 381.577148438 801.7578125 392.873046875 812.75 418.11328125 812.75 c 4
 443.393554688 812.75 454.415039062 801.752929688 465.712890625 775 c 2
 793 0 l 1
 717 0 l 1
 616.491210938 238 l 1
 220.912109375 238 l 1
 121 0 l 1
 45 0 l 1
249.458984375 306 m 1
 587.774414062 306 l 1
 418.11328125 707.75 l 1
 249.458984375 306 l 1
EndSplineSet
Validated: 1
EndChar

StartChar: plusminus
Encoding: 177 177 50
Width: 720
Flags: W
HStem: -100 64<110 610> 0 21G<328 392> 218 64<110 328 392 610>
VStem: 328 64<0 218 282 500>
LayerCount: 2
Fore
SplineSet
110 -100 m 5
 110 -36 l 5
 610 -36 l 5
 610 -100 l 5
 110 -100 l 5
328 500 m 1
 392 500 l 1
 392 282 l 1
 610 282 l 1
 610 218 l 1
 392 218 l 1
 392 0 l 1
 328 0 l 1
 328 218 l 1
 110 218 l 1
 110 282 l 1
 328 282 l 1
 328 500 l 1
EndSplineSet
Validated: 1
EndChar

StartChar: exclamdown
Encoding: 161 161 51
Width: 360
Flags: W
HStem: -200 21G<142 218> 493 107<130.893 229.107>
VStem: 126.5 107<497.393 595.607> 142 76<-200 360.424>
LayerCount: 2
Fore
SplineSet
142 -200 m 1xd0
 142 120 l 2
 142 170 150 374 154 374 c 2
 206 374 l 2
 210 374 218 170 218 120 c 2
 218 -200 l 1
 142 -200 l 1xd0
166.5 493 m 2
 144.5 493 126.5 511 126.5 533 c 2
 126.5 560 l 2
 126.5 582 144.5 600 166.5 600 c 2
 193.5 600 l 2
 215.5 600 233.5 582 233.5 560 c 2
 233.5 533 l 2xe0
 233.5 511 215.5 493 193.5 493 c 2
 166.5 493 l 2
EndSplineSet
Validated: 1
EndChar

StartChar: questiondown
Encoding: 191 191 52
Width: 560
Flags: W
HStem: -206 58.501<172.212 386.546> 493 107<231.893 330.107>
VStem: 59 68.9951<-104.622 76.4375> 227.5 107<497.393 595.607> 248 70<255.897 391> 431 70<-108.092 8>
LayerCount: 2
Fore
SplineSet
279 -147.499023438 m 0xec
 315.278085774 -147.499023438 431 -147.499023438 431 -48 c 26
 431 8 l 1
 501 8 l 1
 501 -48 l 2
 501 -131.904296875 430 -186 376 -197 c 0
 342.216796875 -203.881835938 319 -206 280 -206 c 0
 234.98828125 -206 209 -204 180 -197 c 0
 117.505859375 -181.915039062 68.056640625 -132.052734375 61 -49 c 0
 59.7255859375 -34 59 -19 59 -4 c 0
 59 18.7691589121 59 80.0483766404 102 122.358398438 c 1
 215 242.545898438 l 1
 235.092773438 262.315429688 248 293 248 329 c 2
 248 343 l 2
 248 360 250 391 256 391 c 2
 311 391 l 2
 316 391 318 360 318 342 c 2
 318 307 l 2
 318 260 294.59375 230.252929688 270 204.770507812 c 2
 155 82.615234375 l 2
 139.875621053 66.5495862159 127.995117188 44.5352958464 127.995117188 -9 c 0
 127.995117188 -108.411833126 159.462264002 -147.499023438 279 -147.499023438 c 0xec
294.5 493 m 2
 267.5 493 l 2
 245.5 493 227.5 511 227.5 533 c 2
 227.5 560 l 2
 227.5 582 245.5 600 267.5 600 c 2
 294.5 600 l 2
 316.5 600 334.5 582 334.5 560 c 2
 334.5 533 l 2xf4
 334.5 511 316.5 493 294.5 493 c 2
EndSplineSet
Validated: 1
EndChar

StartChar: multiply
Encoding: 215 215 53
Width: 720
Flags: W
LayerCount: 2
Fore
SplineSet
160.595703125 404.149414062 m 1
 205.850585938 449.404296875 l 1
 360 295.254882812 l 1
 514.149414062 449.404296875 l 1
 559.404296875 404.149414062 l 1
 405.254882812 250 l 1
 559.404296875 95.8505859375 l 1
 514.149414062 50.595703125 l 1
 360 204.745117188 l 1
 205.850585938 50.595703125 l 1
 160.595703125 95.8505859375 l 1
 314.745117188 250 l 1
 160.595703125 404.149414062 l 1
EndSplineSet
Validated: 1
EndChar

StartChar: divide
Encoding: 247 247 54
Width: 720
Flags: W
HStem: 0 107<310.893 409.107> 218 64<110 610> 393 107<310.893 409.107>
VStem: 306.5 107<4.39297 102.607 397.393 495.607>
CounterMasks: 1 e0
LayerCount: 2
Fore
SplineSet
346.5 393 m 2
 324.5 393 306.5 411 306.5 433 c 2
 306.5 460 l 2
 306.5 482 324.5 500 346.5 500 c 2
 373.5 500 l 2
 395.5 500 413.5 482 413.5 460 c 2
 413.5 433 l 2
 413.5 411 395.5 393 373.5 393 c 2
 346.5 393 l 2
110 218 m 1
 110 282 l 1
 610 282 l 1
 610 218 l 1
 110 218 l 1
346.5 107 m 2
 373.5 107 l 2
 395.5 107 413.5 89 413.5 67 c 2
 413.5 40 l 2
 413.5 18 395.5 0 373.5 0 c 2
 346.5 0 l 2
 324.5 0 306.5 18 306.5 40 c 2
 306.5 67 l 2
 306.5 89 324.5 107 346.5 107 c 2
EndSplineSet
Validated: 1
EndChar

StartChar: acute
Encoding: 180 180 55
Width: 360
Flags: W
HStem: 626.469 173.531
VStem: 90.1357 174.864
LayerCount: 2
Fore
SplineSet
265 800 m 1
 195 700 l 2
 157.494140625 646.420898438 126.719726562 626.46875 112 626.46875 c 3
 109.53515625 626.46875 107.520507812 626.879882812 106 628 c 2
 94 638 l 2
 91.3173828125 639.9765625 90.1357421875 643.62109375 90.1357421875 649 c 3
 90.1357421875 664.912109375 103.860351562 696.004882812 133 744 c 2
 167 800 l 1
 265 800 l 1
EndSplineSet
Validated: 1
EndChar

StartChar: periodcentered
Encoding: 183 183 56
Width: 360
Flags: W
HStem: 196.5 107<130.893 229.107>
VStem: 126.5 107<200.893 299.107>
LayerCount: 2
Fore
SplineSet
166.5 303.5 m 2
 193.5 303.5 l 2
 215.5 303.5 233.5 285.5 233.5 263.5 c 2
 233.5 236.5 l 2
 233.5 214.5 215.5 196.5 193.5 196.5 c 2
 166.5 196.5 l 2
 144.5 196.5 126.5 214.5 126.5 236.5 c 2
 126.5 263.5 l 2
 126.5 285.5 144.5 303.5 166.5 303.5 c 2
EndSplineSet
Validated: 1
EndChar

StartChar: quotedblright
Encoding: 256 8221 57
Width: 440
Flags: W
HStem: 590 20<78.85 96.7559 258.85 276.756> 693 107<81.143 133.25 261.143 313.25>
VStem: 76.75 107<697.393 793.519> 133.25 50.5<639.5 693> 256.75 107<697.393 793.519> 313.25 50.5<639.5 693>
LayerCount: 2
Fore
SplineSet
296.75 800 m 2xc8
 318.75 800 l 2
 343.75 800 363.75 780 363.75 755 c 2
 363.75 719 l 2xc8
 363.75 626 302.25 596 260.25 590 c 1
 256.25 610 l 1
 300.25 626 313.25 645 313.25 693 c 1xc4
 296.75 693 l 2
 274.75 693 256.75 711 256.75 733 c 2
 256.75 760 l 2
 256.75 782 274.75 800 296.75 800 c 2xc8
116.75 800 m 2
 138.75 800 l 2
 163.75 800 183.75 780 183.75 755 c 2
 183.75 719 l 2xe0
 183.75 626 122.25 596 80.25 590 c 1
 76.25 610 l 1
 120.25 626 133.25 645 133.25 693 c 1xd0
 116.75 693 l 2
 94.75 693 76.75 711 76.75 733 c 2
 76.75 760 l 2xe0
 76.75 782 94.75 800 116.75 800 c 2
EndSplineSet
Validated: 1
EndChar

StartChar: quotedblleft
Encoding: 257 8220 58
Width: 440
Flags: W
HStem: 591 107<126.75 178.857 306.75 358.857> 781 20<163.244 181.15 343.244 361.15>
VStem: 76.25 107<597.481 693.607> 76.25 50.5<698 751.5> 256.25 107<597.481 693.607> 256.25 50.5<698 751.5>
LayerCount: 2
Fore
SplineSet
143.25 591 m 2xe0
 121.25 591 l 2
 96.25 591 76.25 611 76.25 636 c 2
 76.25 672 l 2xe0
 76.25 765 137.75 795 179.75 801 c 1
 183.75 781 l 1
 139.75 765 126.75 746 126.75 698 c 1xd0
 143.25 698 l 2
 165.25 698 183.25 680 183.25 658 c 2
 183.25 631 l 2
 183.25 609 165.25 591 143.25 591 c 2xe0
323.25 591 m 2
 301.25 591 l 2
 276.25 591 256.25 611 256.25 636 c 2
 256.25 672 l 2xc8
 256.25 765 317.75 795 359.75 801 c 1
 363.75 781 l 1
 319.75 765 306.75 746 306.75 698 c 1xc4
 323.25 698 l 2
 345.25 698 363.25 680 363.25 658 c 2
 363.25 631 l 2xc8
 363.25 609 345.25 591 323.25 591 c 2
EndSplineSet
Validated: 1
EndChar

StartChar: D
Encoding: 68 68 59
Width: 876
Flags: W
HStem: 0 60<142 658.067> 740 60<142 644.975>
VStem: 72 70<60 740> 743.052 65.9395<154.848 616.233>
LayerCount: 2
Fore
SplineSet
72 0 m 1
 72 800 l 1
 419 800 l 2
 497.841796875 800 617.489257812 796.30859375 650.125 788.095703125 c 0
 707.670898438 773.614257812 750.700195312 748.911132812 771 700 c 0
 797.307617188 636.614257812 808.991210938 513.283203125 808.991210938 385.98828125 c 4
 808.991210938 266.693359375 801.322265625 170.108398438 780.59375 107.685546875 c 0
 762.21484375 52.33984375 716.514648438 22.5380859375 661.125 11.2138671875 c 0
 615.450195312 1.8759765625 528.319335938 0 434 0 c 26
 72 0 l 1
432 60 m 26
 510.454101562 60 589.413085938 61.2724609375 632.620117188 68.9970703125 c 0
 679.822265625 77.435546875 717.854492188 104.352539062 725.9765625 152.626953125 c 0
 739.094726562 230.59375 743.051757812 280.458007812 743.051757812 386.08203125 c 4
 743.051757812 492.852539062 736.094726562 568.716796875 716.9765625 645.682617188 c 0
 705.174804688 693.192382812 665.822265625 719.875976562 618.620117188 729.313476562 c 0
 584.848632812 736.065429688 487.916015625 740 430 740 c 2
 142 740 l 1
 142 60 l 1
 432 60 l 26
EndSplineSet
Validated: 1
EndChar

StartChar: at
Encoding: 64 64 60
Width: 900
Flags: W
HStem: -12.1963 44.4619<240.035 659.19> 148.909 54.4307<315.809 529.38> 157.896 54.0781<666.727 748.471> 593.576 54.6475<321.093 558.414> 763.506 44.8232<240.526 661.377>
VStem: 71.0088 53.5371<180.887 614.157> 223.405 56.7139<236.966 551.995> 602.449 54.7532<261.281 553.426 610.558 644> 772.454 53.5371<234.573 615.082>
LayerCount: 2
Fore
SplineSet
602.448895246 411.999997246 m 0xdf80
 602.448895246 547.524415665 589.635288684 564.904625206 528.232421875 583.453125 c 0
 510.568359375 588.7890625 472.606445312 593.576171875 441.576171875 593.576171875 c 0
 410.14453125 593.576171875 375.400390625 592.461914062 345.912109375 584.524414062 c 0
 321.104492188 577.846679688 295.837801718 555.042380023 289.772460938 529.524414062 c 0
 281.745117188 495.751953125 280.119140625 454.713867188 280.119140625 397.5078125 c 0
 280.119140625 340.916015625 283.280273438 302.948242188 290.30859375 261.17578125 c 0
 292.504260129 248.127404454 300.040717939 203.33984375 420.532226562 203.33984375 c 0
 540.015701203 203.33984375 585.997948286 261.995692032 593.307617188 277.34375 c 0
 600.626621539 292.712433689 602.448895246 386.638549843 602.448895246 411.999997246 c 0xdf80
450.568359375 32.265625 m 0
 644.210807676 32.265625 708.670325394 34.9363039919 751.80078125 102 c 1
 794.04181804 75.9999991581 l 1
 757.157742641 -4.42974419876 689.938483434 -12.1962890625 450.680664062 -12.1962890625 c 0
 355.99979653 -12.1962890625 254.366210938 -10.9814453125 208.875 -0.7861328125 c 0
 87.9706060794 26.3111112297 71.0087890625 130.865184414 71.0087890625 396.98828125 c 0
 71.0087890625 686.651740518 98.7413436662 769.009629667 208.875 796.095703125 c 0
 241.800298542 804.19329186 371.499023438 808.329101562 451 808.329101562 c 0
 529.841796875 808.329101562 658.489257812 804.30859375 691.125 796.095703125 c 0
 748.670898438 781.614257812 784.700195312 752.911132812 800 704 c 0
 820.48828125 638.500976562 825.991210938 524.283203125 825.991210938 396.98828125 c 0
 825.991210938 261.925654644 824.415095041 157.895507812 696 157.895507812 c 0xbf80
 659.8359375 157.895507812 623.034417278 173.804757766 607 213 c 1
 580.044875869 184.921745697 536.13268293 148.909179688 421.408203125 148.909179688 c 0xdf80
 235.255562839 148.909179688 223.405273438 179.814266554 223.405273438 397.419921875 c 0
 223.405273438 609.704964606 239.593601155 648.223632812 441.599609375 648.223632812 c 0
 501.085095768 648.223632812 551.753958239 643.012202325 600.996163213 610.558104562 c 1
 601.277349771 621.722768756 601.609375 632.862304688 602 644 c 1
 662 645 l 1
 660.38671875 602.248046875 657.202140484 471.070493913 657.202140484 344.000004192 c 0
 657.202140484 250.827649829 657.55072128 211.973632812 702 211.973632812 c 0xbf80
 772.454099437 211.973632812 772.454100262 283.868897091 772.454101562 397.049804688 c 0
 772.454101562 508.090820312 768.338867188 581.790039062 754.6953125 662.874023438 c 0
 746.249023438 713.081054688 706.6953125 743.155273438 657.604492188 751.930664062 c 0
 622.346679688 758.235351562 511.272460938 763.505859375 451.040039062 763.505859375 c 0
 390.029296875 763.505859375 276.897460938 760.366210938 241.35546875 754.010742188 c 0
 192.266601562 745.235351562 152.712890625 715.161132812 144.264648438 664.954101562 c 0
 130.62109375 583.870117188 124.545898438 508.090820312 124.545898438 397.049804688 c 0
 124.545898438 287.201171875 131.661132812 213.501953125 145.3046875 132.416992188 c 0
 153.752929688 82.2109375 193.306640625 52.1376953125 242.395507812 43.361328125 c 0
 287.33203125 35.3271484375 368.87890625 32.265625 450.568359375 32.265625 c 0
EndSplineSet
Validated: 1
EndChar

StartChar: E
Encoding: 69 69 61
Width: 838
Flags: W
HStem: 0 64<142 776> 400 64<142 746> 736 64<142 771>
VStem: 72 70<64 400 464 736>
LayerCount: 2
Fore
SplineSet
142 736 m 1
 142 464 l 1
 746 464 l 1
 746 400 l 1
 142 400 l 1
 142 64 l 1
 776 64 l 1
 776 0 l 1
 72 0 l 1
 72 800 l 1
 771 800 l 1
 771 736 l 1
 142 736 l 1
EndSplineSet
Validated: 1
EndChar

StartChar: F
Encoding: 70 70 62
Width: 825
Flags: W
HStem: 0 21G<72 142> 400 64<142 730> 736 64<142 771>
VStem: 72 70<0 400 464 736>
LayerCount: 2
Fore
SplineSet
72 0 m 1
 72 800 l 1
 771 800 l 1
 771 736 l 1
 142 736 l 1
 142 464 l 1
 730 464 l 1
 730 400 l 1
 142 400 l 1
 142 0 l 1
 72 0 l 1
EndSplineSet
Validated: 1
EndChar

StartChar: G
Encoding: 71 71 63
Width: 881
Flags: W
HStem: -12.1963 58.5244<213.338 661.423> 400 64<458.991 746.991> 749.443 58.8857<212.707 661.535>
VStem: 61 65.9395<166.339 626.957> 734.138 67.0723<634.956 693.288> 746.991 66<169.665 400>
LayerCount: 2
Fore
SplineSet
812.991210938 400 m 2xf4
 812.991210938 219 810.653320312 130.51171875 796.584960938 85.685546875 c 0
 780.991210938 36 733.505859375 10.5390625 678.116210938 -0.7861328125 c 0
 632.44140625 -10.1240234375 531.991210938 -12.1962890625 437.671875 -12.1962890625 c 0
 342.991210938 -12.1962890625 241.357421875 -10.9814453125 195.866210938 -0.7861328125 c 0
 63.8670326289 28.7976881882 61 153.620807865 61 396.98828125 c 0
 61 662.784312517 73.0444279326 765.889900487 195.866210938 796.095703125 c 0
 228.791992188 804.193359375 358.490234375 808.329101562 437.991210938 808.329101562 c 0
 516.833007812 808.329101562 645.48046875 804.30859375 678.116210938 796.095703125 c 0
 742.820581584 779.812825796 789.916619342 747.678136856 801.209960938 636 c 1
 734.137695312 626 l 1xf8
 728.477350588 665.309878697 720.114647928 723.387052995 636.611328125 738.313476562 c 0
 602.708984375 744.375976562 495.907226562 749.443359375 437.991210938 749.443359375 c 0
 379.327148438 749.443359375 270.546875 746.424804688 236.37109375 740.313476562 c 0
 189.170898438 731.875976562 151.138671875 702.958007812 143.014648438 654.682617188 c 0
 129.896484375 576.716796875 126.939453125 503.852539062 126.939453125 397.08203125 c 0
 126.939453125 291.458007812 130.896484375 220.59375 144.014648438 142.626953125 c 0
 152.138671875 94.3525390625 190.170898438 65.435546875 237.37109375 56.9970703125 c 0
 280.580078125 49.271484375 358.990234375 46.328125 437.538085938 46.328125 c 0
 617.826688864 46.328125 719.235253159 48.0932928549 735.967773438 130.626953125 c 0
 746.991210938 185 746.991210938 259.375976562 746.991210938 400 c 1
 458.991210938 400 l 1
 458.991210938 464 l 1
 812.991210938 464 l 1
 812.991210938 400 l 2xf4
EndSplineSet
Validated: 1
EndChar

StartChar: S
Encoding: 83 83 64
Width: 856
Flags: W
HStem: -12.1963 58.5244<199.872 647.025> 749.443 58.8857<200.717 632.56>
VStem: 52 68.8145<111.644 207.875> 81.8633 66.2305<543.553 701.827> 696.207 67.2754<629.691 691.916> 729.325 63.0361<102.573 299.572>
LayerCount: 2
Fore
SplineSet
424.525390625 749.443359375 m 0xd8
 218.183060004 749.443359375 148.09375 743.253437698 148.09375 622 c 0xd8
 148.09375 576.998158829 148.09375 527.889745568 247.525390625 506 c 4
 314.077148438 491.348632812 385.51953125 479.6171875 457.525390625 466 c 4
 536.7421875 451.018554688 590.969726562 435.909179688 652.525390625 414 c 4
 747.418601944 380.224450208 792.361328125 330.398227833 792.361328125 216 c 0
 792.361328125 177.221679688 787.608398438 135.10546875 775.119140625 95.685546875 c 0
 757.504882812 40.091796875 720.040039062 10.5390625 664.650390625 -0.7861328125 c 0
 618.975585938 -10.1240234375 518.525390625 -12.1962890625 424.206054688 -12.1962890625 c 0
 329.525390625 -12.1962890625 227.891601562 -10.9814453125 182.400390625 -0.7861328125 c 0
 78.7089525612 22.453322026 59.5765325555 107.887559119 52 207.120117188 c 1
 120.814453125 214.541015625 l 1
 123.27734375 189.41796875 126.470703125 166.865234375 130.548828125 142.626953125 c 0
 138.672851562 94.3525390625 176.705078125 65.435546875 223.905273438 56.9970703125 c 0
 267.114257812 49.271484375 345.524414062 46.328125 424.072265625 46.328125 c 0
 624.176707173 46.328125 687.969811756 51.9839807931 714.525390625 116 c 0
 726.803710938 145.598632812 729.325195312 194.858398438 729.325195312 216 c 0xe4
 729.325195312 310.002929688 681.525390625 330 640.525390625 348 c 0
 516.382707125 402.50297535 360.166044512 413.996874047 216.525390625 450 c 0
 170.569335938 461.518554688 131.642578125 484.776367188 109.525390625 509 c 0
 88.525390625 532 81.86328125 572.114257812 81.86328125 617 c 0
 81.86328125 763.489339128 171.840467735 787.842245289 205.400390625 796.095703125 c 0
 238.326171875 804.193359375 322.5234375 808.329101562 424.525390625 808.329101562 c 0
 522.526367188 808.329101562 607.014648438 804.30859375 639.650390625 796.095703125 c 0
 736.052213627 771.83615091 752.34901236 715.012084697 763.482421875 630.556640625 c 1
 696.20703125 622.241210938 l 1
 690.124246544 665.524497155 682.00143267 723.324023976 598.145507812 738.313476562 c 0
 564.243164062 744.375976562 502.526367188 749.443359375 424.525390625 749.443359375 c 0xd8
EndSplineSet
Validated: 1
EndChar

StartChar: T
Encoding: 84 84 65
Width: 902
Flags: W
HStem: 0 21G<413 483> 736 64<48 413 483 848>
VStem: 413 70<0 736>
LayerCount: 2
Fore
SplineSet
483 736 m 1
 483 0 l 1
 413 0 l 1
 413 736 l 1
 48 736 l 1
 48 800 l 1
 848 800 l 1
 848 736 l 1
 483 736 l 1
EndSplineSet
Validated: 1
EndChar

StartChar: R.var
Encoding: 258 -1 66
Width: 824
Flags: W
HStem: 0 21G<69 139 639.543 765> 400 63<314.045 619.173> 736 64<139 613.795>
VStem: 69 70<0 736> 675.999 68.001<511.877 685.62>
LayerCount: 2
Fore
SplineSet
744 605 m 0
 744 408.707761828 621.987988162 400 427 400 c 2
 314.044921875 400 l 1
 765 0 l 1
 662 0 l 1
 269 350 l 2
 242.259765625 373.814453125 233 387.22265625 233 414 c 0
 233 441.213867188 258 463 286 463 c 2
 427 463 l 2
 616.5882387 463 675.999023438 472.432866102 675.999023438 606 c 0
 675.999023438 722.386015539 601.490883812 736 425 736 c 2
 139 736 l 1
 139 0 l 1
 69 0 l 1
 69 800 l 1
 423 799.998046875 l 2
 611.70907371 799.768072879 744 792.040244733 744 605 c 0
EndSplineSet
Validated: 1
EndChar

StartChar: X
Encoding: 88 88 67
Width: 828
Flags: W
HStem: 0 21G<42 144.288 681.712 784> 780 20G<64 166.417 659.583 762>
LayerCount: 2
Fore
SplineSet
64 800 m 1
 151 800 l 1
 413 460.108398438 l 1
 675 800 l 1
 762 800 l 1
 466 416 l 1
 784 0 l 1
 697 0 l 1
 413 371.522460938 l 1
 129 0 l 1
 42 0 l 1
 360 416 l 1
 64 800 l 1
EndSplineSet
Validated: 1
EndChar

StartChar: K
Encoding: 75 75 68
Width: 834
Flags: W
HStem: 0 21G<72 142 658.974 792> 780 20G<72 142 612.762 759>
VStem: 72 70<0 363 446.575 800>
LayerCount: 2
Fore
SplineSet
72 800 m 1
 142 800 l 1
 142 446.575195312 l 1
 641 800 l 1
 759 800 l 1
 269.833007812 453.540039062 l 1
 792 0 l 1
 682 0 l 1
 209.241210938 410.625 l 1
 142 363 l 1
 142 0 l 1
 72 0 l 1
 72 800 l 1
EndSplineSet
Validated: 1
EndChar

StartChar: asciicircum
Encoding: 94 94 69
Width: 480
Flags: W
HStem: 560 240
LayerCount: 2
Fore
SplineSet
201 800 m 1
 279 800 l 1
 409 560 l 1
 346 560 l 1
 240 735.448275862 l 1
 134 560 l 1
 71 560 l 1
 201 800 l 1
EndSplineSet
Validated: 1
EndChar

StartChar: bar
Encoding: 124 124 70
Width: 320
Flags: W
VStem: 127 66<-180 780>
LayerCount: 2
Fore
SplineSet
193 780 m 1
 193 -180 l 1
 127 -180 l 1
 127 780 l 1
 193 780 l 1
EndSplineSet
Validated: 1
EndChar

StartChar: Y
Encoding: 89 89 71
Width: 780
Flags: W
HStem: 0 21G<354 424> 780 20G<40 142.43 635.516 738>
VStem: 354 70<0 393.534>
LayerCount: 2
Fore
SplineSet
40 800 m 1
 127 800 l 1
 388.543945312 460.995117188 l 1
 651 800 l 1
 738 800 l 1
 424 394.776367188 l 1
 424 0 l 1
 354 0 l 1
 354 393.534179688 l 1
 40 800 l 1
EndSplineSet
Validated: 1
EndChar

StartChar: Z
Encoding: 90 90 72
Width: 888
Flags: W
HStem: 0 64<150 832> 736 64<68 720>
LayerCount: 2
Fore
SplineSet
106 0 m 2
 76 0 52 12.3046875 52 42 c 0
 52 68 67 85 85 102.72265625 c 2
 720 736 l 1
 68 736 l 1
 68 800 l 1
 762 800 l 2
 795 800 816 786.6953125 816 756 c 0
 816 730 800.502929688 714.787109375 783 697.27734375 c 2
 150 64 l 1
 832 64 l 1
 832 0 l 1
 106 0 l 2
EndSplineSet
Validated: 1
EndChar

StartChar: o
Encoding: 111 111 73
Width: 732
Flags: W
HStem: -12.1963 58.5244<197.239 529.821> 549.443 58.8857<194.714 531.777>
VStem: 58 63.9395<122.639 473.042> 601.043 64.9395<117.217 484.04>
LayerCount: 2
Fore
SplineSet
362.538085938 46.328125 m 24
 578.901601486 46.328125 601.04296875 79.8723373616 601.04296875 297.08203125 c 0
 601.04296875 451.591914 596.749727641 520.870451218 493.611328125 539.313476562 c 0
 459.708984375 545.375976562 420.907226562 549.443359375 362.991210938 549.443359375 c 0
 198.323973394 549.443359375 168.485889736 525.523649249 142.014648438 470.682617188 c 0
 125.502929688 436.473632812 121.939453125 391.004882812 121.939453125 297.08203125 c 0
 121.939453125 191.458007812 124.076171875 166.280273438 140.991210938 128 c 0
 164.613229922 74.5396412469 196.312138668 46.328125 362.538085938 46.328125 c 24
362.991210938 608.329101562 m 0
 616.778027283 608.329101562 665.982421875 574.129692445 665.982421875 296.98828125 c 0
 665.982421875 170.941914471 659.724361799 27.8314992339 531.116210938 -0.7861328125 c 0
 485.609375 -10.912109375 424.991210938 -12.1962890625 362.671875 -12.1962890625 c 24
 191.917287174 -12.1962890625 125.997126002 -2.84469233101 80.3974609375 93.685546875 c 0
 58.9912109375 139 58 214.609375 58 296.98828125 c 0
 58 414.387495444 58 562.927790638 192.866210938 596.095703125 c 0
 225.791992188 604.193359375 283.490234375 608.329101562 362.991210938 608.329101562 c 0
EndSplineSet
Validated: 1
EndChar

StartChar: p
Encoding: 112 112 74
Width: 733
Flags: W
HStem: -200 21G<70 140> -12.1963 58.5244<203.865 521.702> 549.443 58.8857<212.211 528.158> 580 20G<70 140>
VStem: 70 70<-200 45.4062 104.447 483.76 552.182 600> 603.052 63.9395<128.841 475.122>
LayerCount: 2
Fore
SplineSet
140 552.181640625 m 1xdc
 171.204412675 581.983817859 217.952474112 608.329101562 370 608.329101562 c 0xec
 527.232032887 608.329101562 598.364365253 596.245483141 639 506 c 0
 666.416992188 445.110351562 666.991210938 391.048828125 666.991210938 296.98828125 c 0
 666.991210938 214.609375 659.826171875 140.600585938 637.59375 95.685546875 c 0
 595.246662792 10.1338035864 523.114630445 -12.1962890625 370.319335938 -12.1962890625 c 0
 233.73287243 -12.1962890625 181.964269577 -0.104103042041 140 45.40625 c 1
 140 -200 l 1
 70 -200 l 1
 70 600 l 1
 140 600 l 1
 140 552.181640625 l 1xdc
370 549.443359375 m 0
 143.485709758 549.443359375 140.664850495 483.973848228 140 333.151367188 c 2
 140 251.577148438 l 2
 140.275390625 175.307617188 143.543945312 133.018554688 155 113 c 0
 191.407963558 49.3812330626 270.027166059 46.328125 370.453125 46.328125 c 0
 525.562540165 46.328125 561.126832771 82.2870425874 580 125 c 0
 596.915039062 163.280273438 603.051757812 191.458007812 603.051757812 297.08203125 c 0
 603.051757812 447.557183948 590.703385726 521.780125846 492.620117188 539.313476562 c 0
 458.444335938 545.424804688 428.6640625 549.443359375 370 549.443359375 c 0
EndSplineSet
Validated: 1
EndChar

StartChar: q
Encoding: 113 113 75
Width: 731
Flags: W
HStem: -200 21G<584.991 654.991> -12.1963 58.5244<197.581 519.469> 549.443 58.8857<194.128 512.809> 580 20G<584.991 654.991>
VStem: 58 63.9395<122.779 473.009> 584.991 70<-200 45.4062 101.146 483.777 552.182 600>
LayerCount: 2
Fore
SplineSet
584.991210938 45.40625 m 1xdc
 543.024052957 -0.107235520434 491.248547831 -12.1962890625 354.671875 -12.1962890625 c 0
 192.829033346 -12.1962890625 125.814290688 -2.45764701815 80.3974609375 93.685546875 c 0
 58.9912109375 139 58 214.609375 58 296.98828125 c 0
 58 414.387495444 58 562.927790638 192.866210938 596.095703125 c 0
 225.791992188 604.193359375 275.490234375 608.329101562 354.991210938 608.329101562 c 0xec
 507.171041883 608.329101562 553.846867858 581.926447616 584.991210938 552.181640625 c 1
 584.991210938 600 l 1
 654.991210938 600 l 1
 654.991210938 -200 l 1
 584.991210938 -200 l 1
 584.991210938 45.40625 l 1xdc
584.991210938 333.151367188 m 2
 584.326177118 484.015435322 581.471315846 549.443359375 354.991210938 549.443359375 c 0
 198.129495462 549.443359375 167.796639562 524.095715045 142.014648438 470.682617188 c 0
 125.502929688 436.473632812 121.939453125 391.004882812 121.939453125 297.08203125 c 0
 121.939453125 191.458007812 124.076171875 166.280273438 140.991210938 128 c 0
 163.198949935 77.7403801639 193.479670374 46.328125 354.538085938 46.328125 c 0
 470.346964027 46.328125 542.901860471 59.2946061643 571.991210938 113 c 0
 582.9765625 133.280273438 584.715820312 175.307617188 584.991210938 251.577148438 c 2
 584.991210938 333.151367188 l 2
EndSplineSet
Validated: 1
EndChar

StartChar: c
Encoding: 99 99 76
Width: 692
Flags: W
HStem: -12.1963 58.5244<197.581 516.312> 549.443 58.8857<194.441 509.289>
VStem: 58 63.9395<122.779 473.027> 565.599 62.2979<471.327 502.066> 573.08 61.2803<98.1934 127.662>
LayerCount: 2
Fore
SplineSet
354.538085938 46.328125 m 28xf0
 510.752235274 46.328125 551.749197292 68.8521280522 573.080078125 143.041015625 c 5
 634.360351562 125.678710938 l 5xe8
 598.98327097 -0.296194987674 528.742449673 -12.1962890625 354.671875 -12.1962890625 c 28
 192.829033346 -12.1962890625 125.814290688 -2.45764701815 80.3974609375 93.685546875 c 4
 58.9912109375 139 58 214.609375 58 296.98828125 c 4
 58 414.387495444 58 562.927790638 192.866210938 596.095703125 c 4
 225.791992188 604.193359375 279.490234375 608.329101562 358.991210938 608.329101562 c 4
 457.823631582 608.329101562 615.08979761 608.329101562 627.896484375 472.696289062 c 5
 565.598632812 460.5078125 l 5
 557.128554242 499.696174864 538.270873208 549.443359375 358.991210938 549.443359375 c 4
 198.311971267 549.443359375 168.169990948 524.869195029 142.014648438 470.682617188 c 4
 125.502929688 436.473632812 121.939453125 391.004882812 121.939453125 297.08203125 c 4
 121.939453125 191.458007812 124.076171875 166.280273438 140.991210938 128 c 4
 163.198949935 77.7403801639 193.479670374 46.328125 354.538085938 46.328125 c 28xf0
EndSplineSet
Validated: 1
EndChar

StartChar: d
Encoding: 100 100 77
Width: 732
Flags: W
HStem: -12.1963 58.5244<197.581 519.469> 0 21G<584.991 654.991> 549.443 58.8857<194.128 512.809> 791 20G<584.991 654.991>
VStem: 58 63.9395<122.779 473.009> 584.991 70<0 45.4062 101.146 483.777 552.182 811>
LayerCount: 2
Fore
SplineSet
584.991210938 45.40625 m 1x7c
 543.024052957 -0.107235520434 491.248547831 -12.1962890625 354.671875 -12.1962890625 c 0xbc
 192.829033346 -12.1962890625 125.814290688 -2.45764701815 80.3974609375 93.685546875 c 0
 58.9912109375 139 58 214.609375 58 296.98828125 c 0
 58 414.387495444 58 562.927790638 192.866210938 596.095703125 c 0
 225.791992188 604.193359375 275.490234375 608.329101562 354.991210938 608.329101562 c 0
 507.171041883 608.329101562 553.846867858 581.926447616 584.991210938 552.181640625 c 1
 584.991210938 811 l 1
 654.991210938 811 l 1
 654.991210938 0 l 1
 584.991210938 0 l 1
 584.991210938 45.40625 l 1x7c
584.991210938 333.151367188 m 2
 584.326177118 484.015435322 581.471315846 549.443359375 354.991210938 549.443359375 c 0
 198.129495462 549.443359375 167.796639562 524.095715045 142.014648438 470.682617188 c 0
 125.502929688 436.473632812 121.939453125 391.004882812 121.939453125 297.08203125 c 0
 121.939453125 191.458007812 124.076171875 166.280273438 140.991210938 128 c 0
 163.198949935 77.7403801639 193.479670374 46.328125 354.538085938 46.328125 c 0
 470.346964027 46.328125 542.901860471 59.2946061643 571.991210938 113 c 0
 582.9765625 133.280273438 584.715820312 175.307617188 584.991210938 251.577148438 c 2
 584.991210938 333.151367188 l 2
EndSplineSet
Validated: 1
EndChar

StartChar: e
Encoding: 101 101 78
Width: 698
Flags: W
HStem: -12.1963 58.5244<197.581 515.208> 286 64<122.493 567.488> 549.443 58.8857<194.049 500.907>
VStem: 58 63.9482<123.344 286 350 472.853> 567.488 65.4941<92.2254 120.279 350 477.678>
LayerCount: 2
Fore
SplineSet
544.991210938 480 m 0
 519.669748428 532.132422814 481.542637516 549.443359375 353.991210938 549.443359375 c 0
 198.081956337 549.443359375 167.700256813 523.896036859 142.014648438 470.682617188 c 0
 128.95703125 443.62890625 123.997070312 409.533203125 122.493164062 350 c 1
 565.991210938 350 l 1
 566.991210938 354 567.48828125 361.392578125 567.48828125 365 c 0
 567.48828125 415.8359375 559.078125 450.998046875 544.991210938 480 c 0
632.107421875 118 m 1
 595.954778934 -0.0553370301005 527.274811567 -12.1962890625 354.671875 -12.1962890625 c 0
 192.829033346 -12.1962890625 125.814290688 -2.45764701815 80.3974609375 93.685546875 c 0
 58.9912109375 139 58 214.609375 58 296.98828125 c 0
 58 414.387495444 58 562.927790638 192.866210938 596.095703125 c 0
 225.791992188 604.193359375 274.490234375 608.329101562 353.991210938 608.329101562 c 0
 549.311303259 608.329101562 632.982421875 581.709030692 632.982421875 322.98828125 c 0
 632.982421875 306.975585938 631.991210938 294 630.024414062 286 c 1
 121.948242188 286 l 1
 122.112304688 189.630859375 124.684570312 164.904296875 140.991210938 128 c 0
 163.198949935 77.7403801639 193.479670374 46.328125 354.538085938 46.328125 c 0
 511.790497058 46.328125 549.787398304 69.6911859589 571.552734375 138 c 1
 632.107421875 118 l 1
EndSplineSet
Validated: 1
EndChar

StartChar: z
Encoding: 122 122 79
Width: 731
Flags: W
HStem: 0 64<151 673> 536 64<69 561>
LayerCount: 2
Fore
SplineSet
107 0 m 2
 77 0 53 12.3046875 53 42 c 0
 53 68 67 85 86 102.72265625 c 2
 561 536 l 1
 69 536 l 1
 69 600 l 1
 603 600 l 2
 636 600 657 586.6953125 657 556 c 0
 657 530 641.502929688 514.787109375 624 497.27734375 c 1
 151 64 l 1
 673 64 l 1
 673 0 l 1
 107 0 l 2
EndSplineSet
Validated: 1
EndChar

StartChar: g
Encoding: 103 103 80
Width: 724
Flags: W
HStem: -220 62.252<170.249 536.04> 100 60<171.434 545.86> 221.071 62.252<203.25 521.447> 549.443 58.8857<202.877 525.512> 580.003 61.2954<650.439 731.997>
VStem: 20 68.8896<-93.6498 53.0065> 60 65.6611<347.367 488.866> 90.2402 69.7598<175.916 242.05> 596.492 63.5078<346.455 491.707> 630 70<-87.8354 39.4254>
LayerCount: 2
Fore
SplineSet
20 -20.90625 m 0xed40
 20 28.4951171875 26.083984375 95.052734375 110.196289062 137.815429688 c 1
 92.51953125 153.982421875 90.240234375 174.956054688 90.240234375 200 c 0xed40
 90.240234375 232.250976562 103.365234375 257.750976562 116.1328125 274.928710938 c 1
 64.177734375 317.279296875 60.009765625 375.553710938 60 420 c 2
 60 420.165039062 l 2
 60.0146484375 478.830078125 68.130859375 562.959960938 202.8671875 596.095703125 c 0
 235.791992188 604.194335938 285.491210938 608.329101562 364.9921875 608.329101562 c 2
 365.0078125 608.329101562 l 2xf2
 441.903320312 608.329101562 489.970703125 604.194335938 521.818359375 596.095703125 c 0
 542.627929688 590.8046875 560.315429688 584.212890625 575.345703125 576.631835938 c 1
 615.616914472 633.207599219 679.260196165 641.298314208 712.371532817 641.298314208 c 0
 725.635491686 641.298314208 734 640 734 640 c 1
 730 580 l 1
 730 580 729.828864329 580.002883922 729.499191432 580.002883922 c 0
 723.261285146 580.002883922 660.263369721 578.970372864 625.8515625 537.83203125 c 1
 657.106445312 500.59765625 659.991210938 455.708007812 660 420.165039062 c 2
 660 420 l 2xea80
 659.986328125 357.981445312 652.141601562 269.03515625 521.818359375 234.00390625 c 0
 489.970703125 225.443359375 441.903320312 221.071289062 365.0078125 221.071289062 c 2
 364.9921875 221.071289062 l 2
 285.491210938 221.071289062 235.791992188 225.443359375 202.8671875 234.00390625 c 0
 192.782226562 236.625 183.407226562 239.548828125 174.69140625 242.741210938 c 1
 166.239257812 230.516601562 160 216.08203125 160 200 c 0
 160 169.420898438 208.904296875 166.049804688 340 160 c 0
 402.426757812 157.119140625 492.506835938 156.02734375 531.37109375 148.249023438 c 0
 690.551757812 116.388671875 700 35.453125 700 -20.90625 c 0
 700 -82.931640625 690.551757812 -172.004882812 531.37109375 -207.0703125 c 0
 492.506835938 -215.629882812 433.846679688 -220 340.009765625 -220 c 2
 339.991210938 -220 l 2
 256.580078125 -220 204.438476562 -215.629882812 169.892578125 -207.0703125 c 0
 28.3994140625 -172.004882812 20 -82.931640625 20 -20.90625 c 0xed40
208.28125 105.9765625 m 1
 130.572265625 90.9111328125 88.8896484375 52.0068359375 88.8896484375 -20.861328125 c 2
 88.8896484375 -20.951171875 l 2
 88.8896484375 -142.608398438 210.37890625 -157.748046875 339.991210938 -157.748046875 c 2
 340.009765625 -157.748046875 l 2
 489.6953125 -157.748046875 630 -142.608398438 630 -20.951171875 c 2
 630 -20.8662109375 l 2
 630 92.6572265625 475.633789062 100 340 100 c 0
 284.844726562 100 241.825195312 102.041992188 208.28125 105.9765625 c 1
125.661132812 420 m 2xf280
 125.736328125 298.453125 241.49609375 283.323242188 364.991210938 283.323242188 c 2
 365.0078125 283.323242188 l 2
 484.455078125 283.323242188 596.418945312 298.453125 596.4921875 420 c 2
 596.4921875 420.165039062 l 2
 596.413085938 535.131835938 484.452148438 549.443359375 365.0078125 549.443359375 c 2
 364.991210938 549.443359375 l 2
 241.499023438 549.443359375 125.7421875 535.131835938 125.661132812 420.165039062 c 2
 125.661132812 420 l 2xf280
EndSplineSet
Validated: 1
EndChar

StartChar: a
Encoding: 97 97 81
Width: 720
Flags: W
HStem: -12.1963 58.5244<189.357 514.612> 0 21G<582.991 647.991> 311 64<172.496 580.914> 549.443 58.8857<193.504 515.037>
VStem: 56 63.9395<99.375 265.513> 74.5166 62.1992<476.199 500.293> 582.991 65<0 47.3037 117.573 298.936 360.101 483.442>
LayerCount: 2
Fore
SplineSet
582.991210938 47.3037109375 m 5x76
 551.548809787 6.47589622979 523.413529267 -12.1962890625 352.671875 -12.1962890625 c 4
 234.651603848 -12.1962890625 126.16231675 -8.0320536507 81.9912109375 74 c 0
 58.2314453125 118.125976562 56 145 56 194.98828125 c 0xba
 56 253.307387175 74.0860554059 334.965729858 168.991210938 362 c 0
 208.482421875 373.249023438 275.872070312 375 317.991210938 375 c 2
 452.991210938 375 l 2
 501.51953125 375 547.954101562 370.39453125 582.543945312 360.100585938 c 1
 579.684438546 480.403793256 557.190356635 524.725659635 475.611328125 539.313476562 c 0
 441.708984375 545.375976562 410.907226562 549.443359375 352.991210938 549.443359375 c 0
 235.54988945 549.443359375 160.091366816 537.767311324 136.715820312 462 c 1
 74.5166015625 478 l 1
 107.222739492 604.397542328 216.621711477 608.329101562 352.991210938 608.329101562 c 0
 472.929704162 608.329101562 585.600774802 604.788756215 623.991210938 504 c 0
 647.178710938 443.125 647.991210938 365.0078125 647.991210938 297 c 2
 647.991210938 0 l 1
 582.991210938 0 l 1
 582.991210938 47.3037109375 l 5x76
342.991210938 311 m 2
 224.824815055 311 119.939453125 311 119.939453125 194.08203125 c 0
 119.939453125 113.063025061 134.884043954 74.4278750287 232.37109375 56.9970703125 c 0
 275.580078125 49.271484375 304.986328125 46.328125 352.538085938 46.328125 c 0
 496.972804827 46.328125 537.434778159 66.8207913079 559.991210938 114 c 0
 578.245117188 152.1796875 582.991210938 187.545898438 582.991210938 292.579101562 c 1
 548.768554688 305.120117188 493.70703125 311 443.991210938 311 c 2
 342.991210938 311 l 2
EndSplineSet
Validated: 1
EndChar

StartChar: j
Encoding: 106 106 82
Width: 350
VWidth: 800
Flags: W
HStem: -212 66<40.7097 165.51> 580 20G<201 271> 703 97<189.812 281.188>
VStem: 187 97<705.812 797.188> 201 70<-109.865 600>
LayerCount: 2
Fore
SplineSet
223 800 m 2xf0
 248 800 l 2
 268 800 284 784 284 764 c 2
 284 739 l 2
 284 719 268 703 248 703 c 2
 223 703 l 2
 203 703 187 719 187 739 c 2
 187 764 l 2
 187 784 203 800 223 800 c 2xf0
41 -142 m 1
 50 -143 70 -146 76 -146 c 0
 157.313429206 -146 181.785634503 -121.4288551 194 -78 c 0
 201 -55 201 37 201 99 c 10
 201 600 l 1
 271 600 l 1
 271 83 l 2xe8
 271 33 271 -84 260 -117 c 0
 236.088148362 -191.9238018 188.469638614 -212 81 -212 c 16
 73 -212 43 -209 35 -208 c 1
 41 -142 l 1
EndSplineSet
Validated: 1
EndChar

StartChar: i
Encoding: 105 105 83
Width: 224
VWidth: 800
Flags: W
HStem: 0 21G<74 144> 580 20G<74 144> 703 97<62.9688 155.031>
VStem: 60 98<706.162 796.838> 74 70<0 600>
LayerCount: 2
Fore
SplineSet
74 600 m 1xe8
 144 600 l 1
 144 0 l 1
 74 0 l 5
 74 600 l 1xe8
97 800 m 2
 121 800 l 2
 141 800 158 784 158 764 c 2
 158 739 l 2
 158 719 141 703 121 703 c 2
 97 703 l 2
 77 703 60 719 60 739 c 2
 60 764 l 2xf0
 60 784 77 800 97 800 c 2
EndSplineSet
Validated: 1
EndChar

StartChar: l
Encoding: 108 108 84
Width: 219
Flags: W
HStem: 0 21G<72 142> 791 20G<72 142>
VStem: 72 70<0 811>
LayerCount: 2
Fore
SplineSet
72 811 m 1
 142 811 l 1
 142 0 l 1
 72 0 l 1
 72 811 l 1
EndSplineSet
Validated: 1
EndChar

StartChar: b
Encoding: 98 98 85
Width: 735
Flags: W
HStem: -12.1963 58.5244<205.865 536.305> 0 21G<72 142> 549.443 58.8857<214.211 530.158> 791 20G<72 142>
VStem: 72 70<0 45.4062 104.447 483.76 552.182 811> 605.052 63.9395<114.629 475.122>
LayerCount: 2
Fore
SplineSet
142 552.181640625 m 1x7c
 173.204412675 581.983817859 219.952474112 608.329101562 372 608.329101562 c 0
 529.232032887 608.329101562 600.364365253 596.245483141 641 506 c 0
 668.416992188 445.110351562 668.991210938 391.048828125 668.991210938 296.98828125 c 0
 668.991210938 214.609375 668 139 646.59375 93.685546875 c 0
 601.187466568 -2.4353214487 534.217521325 -12.1962890625 372.319335938 -12.1962890625 c 0xbc
 235.73287243 -12.1962890625 183.964269577 -0.104103042041 142 45.40625 c 1
 142 0 l 1
 72 0 l 1
 72 811 l 1
 142 811 l 1
 142 552.181640625 l 1x7c
372 549.443359375 m 0
 145.485709758 549.443359375 142.664850495 483.973848228 142 333.151367188 c 2
 142 251.577148438 l 2
 142.275390625 175.307617188 145.543945312 133.018554688 157 113 c 0
 193.407963558 49.3812330626 272.027166059 46.328125 372.453125 46.328125 c 0
 523.705678513 46.328125 563.504335601 68.8256016226 587 122 c 0
 603.915039062 160.280273438 605.051757812 191.458007812 605.051757812 297.08203125 c 0
 605.051757812 447.557183948 592.703385726 521.780125846 494.620117188 539.313476562 c 0
 460.444335938 545.424804688 430.6640625 549.443359375 372 549.443359375 c 0
EndSplineSet
Validated: 1
EndChar

StartChar: f
Encoding: 102 102 86
Width: 463
VWidth: 800
Flags: W
HStem: 0 21G<174.521 244.521> 536 64<47 174.53 245.468 383> 751.672 60.5244<281.883 407.083>
VStem: 174.521 70<0 536 600 713.236>
LayerCount: 2
Fore
SplineSet
405 746.397460938 m 1
 394.930664062 748.59765625 366.868164062 751.671875 358.974609375 751.671875 c 0
 249.34983129 751.671875 247.554074316 681.51170798 245.467773438 600 c 1
 383 600 l 1
 383 536 l 1
 244.521484375 536 l 25
 244.521484375 0 l 1
 174.521484375 0 l 1
 174.530273438 536.01171875 l 25
 47 536 l 1
 47 600 l 1
 175.407226562 600 l 1
 176.598632812 647.546875 179.393554688 697.392578125 185.927734375 717.314453125 c 0
 212.841415849 799.360768107 270.961841052 812.196289062 357.840820312 812.196289062 c 0
 379.008789062 812.196289062 402.192382812 808.119140625 416 803.91796875 c 1
 405 746.397460938 l 1
EndSplineSet
Validated: 524289
EndChar

StartChar: r
Encoding: 114 114 87
Width: 567
Flags: W
HStem: 0 21G<69 139> 553.672 58.5244<182.172 419.188> 580 20G<69 139>
VStem: 69 70<0 501.693 557.763 600> 448.575 62.8379<475.997 524.127>
LayerCount: 2
Fore
SplineSet
139 557.762695312 m 1xb8
 162.027629846 595.643926128 178.066394937 612.196289062 299.873046875 612.196289062 c 0
 458.597930262 612.196289062 483.366248196 587.185115732 505.776367188 510.314453125 c 0
 507.9765625 502.768554688 510.82421875 485.666015625 511.413085938 477 c 1
 448.575195312 468 l 1
 443 513 422.830078125 536.358398438 401.897460938 544.002929688 c 0
 381.157226562 551.728515625 329.643554688 553.671875 299.9375 553.671875 c 0xd8
 160.55538988 553.671875 139 536.795225174 139 301 c 2
 139 0 l 1
 69 0 l 1
 69 600 l 1
 139 600 l 1
 139 557.762695312 l 1xb8
EndSplineSet
Validated: 1
EndChar

StartChar: t
Encoding: 116 116 88
Width: 457
Flags: W
HStem: -6 67<266.098 392.627> 536 64<48 177.524 247.521 393>
VStem: 177.53 69.9912<79.695 536 600 747>
LayerCount: 2
Fore
SplineSet
397 69 m 1
 393 3 l 1
 367 -3 330 -6 307 -6 c 0
 273.307171636 -6 200.54361464 3.09830091604 184.927734375 79.685546875 c 0
 178.520507812 111.110351562 177.531071066 179.999999997 177.530273438 229.98828125 c 2
 177.525390625 536 l 1
 48 536 l 1
 48 600 l 1
 177.524414062 600 l 1
 177.521484375 747 l 1
 247.521484375 747 l 1
 247.521484375 600 l 1
 393 600 l 1
 393 536 l 1
 247.521484375 536 l 1
 247.521484375 246 l 2
 247.521484375 184 248.1640625 129.24609375 252.544921875 105.626953125 c 0
 256.653430287 83.4772387542 281.909271512 61 331 61 c 0
 346.333007812 61 372 64 397 69 c 1
EndSplineSet
Validated: 1
EndChar

StartChar: v
Encoding: 118 118 89
Width: 671
Flags: W
HStem: 580 20G<42 126.394 536.575 621>
LayerCount: 2
Fore
SplineSet
42 600 m 1
 118 600 l 1
 331.11328125 92.25 l 1
 545 600 l 1
 621 600 l 1
 378.712890625 25 l 2
 367.4375 -1.759765625 352.19921875 -12.3828125 329.918945312 -12.3828125 c 0
 307.678710938 -12.3828125 294.575195312 -1.7568359375 283.344726562 25 c 2
 42 600 l 1
EndSplineSet
Validated: 1
EndChar

StartChar: w
Encoding: 119 119 90
Width: 931
Flags: W
HStem: 580 20G<45 126.145 797.446 878>
LayerCount: 2
Fore
SplineSet
519.592773438 488 m 1
 686.38671875 92.25 l 1
 802 600 l 1
 878 600 l 1
 734.155273438 25 l 2
 727.19921875 -2.806640625 709.821289062 -12.3828125 687.581054688 -12.3828125 c 0
 665.30078125 -12.3828125 650 -2 638.787109375 25 c 2
 459 446.5546875 l 1
 299.212890625 25 l 2
 289 -2 272.69921875 -12.3828125 250.418945312 -12.3828125 c 0
 228.178710938 -12.3828125 211.5 -2.7099609375 203.844726562 25 c 2
 45 600 l 1
 121 600 l 1
 251.61328125 92.25 l 1
 398.407226562 488 l 1
 416.663085938 533.53125 435.34375 545.608398438 459 545.608398438 c 0
 482.65625 545.608398438 502 533 519.592773438 488 c 1
EndSplineSet
Validated: 1
EndChar

StartChar: x
Encoding: 120 120 91
Width: 647
Flags: W
HStem: 0 21G<43 143.936 500.064 601> 580 20G<61 161.931 482.069 583>
LayerCount: 2
Fore
SplineSet
61 600 m 1
 147 600 l 1
 322 365.581054688 l 1
 497 600 l 1
 583 600 l 1
 368 312 l 1
 601 0 l 1
 515 0 l 1
 322 258.4375 l 1
 129 0 l 1
 43 0 l 1
 276 312 l 1
 61 600 l 1
EndSplineSet
Validated: 1
EndChar

StartChar: k
Encoding: 107 107 92
Width: 706
Flags: W
HStem: 0 21G<72 142 530.892 664> 580 20G<473.024 618> 791 20G<72 142>
VStem: 72 70<0 244 334.575 811>
LayerCount: 2
Fore
SplineSet
72 811 m 1
 142 811 l 1
 142 334.575195312 l 1
 500 600 l 1
 618 600 l 1
 269.833007812 341.540039062 l 1
 664 0 l 1
 554 0 l 1
 212 296 l 1
 142 244 l 1
 142 0 l 1
 72 0 l 1
 72 811 l 1
EndSplineSet
Validated: 1
EndChar

StartChar: s
Encoding: 115 115 93
Width: 716
Flags: W
HStem: -10.7871 58.5234<183.981 548.713> 550.033 58.8867<188.272 523.306>
VStem: 52 68.8145<113.463 174.174> 76.8633 66.2305<399.783 511.283> 570.156 58.9961<451.132 504.955> 589.994 63.0371<84.0241 227.639>
LayerCount: 2
Fore
SplineSet
361.39453125 550.033203125 m 0xd8
 235.829384343 550.033203125 143.09375 548.812464031 143.09375 446.534179688 c 0xd8
 143.09375 394.819161091 188.227843351 386.325837343 223.64453125 379.661132812 c 0
 274.55859375 370.080078125 332.140625 361.405273438 386.14453125 352.499023438 c 0
 602.905586943 316.752225846 653.03125 275.593270862 653.03125 160.98046875 c 0
 653.03125 135.618164062 650.908203125 102.833984375 635.7890625 74.09375 c 0
 597.696491399 1.68236364841 552.321215573 -10.787109375 361.154296875 -10.787109375 c 0
 189.664822864 -10.787109375 60.8344922923 -9.6008616088 52 174.173828125 c 1
 120.814453125 179.026367188 l 1
 123.708387183 146.520803458 138.400536673 75.6931979487 210.9296875 58.40625 c 0
 243.336914062 50.6826171875 302.14453125 47.736328125 361.0546875 47.736328125 c 0
 541.066230682 47.736328125 589.994140625 58.2113744441 589.994140625 160.98046875 c 0xe4
 589.994140625 225.049804688 554.14453125 245.852539062 523.39453125 257.626953125 c 0
 398.123306377 305.592085569 179.346520437 305.225211261 107.525390625 361.624023438 c 0
 87.2080078125 377.578125 76.86328125 405.994140625 76.86328125 442.264648438 c 0
 76.86328125 465.182617188 83.2529296875 506.365234375 94.525390625 525.58984375 c 0
 138.197019042 600.069820941 212.316923177 608.919921875 361.39453125 608.919921875 c 0
 434.89453125 608.919921875 502.26171875 601.8984375 526.73828125 593.685546875 c 4
 595.530189942 570.605484831 626.049287728 528.436109855 629.15234375 451.131835938 c 5
 570.15625 445.692382812 l 5
 565.998854917 471.472046451 557.463205901 524.400901228 496.609375 538.904296875 c 4
 471.18359375 544.966796875 419.896484375 550.033203125 361.39453125 550.033203125 c 0xd8
EndSplineSet
Validated: 1
EndChar

StartChar: u
Encoding: 117 117 94
Width: 703
Flags: W
HStem: -8.3291 58.8857<195.4 483.719> 0 21G<564 628> 580 20G<64 131 564 628>
VStem: 64.0088 66.9912<117.079 600> 564 64<0 68.6836 140.418 600>
LayerCount: 2
Fore
SplineSet
564 68.68359375 m 5x78
 519.218203486 -8.3291015625 435.984163449 -8.3291015625 329 -8.3291015625 c 0
 221.352977537 -8.3291015625 130.640568255 -4.93837670401 87 95 c 0
 64.51171875 146.499023438 64.0087890625 202 64.0087890625 303.01171875 c 2
 64 600 l 1
 131 600 l 1
 131 303 l 2
 131 170.523357595 131 83.8559078217 226.379882812 59.6865234375 c 0
 259.764648438 51.2265625 281.083984375 50.556640625 329 50.556640625 c 0xb8
 500.207846845 50.556640625 564 68.2257117467 564 303 c 2
 564 600 l 1
 628 600 l 1
 628 0 l 1
 564 0 l 1
 564 68.68359375 l 5x78
EndSplineSet
Validated: 1
EndChar

StartChar: n
Encoding: 110 110 95
Width: 734
Flags: W
HStem: 0 21G<69 133 596 663> 549.443 58.8857<209.354 528.226> 580 20G<69 133>
VStem: 69 64<0 482.075 539.316 600> 596 67<0 482.921>
LayerCount: 2
Fore
SplineSet
133 539.31640625 m 1xb8
 177.41430082 608.329101562 285.252052524 608.329101562 376 608.329101562 c 0
 515.925883743 608.329101562 599.5298839 597.677934081 640 505 c 0
 662.48828125 453.500976562 662.991210938 398 662.991210938 296.98828125 c 2
 663 0 l 1
 596 0 l 1
 596 297 l 2
 596 436.744617746 595.83285049 516.935666172 494.620117188 540.313476562 c 0
 461.063476562 548.064453125 433.916015625 549.443359375 376 549.443359375 c 0xd8
 292.311830358 549.443359375 182.534828963 549.443359375 147.0234375 467.682617188 c 0
 135 440 133 391.004882812 133 297 c 2
 133 0 l 1
 69 0 l 1
 69 600 l 1
 133 600 l 1
 133 539.31640625 l 1xb8
EndSplineSet
Validated: 1
EndChar

StartChar: m
Encoding: 109 109 96
Width: 1019
Flags: W
HStem: 0 21G<69 133 476 541 883 948> 549.443 58.8857<202.391 413.364 608.853 820.693> 580 20G<69 133>
VStem: 69 64<0 474.323 539.352 600> 476 65<0 476.143> 883 65<0 482.448>
LayerCount: 2
Fore
SplineSet
512.350585938 517.131835938 m 1xdc
 563.636866585 608.329101562 648.873061877 608.329101562 713 608.329101562 c 0
 854.902726441 608.329101562 897.009637775 569.098875791 925 505 c 0
 947.48828125 453.500976562 947.991210938 398 947.991210938 296.98828125 c 2
 948 0 l 1
 883 0 l 1
 883 297 l 2
 883 390 882.504882812 439.84375 863 480 c 0
 837.36020112 532.787821223 795.129062383 549.443359375 713 549.443359375 c 0
 605.511457302 549.443359375 578.754302372 509.489662776 560.0234375 470.682617188 c 0
 540.991210938 431.250976562 540.991210938 389.678710938 540.991210938 296.98828125 c 2
 541 0 l 1
 519.333333333 -0 497.666666667 0 476 0 c 1
 476 297 l 2
 476 390 475.504882812 439.84375 456 480 c 0
 430.36020112 532.787821223 388.129062383 549.443359375 306 549.443359375 c 0xdc
 198.511457302 549.443359375 171.754302372 509.489662776 153.0234375 470.682617188 c 0
 136.51171875 436.473632812 133 391.004882812 133 297 c 2
 133 0 l 1
 69 0 l 1
 69 600 l 1
 133 600 l 1xbc
 133 539.3515625 l 1
 170.095474465 592.840767064 196.001242446 608.329101562 306 608.329101562 c 0
 440.395828613 608.329101562 484.525164648 573.016159347 512.350585938 517.131835938 c 1xdc
EndSplineSet
Validated: 1
EndChar

StartChar: h
Encoding: 104 104 97
Width: 707
Flags: W
HStem: 0 21G<72 136 569 636> 549.443 58.8857<211.72 503.889> 791 20G<72 136>
VStem: 72 64<0 481.955 539.316 811> 569 67<0 484.851>
LayerCount: 2
Fore
SplineSet
635.991210938 296.98828125 m 2
 636 0 l 1
 569 0 l 1
 569 297 l 2
 569 492.121715578 561.802605416 549.443359375 364 549.443359375 c 0
 295.522208472 549.443359375 185.220160491 548.718872758 150.0234375 467.682617188 c 0
 138 440 136 391.004882812 136 297 c 2
 136 0 l 1
 72 0 l 1
 72 811 l 1
 136 811 l 1
 136 539.31640625 l 1
 154.083984375 567.416015625 190.043945312 585.868164062 224.875 596.095703125 c 0
 259.245117188 606.1875 284.499023438 608.329101562 364 608.329101562 c 0
 470.903804948 608.329101562 569.82251645 603.877897071 613 505 c 0
 635.48828125 453.500976562 635.991210938 398 635.991210938 296.98828125 c 2
EndSplineSet
Validated: 1
EndChar

StartChar: y
Encoding: 121 121 98
Width: 684
Flags: W
HStem: -200 64<135.5 268.217> 580 20G<58 142.972 540.825 624.5>
LayerCount: 2
Fore
SplineSet
624.5 600 m 1
 343.5 -133 l 2
 326.615234375 -177.043945312 291.5 -200 245.5 -200 c 2
 135.5 -200 l 5
 135.5 -136 l 5
 216.5 -136 l 2
 251.5 -136 270.752929688 -121.708984375 283.5 -89 c 2
 322.51171875 11.10546875 l 1
 58 600 l 1
 134 600 l 1
 357.3984375 102.016601562 l 1
 548.5 600 l 1
 624.5 600 l 1
EndSplineSet
Validated: 1
EndChar

StartChar: dollar
Encoding: 36 36 99
Width: 880
Flags: W
HStem: -12.1416 58.6328<231.729 411.345 475.345 666.786> 749.352 58.8418<231.325 411.345 475.345 638.278>
VStem: 89.8193 68.8145<114.94 207.875> 111.683 66.2305<543.553 701.634> 411.345 64<-98 -12.1416 46.4912 396.911 477.17 749.12 808.193 904> 702.026 67.2754<629.691 693.584> 727.145 63.0361<103.053 297.618>
LayerCount: 2
Fore
SplineSet
475.344726562 463 m 1xdc
 715.629581837 408.457666116 790.180664062 370.216645987 790.180664062 216 c 0
 790.180664062 177.221679688 785.427734375 135.10546875 772.938476562 95.685546875 c 0
 741.156809441 -4.62308238374 658.812412243 -10.9414840815 475.344726562 -12.09765625 c 1
 475.344726562 -98 l 1
 411.344726562 -98 l 1
 411.344726562 -12.1416015625 l 1
 181.807020213 -11.2393393545 106.022207662 -5.09469183738 89.8193359375 207.120117188 c 1
 158.633789062 214.541015625 l 1xea
 161.096679688 189.41796875 164.290039062 166.865234375 168.368164062 142.626953125 c 0
 176.4921875 94.3525390625 214.524414062 65.435546875 261.724609375 56.9970703125 c 0
 299.134765625 50.30859375 347.940429688 47.2041015625 411.344726562 46.4912109375 c 1
 411.344726562 412.133789062 l 1
 348.368164062 426.670898438 294.888671875 437.833007812 246.344726562 450 c 0
 200.388671875 461.518554688 161.461914062 484.776367188 139.344726562 509 c 0
 118.344726562 532 111.682617188 572.114257812 111.682617188 617 c 0
 111.682617188 763.489339128 201.659803669 787.842245288 235.219726562 796.095703125 c 0
 264.704101562 803.346679688 325.677734375 807.420898438 411.344726562 808.193359375 c 1
 411.344726562 904 l 1
 475.344726562 904 l 1
 475.344726562 808.166992188 l 1
 698.431696563 805.90142853 748.952224985 784.923443472 769.301757812 630.556640625 c 1
 702.026367188 622.241210938 l 1
 688.998603382 714.942902149 665.875060376 745.248923354 475.344726562 749.120117188 c 1
 475.344726562 463 l 1xdc
411.344726562 749.3515625 m 1
 242.53384119 748.223002066 177.913085938 736.464162248 177.913085938 622 c 0xd8
 177.913085938 576.998158825 177.913085938 527.889745568 277.344726562 506 c 0
 323.161132812 495.913085938 365.865234375 487.0234375 411.344726562 477.169921875 c 1
 411.344726562 749.3515625 l 1
475.344726562 46.408203125 m 1
 627.940710775 47.2626039325 687.755098978 56.723187411 712.344726562 116 c 0
 724.623046875 145.598632812 727.14453125 194.858398438 727.14453125 216 c 0xca
 727.14453125 322.812302169 675.732086141 348.028982899 475.344726562 396.911132812 c 1
 475.344726562 46.408203125 l 1
EndSplineSet
Validated: 1
EndChar

StartChar: numbersign
Encoding: 35 35 100
Width: 800
Flags: W
HStem: 90 64<60 202.219 286.952 442.219 526.952 664> 446 64<136 273.048 357.781 513.048 597.781 740>
LayerCount: 2
Fore
SplineSet
339.5 780 m 1
 411.5 780 l 1
 357.78125 510 l 1
 525.78125 510 l 1
 579.5 780 l 1
 651.5 780 l 1
 597.78125 510 l 1
 740 510 l 1
 740 446 l 1
 585.047916667 446 l 1
 526.952083333 154 l 1
 664 154 l 1
 664 90 l 1
 514.21875 90 l 1
 460.5 -180 l 1
 388.5 -180 l 1
 442.21875 90 l 1
 274.21875 90 l 1
 220.5 -180 l 1
 148.5 -180 l 1
 202.21875 90 l 1
 60 90 l 1
 60 154 l 1
 214.952083333 154 l 1
 273.047916667 446 l 1
 136 446 l 1
 136 510 l 1
 285.78125 510 l 1
 339.5 780 l 1
513.047916667 446 m 1
 345.047916667 446 l 1
 286.952083333 154 l 1
 454.952083333 154 l 1
 513.047916667 446 l 1
EndSplineSet
Validated: 1
EndChar

StartChar: quoteleft
Encoding: 259 8216 101
Width: 260
Flags: W
HStem: 591 107<126.75 178.857> 781 20<163.244 181.15>
VStem: 76.25 107<597.481 693.607> 76.25 50.5<698 751.5>
LayerCount: 2
Fore
SplineSet
143.25 591 m 2xe0
 121.25 591 l 2
 96.25 591 76.25 611 76.25 636 c 2
 76.25 672 l 2xe0
 76.25 765 137.75 795 179.75 801 c 1
 183.75 781 l 1
 139.75 765 126.75 746 126.75 698 c 1xd0
 143.25 698 l 2
 165.25 698 183.25 680 183.25 658 c 2
 183.25 631 l 2
 183.25 609 165.25 591 143.25 591 c 2xe0
EndSplineSet
Validated: 1
EndChar

StartChar: quoteright
Encoding: 260 8217 102
Width: 260
Flags: W
HStem: 590 20<78.85 96.7559> 693 107<81.143 133.25>
VStem: 76.75 107<697.393 793.519> 133.25 50.5<639.5 693>
LayerCount: 2
Fore
SplineSet
116.75 800 m 2xe0
 138.75 800 l 2
 163.75 800 183.75 780 183.75 755 c 2
 183.75 719 l 2xe0
 183.75 626 122.25 596 80.25 590 c 1
 76.25 610 l 1
 120.25 626 133.25 645 133.25 693 c 1xd0
 116.75 693 l 2
 94.75 693 76.75 711 76.75 733 c 2
 76.75 760 l 2
 76.75 782 94.75 800 116.75 800 c 2xe0
EndSplineSet
Validated: 1
EndChar

StartChar: quotereversed
Encoding: 261 8219 103
Width: 260
Flags: W
HStem: 590 20<163.244 181.15> 693 107<126.75 178.857>
VStem: 76.25 107<697.393 793.519> 76.25 50.5<639.5 693>
LayerCount: 2
Fore
SplineSet
143.25 800 m 2xe0
 165.25 800 183.25 782 183.25 760 c 2
 183.25 733 l 2xe0
 183.25 711 165.25 693 143.25 693 c 2
 126.75 693 l 1xd0
 126.75 645 139.75 626 183.75 610 c 1
 179.75 590 l 1
 137.75 596 76.25 626 76.25 719 c 2
 76.25 755 l 2
 76.25 780 96.25 800 121.25 800 c 2
 143.25 800 l 2xe0
EndSplineSet
Validated: 1
EndChar

StartChar: uni201F
Encoding: 262 8223 104
Width: 440
Flags: W
HStem: 590 20<163.244 181.15 343.244 361.15> 693 107<126.75 178.857 306.75 358.857>
VStem: 76.25 107<697.393 793.519> 76.25 50.5<639.5 693> 256.25 107<697.393 793.519> 256.25 50.5<639.5 693>
LayerCount: 2
Fore
SplineSet
143.25 800 m 2xe0
 165.25 800 183.25 782 183.25 760 c 2
 183.25 733 l 2xe0
 183.25 711 165.25 693 143.25 693 c 2
 126.75 693 l 1xd0
 126.75 645 139.75 626 183.75 610 c 1
 179.75 590 l 1
 137.75 596 76.25 626 76.25 719 c 2
 76.25 755 l 2
 76.25 780 96.25 800 121.25 800 c 2
 143.25 800 l 2xe0
323.25 800 m 2
 345.25 800 363.25 782 363.25 760 c 2
 363.25 733 l 2xc8
 363.25 711 345.25 693 323.25 693 c 2
 306.75 693 l 1xc4
 306.75 645 319.75 626 363.75 610 c 1
 359.75 590 l 1
 317.75 596 256.25 626 256.25 719 c 2
 256.25 755 l 2xc8
 256.25 780 276.25 800 301.25 800 c 2
 323.25 800 l 2
EndSplineSet
Validated: 1
EndChar

StartChar: brokenbar
Encoding: 166 166 105
Width: 320
Flags: W
VStem: 127 66<-180 200 400 780>
LayerCount: 2
Fore
SplineSet
193 200 m 1
 193 -180 l 1
 127 -180 l 1
 127 200 l 1
 193 200 l 1
193 780 m 1
 193 400 l 1
 127 400 l 1
 127 780 l 1
 193 780 l 1
EndSplineSet
Validated: 1
EndChar

StartChar: perthousand
Encoding: 263 8240 106
Width: 1240
Flags: W
HStem: -0.607422 61.3574<588.958 724.827 929.958 1065.83> 236.787 59.8203<588.958 724.827 929.958 1065.83> 485.393 61.3574<172.958 308.827> 722.787 59.8203<172.958 308.827>
VStem: 103.76 58.3857<559.039 711.196> 320.702 59.5381<559.039 711.196> 519.76 58.3857<73.0389 225.196> 736.702 59.5381<73.0389 225.196> 860.76 58.3857<73.0389 225.196> 1077.7 59.5381<73.0389 225.196>
LayerCount: 2
Fore
SplineSet
952.919921875 296.607421875 m 2
 1045.08007812 296.607421875 l 2
 1095.76757812 296.607421875 1137.24023438 255.135742188 1137.24023438 204.448242188 c 2
 1137.24023438 91.5517578125 l 2
 1137.24023438 40.8642578125 1095.76757812 -0.607421875 1045.08007812 -0.607421875 c 2
 952.919921875 -0.607421875 l 2
 902.232421875 -0.607421875 860.759765625 40.8642578125 860.759765625 91.5517578125 c 2
 860.759765625 204.448242188 l 2
 860.759765625 255.135742188 902.232421875 296.607421875 952.919921875 296.607421875 c 2
972.893554688 236.787109375 m 2
 943.333007812 236.787109375 919.145507812 213.487304688 919.145507812 185.010742188 c 2
 919.145507812 112.526367188 l 2
 919.145507812 84.048828125 943.333007812 60.75 972.893554688 60.75 c 2
 1023.95410156 60.75 l 2
 1053.51464844 60.75 1077.70214844 84.048828125 1077.70214844 112.526367188 c 2
 1077.70214844 185.010742188 l 2
 1077.70214844 213.487304688 1053.51464844 236.787109375 1023.95410156 236.787109375 c 2
 972.893554688 236.787109375 l 2
611.919921875 296.607421875 m 2
 704.080078125 296.607421875 l 2
 754.767578125 296.607421875 796.240234375 255.135742188 796.240234375 204.448242188 c 2
 796.240234375 91.5517578125 l 2
 796.240234375 40.8642578125 754.767578125 -0.607421875 704.080078125 -0.607421875 c 2
 611.919921875 -0.607421875 l 2
 561.232421875 -0.607421875 519.759765625 40.8642578125 519.759765625 91.5517578125 c 2
 519.759765625 204.448242188 l 2
 519.759765625 255.135742188 561.232421875 296.607421875 611.919921875 296.607421875 c 2
631.893554688 236.787109375 m 2
 602.333007812 236.787109375 578.145507812 213.487304688 578.145507812 185.010742188 c 2
 578.145507812 112.526367188 l 2
 578.145507812 84.048828125 602.333007812 60.75 631.893554688 60.75 c 2
 682.954101562 60.75 l 2
 712.514648438 60.75 736.702148438 84.048828125 736.702148438 112.526367188 c 2
 736.702148438 185.010742188 l 2
 736.702148438 213.487304688 712.514648438 236.787109375 682.954101562 236.787109375 c 2
 631.893554688 236.787109375 l 2
653 780 m 1
 735 780 l 1
 247 0 l 1
 165 0 l 1
 653 780 l 1
195.919921875 782.607421875 m 2
 288.080078125 782.607421875 l 2
 338.767578125 782.607421875 380.240234375 741.135742188 380.240234375 690.448242188 c 2
 380.240234375 577.551757812 l 2
 380.240234375 526.864257812 338.767578125 485.392578125 288.080078125 485.392578125 c 2
 195.919921875 485.392578125 l 2
 145.232421875 485.392578125 103.759765625 526.864257812 103.759765625 577.551757812 c 2
 103.759765625 690.448242188 l 2
 103.759765625 741.135742188 145.232421875 782.607421875 195.919921875 782.607421875 c 2
215.893554688 722.787109375 m 2
 186.333007812 722.787109375 162.145507812 699.487304688 162.145507812 671.010742188 c 2
 162.145507812 598.526367188 l 2
 162.145507812 570.048828125 186.333007812 546.75 215.893554688 546.75 c 2
 266.954101562 546.75 l 2
 296.514648438 546.75 320.702148438 570.048828125 320.702148438 598.526367188 c 2
 320.702148438 671.010742188 l 2
 320.702148438 699.487304688 296.514648438 722.787109375 266.954101562 722.787109375 c 2
 215.893554688 722.787109375 l 2
EndSplineSet
Validated: 1
EndChar

StartChar: emdash
Encoding: 264 8212 107
Width: 1080
VWidth: 1050
Flags: W
HStem: 273 54<0 1080>
LayerCount: 2
Fore
SplineSet
0 273 m 5
 0 327 l 1
 1080 327 l 1
 1080 273 l 5
 0 273 l 5
EndSplineSet
Validated: 1
EndChar

StartChar: endash
Encoding: 265 8211 108
Width: 540
Flags: W
HStem: 273 54<0 540>
LayerCount: 2
Fore
SplineSet
0 273 m 5
 0 327 l 5
 540 327 l 5
 540 273 l 5
 0 273 l 5
EndSplineSet
Validated: 1
EndChar

StartChar: ampersand
Encoding: 38 38 109
Width: 850
Flags: W
HStem: -12.1963 58.5244<204.305 541.974> 0 21G<683 776> 749.443 58.8857<274.235 525.309>
VStem: 79 64<98.4231 332.993> 155 64<555.76 705.67> 580 65<543.642 701.44> 622 66<143.831 397>
LayerCount: 2
Fore
SplineSet
401 749.443359375 m 0xbc
 331.018482439 749.443359375 219 736.550559453 219 654 c 2
 219 608 l 2
 219 578.98828125 235.8359375 559.841796875 253.05078125 542 c 2
 776 0 l 1
 683 0 l 1
 683 0 193 508 192.855887522 508 c 0
 163.953581632 537.955213209 155 571.985297297 155 606 c 2
 155 653 l 2
 155 690.291960219 170.187759483 762.183765038 279.875 795.095703125 c 0
 312.351467678 804.84035062 347.948848136 808.329101562 401 808.329101562 c 0
 568.621921934 808.329101562 606.070996209 746.569172492 626 712 c 0
 639.597900784 688.412861241 645 661.47265625 645 638 c 2
 645 599 l 2x7c
 645 485 582 461 370 417 c 0
 197.736433981 381.247184411 143 358.110351562 143 245 c 0
 143 206.672851562 143 144 150 126 c 0
 169.313499156 76.3370327172 200.352460389 46.328125 370.546875 46.328125 c 0
 594.292047578 46.328125 622 89.0480906293 622 276 c 2
 622 397 l 1
 688 397 l 1
 688 263 l 2xba
 688 10.315580377 603.110226013 -11.5083542367 370.680664062 -12.1962890625 c 24
 218.211555275 -11.7474630221 126.694044929 -7.34831949295 88.40625 93.685546875 c 0
 79.6237258149 116.860879289 79 188.9921875 79 250 c 0
 79 398.030273438 155.684741753 432.558815585 339 470 c 0
 518.854834638 506.734410959 580 524 580 599 c 2
 580 633 l 2
 580 738.506856433 481.789589463 749.443359375 401 749.443359375 c 0xbc
EndSplineSet
Validated: 5
EndChar

StartChar: braceleft
Encoding: 123 123 110
Width: 400
Flags: W
HStem: -181 60<281.19 357> 261 78<84 145.681> 721 60<281.19 357>
VStem: 183 66<-89.875 225.394 374.606 689.875>
CounterMasks: 1 e0
LayerCount: 2
Fore
SplineSet
84 261 m 5
 84 339 l 1
 140 349 183 367 183 446 c 2
 183 612 l 2
 183 734 221 781 357 781 c 1
 357 721 l 1
 278 721 249 689 249 608 c 2
 249 427 l 2
 249 366 232 316 166 300 c 1
 232 284 249 234 249 173 c 2
 249 -8 l 2
 249 -89 278 -121 357 -121 c 1
 357 -181 l 1
 221 -181 183 -134 183 -12 c 2
 183 154 l 2
 183 233 140 251 84 261 c 5
EndSplineSet
Validated: 1
EndChar

StartChar: braceright
Encoding: 125 125 111
Width: 400
Flags: W
HStem: -181 60<43 118.81> 261 78<254.319 316> 721 60<43 118.81>
VStem: 151 66<-89.875 225.394 374.606 689.875>
CounterMasks: 1 e0
LayerCount: 2
Fore
SplineSet
316 261 m 1
 260 251 217 233 217 154 c 2
 217 -12 l 2
 217 -134 179 -181 43 -181 c 1
 43 -121 l 1
 122 -121 151 -89 151 -8 c 2
 151 173 l 2
 151 234 168 284 234 300 c 1
 168 316 151 366 151 427 c 2
 151 608 l 2
 151 689 122 721 43 721 c 1
 43 781 l 1
 179 781 217 734 217 612 c 2
 217 446 l 2
 217 367 260 349 316 339 c 1
 316 261 l 1
EndSplineSet
Validated: 1
EndChar

StartChar: asciitilde
Encoding: 126 126 112
Width: 640
VWidth: 999
Flags: W
HStem: 208 59<363.718 484.912> 306 59<155.088 276.282>
VStem: 78 59<213 287.375> 503 59<285.625 360>
LayerCount: 2
Fore
SplineSet
299 266 m 0
 266 293 256.01171875 306 215 306 c 3
 163 306 137 289 137 213 c 1
 78 213 l 1
 78 333 125.977539062 365 215 365 c 3
 277.0078125 365 297 344 341 307 c 0
 374 280 383.98828125 267 425 267 c 3
 477 267 503 284 503 360 c 1
 562 360 l 1
 562 240 514.022460938 208 425 208 c 3
 362.9921875 208 343 229 299 266 c 0
EndSplineSet
Validated: 1
EndChar

StartChar: yen
Encoding: 165 165 113
Width: 880
Flags: W
HStem: 0 21G<405 475> 250 64<212 405 475 668> 416 64<212 384.5 495.5 668> 780 20G<163.747 261.204 618.796 716.253>
VStem: 405 70<0 250 314 416>
LayerCount: 2
Fore
SplineSet
440 514.26171875 m 1
 632.252929688 800 l 1
 716.252929688 800 l 1
 495.5 480 l 1
 668 480 l 1
 668 416 l 1
 475 416 l 1
 475 314 l 1
 668 314 l 1
 668 250 l 1
 475 250 l 1
 475 0 l 1
 405 0 l 1
 405 250 l 1
 212 250 l 1
 212 314 l 1
 405 314 l 1
 405 416 l 1
 212 416 l 1
 212 480 l 1
 384.5 480 l 1
 163.747070312 800 l 1
 247.747070312 800 l 1
 440 514.26171875 l 1
EndSplineSet
Validated: 1
EndChar

StartChar: sterling
Encoding: 163 163 114
Width: 480
VWidth: 800
Flags: W
HStem: 0 64<101 150.292 220.5 664> 416 64<58 185.53 256.468 426> 751.672 60.5244<291.058 437.248>
VStem: 185.524 69.9971<103.627 416 480 714.703>
LayerCount: 2
Fore
SplineSet
435 746.397460938 m 1
 424.930664062 748.59765625 405.868164062 751.671875 378.974609375 751.671875 c 0
 327.984139467 751.671875 278.898500583 745.44846868 262.544921875 683.373046875 c 0
 259.326319285 671.155775232 257.375 642.4453125 256.467773438 480 c 1
 426 480 l 1
 426 416 l 1
 255.521484375 416 l 1
 255.521484375 189 l 2
 255.521484375 132.196600635 241.850745214 92.2406287085 220.499761249 64 c 1
 664 64 l 1
 664 0 l 1
 101 0 l 1
 101 64 l 1
 168 72 185.522839413 130.000008737 185.524414062 216 c 2
 185.530273438 416.01171875 l 1
 58 416 l 1
 58 480 l 1
 186.407226562 480 l 1
 186.598632812 667.546875 191.010506187 697.522319286 197.927734375 717.314453125 c 0
 228.41640355 804.55110406 290.765863863 812.196289062 377.840820312 812.196289062 c 0
 399.008789062 812.196289062 432.192382812 808.119140625 446 803.91796875 c 1
 435 746.397460938 l 1
EndSplineSet
Validated: 1
EndChar

StartChar: ellipsis
Encoding: 266 8230 115
Width: 680
Flags: W
HStem: 0 107<90.893 189.107 290.893 389.107 490.893 589.107>
VStem: 86.5 107<4.39297 102.607> 286.5 107<4.39297 102.607> 486.5 107<4.39297 102.607>
CounterMasks: 1 70
LayerCount: 2
Fore
SplineSet
526.5 107 m 2
 553.5 107 l 2
 575.5 107 593.5 89 593.5 67 c 2
 593.5 40 l 2
 593.5 18 575.5 0 553.5 0 c 2
 526.5 0 l 2
 504.5 0 486.5 18 486.5 40 c 2
 486.5 67 l 2
 486.5 89 504.5 107 526.5 107 c 2
326.5 107 m 2
 353.5 107 l 2
 375.5 107 393.5 89 393.5 67 c 2
 393.5 40 l 2
 393.5 18 375.5 0 353.5 0 c 2
 326.5 0 l 2
 304.5 0 286.5 18 286.5 40 c 2
 286.5 67 l 2
 286.5 89 304.5 107 326.5 107 c 2
126.5 107 m 2
 153.5 107 l 2
 175.5 107 193.5 89 193.5 67 c 2
 193.5 40 l 2
 193.5 18 175.5 0 153.5 0 c 2
 126.5 0 l 2
 104.5 0 86.5 18 86.5 40 c 2
 86.5 67 l 2
 86.5 89 104.5 107 126.5 107 c 2
EndSplineSet
Validated: 1
EndChar

StartChar: Agrave
Encoding: 192 192 116
Width: 882
Flags: W
HStem: 0 21G<66 150.396 729.554 814> 238 68<270.459 608.774> 792.75 20G<426.493 451.753>
LayerCount: 2
Fore
SplineSet
295 968 m 1
 375 968 l 1
 488 840 l 1
 425 840 l 1
 295 968 l 1
66 0 m 1
 391.344726562 775 l 2
 402.577148438 801.7578125 413.873046875 812.75 439.11328125 812.75 c 0
 464.393554688 812.75 475.415039062 801.752929688 486.712890625 775 c 2
 814 0 l 1
 738 0 l 1
 637.491210938 238 l 1
 241.912109375 238 l 1
 142 0 l 1
 66 0 l 1
270.458984375 306 m 1
 608.774414062 306 l 1
 439.11328125 707.75 l 1
 270.458984375 306 l 1
EndSplineSet
Validated: 1
EndChar

StartChar: Aacute
Encoding: 193 193 117
Width: 882
Flags: W
HStem: 0 21G<67 151.396 730.554 815> 238 68<271.459 609.774> 792.75 20G<427.493 452.753>
LayerCount: 2
Fore
SplineSet
586 968 m 1
 456 840 l 1
 393 840 l 1
 506 968 l 1
 586 968 l 1
67 0 m 1
 392.344726562 775 l 2
 403.577148438 801.7578125 414.873046875 812.75 440.11328125 812.75 c 0
 465.393554688 812.75 476.415039062 801.752929688 487.712890625 775 c 2
 815 0 l 1
 739 0 l 1
 638.491210938 238 l 1
 242.912109375 238 l 1
 143 0 l 1
 67 0 l 1
271.458984375 306 m 1
 609.774414062 306 l 1
 440.11328125 707.75 l 1
 271.458984375 306 l 1
EndSplineSet
Validated: 1
EndChar

StartChar: Acircumflex
Encoding: 194 194 118
Width: 881
Flags: W
HStem: 0 21G<66 150.396 729.554 814> 238 68<270.459 608.774> 792.75 20G<426.493 451.753>
LayerCount: 2
Fore
SplineSet
66 0 m 1
 391.344726562 775 l 2
 402.577148438 801.7578125 413.873046875 812.75 439.11328125 812.75 c 0
 464.393554688 812.75 475.415039062 801.752929688 486.712890625 775 c 2
 814 0 l 1
 738 0 l 1
 637.491210938 238 l 1
 241.912109375 238 l 1
 142 0 l 1
 66 0 l 1
270.458984375 306 m 1
 608.774414062 306 l 1
 439.11328125 707.75 l 1
 270.458984375 306 l 1
411 966 m 1
 469 966 l 1
 582 823 l 1
 535 823 l 1
 440 918 l 1
 345 823 l 1
 298 823 l 1
 411 966 l 1
EndSplineSet
Validated: 1
EndChar

StartChar: Adieresis
Encoding: 196 196 119
Width: 883
Flags: W
HStem: 0 21G<67 151.403 730.513 815> 238 68<271 610> 793 20G<427.5 452.5> 862 81<306.18 383.82 498.18 575.82>
VStem: 305 80<863.18 941.82> 497 80<863.18 941.82>
LayerCount: 2
Fore
SplineSet
547 943 m 2
 563 943 577 929 577 913 c 2
 577 892 l 2
 577 876 563 862 547 862 c 2
 527 862 l 2
 511 862 497 876 497 892 c 2
 497 913 l 2
 497 929 511 943 527 943 c 2
 547 943 l 2
335 943 m 2
 355 943 l 2
 371 943 385 929 385 913 c 2
 385 892 l 2
 385 876 371 862 355 862 c 2
 335 862 l 2
 319 862 305 876 305 892 c 2
 305 913 l 2
 305 929 319 943 335 943 c 2
67 0 m 1
 392 775 l 2
 403 802 415 813 440 813 c 0
 465 813 477 802 488 775 c 2
 815 0 l 1
 739 0 l 1
 638 238 l 1
 243 238 l 1
 143 0 l 1
 67 0 l 1
271 306 m 1
 610 306 l 1
 440 708 l 1
 271 306 l 1
EndSplineSet
Validated: 1
EndChar

StartChar: Atilde
Encoding: 195 195 120
Width: 881
Flags: W
HStem: 0 21G<66 150.403 729.513 814> 238 68<270 609> 793 20G<426.5 451.5> 849 44<466.405 568.153> 922 44<311.847 413.595>
VStem: 258 45<852 913.21> 577 45<901.79 963>
LayerCount: 2
Fore
SplineSet
66 0 m 1
 391 775 l 2
 402 802 414 813 439 813 c 0
 464 813 476 802 487 775 c 2
 814 0 l 1
 738 0 l 1
 637 238 l 1
 242 238 l 1
 142 0 l 1
 66 0 l 1
270 306 m 1
 609 306 l 1
 439 708 l 1
 270 306 l 1
424 892 m 0
 399 912 392 922 361 922 c 0
 322 922 303 909 303 852 c 1
 258 852 l 1
 258 942 294 966 361 966 c 0
 408 966 423 951 456 923 c 0
 481 903 488 893 519 893 c 0
 558 893 577 906 577 963 c 1
 622 963 l 1
 622 873 586 849 519 849 c 0
 472 849 457 864 424 892 c 0
EndSplineSet
Validated: 1
EndChar

StartChar: Aring
Encoding: 197 197 121
Width: 881
Flags: W
HStem: 0 21G<66 150.403 729.513 814> 238 68<270 609> 793 20G<426.5 451.5> 846 36<395.784 483.308> 974 36<394.505 484.535>
VStem: 357 35<884.929 971.216> 487 36<884.784 971.216>
LayerCount: 2
Fore
SplineSet
66 0 m 1
 391 775 l 2
 402 802 414 813 439 813 c 0
 464 813 476 802 487 775 c 2
 814 0 l 1
 738 0 l 1
 637 238 l 1
 242 238 l 1
 142 0 l 1
 66 0 l 1
270 306 m 1
 609 306 l 1
 439 708 l 1
 270 306 l 1
412 1010 m 2
 467 1010 l 2
 497 1010 523 985 523 955 c 2
 523 901 l 2
 523 871 497 846 467 846 c 2
 412 846 l 2
 382 846 357 871 357 901 c 2
 357 955 l 2
 357 985 382 1010 412 1010 c 2
424 974 m 2
 404 974 392 962 392 943 c 2
 392 914 l 2
 392 895 404 882 424 882 c 2
 455 882 l 2
 475 882 487 895 487 914 c 2
 487 943 l 2
 487 962 475 974 455 974 c 2
 424 974 l 2
EndSplineSet
Validated: 1
EndChar

StartChar: AE
Encoding: 198 198 122
Width: 987
Flags: W
HStem: 0 64<508 916> 238 68<267.459 438> 400 64<508 873> 736 64<508 898>
VStem: 438 70<64 238 306 400 464 710>
LayerCount: 2
Fore
SplineSet
508 736 m 1
 508 464 l 1
 873 464 l 1
 873 400 l 1
 508 400 l 1
 508 64 l 1
 916 64 l 1
 916 0 l 1
 438 0 l 1
 438 238 l 1
 238.912109375 238 l 1
 141 0 l 1
 61 0 l 1
 388.344726562 775 l 2
 397.483398438 796.63671875 415.759765625 800 438 800 c 2
 504 800 l 1
 898 800 l 1
 898 736 l 1
 508 736 l 1
438 306 m 1
 438 710 l 1
 267.458984375 306 l 1
 438 306 l 1
EndSplineSet
Validated: 1
EndChar

StartChar: Ccedilla
Encoding: 199 199 123
Width: 857
Flags: W
HStem: -198 45<317.991 527.845> -94 42<405.991 535.146> -12.1963 58.5244<195.951 363.991 405.991 643.727> 609 21G<713.395 778.535> 749.443 58.8857<195.707 644.719>
VStem: 44 65.9395<167.018 625.953> 363.991 42<-52 -12.1699> 536.744 45.665<-142.158 -101.857> 714.447 64.0879<616.126 695.777> 724.544 66.208<103.747 192>
LayerCount: 2
Fore
SplineSet
724.543945312 196 m 1xff40
 790.751953125 192 l 1xff40
 784.597093699 59.0673897219 739.181551031 14.3575712209 665.116210938 -0.7861328125 c 0
 619.44140625 -10.1240234375 514.991210938 -12.1962890625 420.671875 -12.1962890625 c 0
 415.793945312 -12.1962890625 410.897460938 -12.1875 405.991210938 -12.169921875 c 1
 405.991210938 -52 l 1
 529.970703125 -52 582.409179688 -59.8935546875 582.409179688 -121 c 0
 582.409179688 -189.20703125 535.000976562 -198 317.991210938 -198 c 1
 317.991210938 -153 l 1
 501.5546875 -153 536.744140625 -148.026367188 536.744140625 -121 c 0
 536.744140625 -96.9365234375 501.875976562 -94 363.991210938 -94 c 1
 363.991210938 -11.787109375 l 1
 287.874023438 -10.6455078125 215.33203125 -6.958984375 178.866210938 1.2138671875 c 0
 44 31.4402511282 44 178.964325496 44 396.98828125 c 0
 44 631.92992189 51.0724256129 762.667126178 178.866210938 794.095703125 c 0
 211.791992188 802.193359375 341.490234375 808.329101562 420.991210938 808.329101562 c 0
 499.833007812 808.329101562 624.48046875 804.30859375 657.116210938 796.095703125 c 0
 760.124219408 770.173702045 773.863087867 705.237070131 778.53515625 617 c 1
 714.447265625 609 l 1xff80
 712.342544593 652.400320157 708.878990532 723.820405222 616.611328125 740.313476562 c 0
 582.708984375 746.375976562 478.907226562 749.443359375 420.991210938 749.443359375 c 0
 362.327148438 749.443359375 253.546875 744.424804688 219.37109375 738.313476562 c 0
 172.170898438 729.875976562 134.138671875 696.958007812 126.014648438 648.682617188 c 0
 112.896484375 570.716796875 109.939453125 503.852539062 109.939453125 397.08203125 c 0
 109.939453125 291.458007812 112.896484375 224.59375 126.014648438 146.626953125 c 0
 134.138671875 98.3525390625 172.170898438 65.435546875 219.37109375 56.9970703125 c 0
 262.580078125 49.271484375 341.990234375 46.328125 420.538085938 46.328125 c 0
 498.9921875 46.328125 581.404296875 47.271484375 624.611328125 54.9970703125 c 0
 671.813476562 63.435546875 705.991210938 94 717.967773438 136.626953125 c 0
 722.143554688 151.490234375 723.703125 178.881835938 724.543945312 196 c 1xff40
EndSplineSet
Validated: 1
EndChar

StartChar: Egrave
Encoding: 200 200 124
Width: 843
Flags: W
HStem: 0 64<142 776> 400 64<142 746> 736 64<142 771>
VStem: 72 70<64 400 464 736>
LayerCount: 2
Fore
SplineSet
142 736 m 1
 142 464 l 1
 746 464 l 1
 746 400 l 1
 142 400 l 1
 142 64 l 1
 776 64 l 1
 776 0 l 1
 72 0 l 1
 72 800 l 1
 771 800 l 1
 771 736 l 1
 142 736 l 1
311 968 m 5
 391 968 l 5
 504 840 l 5
 441 840 l 5
 311 968 l 5
EndSplineSet
Validated: 1
EndChar

StartChar: Eacute
Encoding: 201 201 125
Width: 843
Flags: W
HStem: 0 64<142 776> 400 64<142 746> 736 64<142 771>
VStem: 72 70<64 400 464 736>
LayerCount: 2
Fore
SplineSet
142 736 m 1
 142 464 l 1
 746 464 l 1
 746 400 l 1
 142 400 l 1
 142 64 l 1
 776 64 l 1
 776 0 l 1
 72 0 l 1
 72 800 l 1
 771 800 l 1
 771 736 l 1
 142 736 l 1
542 968 m 1
 412 840 l 1
 349 840 l 1
 462 968 l 1
 542 968 l 1
EndSplineSet
Validated: 1
EndChar

StartChar: Ecircumflex
Encoding: 202 202 126
Width: 843
Flags: W
HStem: 0 64<142 776> 400 64<142 746> 736 64<142 771>
VStem: 72 70<64 400 464 736>
LayerCount: 2
Fore
SplineSet
142 736 m 1
 142 464 l 1
 746 464 l 1
 746 400 l 1
 142 400 l 1
 142 64 l 1
 776 64 l 1
 776 0 l 1
 72 0 l 1
 72 800 l 1
 771 800 l 1
 771 736 l 1
 142 736 l 1
393 966 m 1
 451 966 l 1
 564 826 l 1
 517 826 l 1
 422 918 l 1
 327 826 l 1
 280 826 l 1
 393 966 l 1
EndSplineSet
Validated: 1
EndChar

StartChar: Edieresis
Encoding: 203 203 127
Width: 843
Flags: W
HStem: 0 64<142 776> 400 64<142 746> 736 64<142 771> 862 81<287.18 364.82 479.18 556.82>
VStem: 72 70<64 400 464 736> 286 80<863.18 941.82> 478 80<863.18 941.82>
LayerCount: 2
Fore
SplineSet
142 736 m 1
 142 464 l 1
 746 464 l 1
 746 400 l 1
 142 400 l 1
 142 64 l 1
 776 64 l 1
 776 0 l 1
 72 0 l 1
 72 800 l 1
 771 800 l 1
 771 736 l 1
 142 736 l 1
528 943 m 2
 544 943 558 929 558 913 c 2
 558 892 l 2
 558 876 544 862 528 862 c 2
 508 862 l 2
 492 862 478 876 478 892 c 2
 478 913 l 2
 478 929 492 943 508 943 c 2
 528 943 l 2
316 943 m 2
 336 943 l 2
 352 943 366 929 366 913 c 2
 366 892 l 2
 366 876 352 862 336 862 c 2
 316 862 l 2
 300 862 286 876 286 892 c 2
 286 913 l 2
 286 929 300 943 316 943 c 2
EndSplineSet
Validated: 1
EndChar

StartChar: Igrave
Encoding: 204 204 128
Width: 219
Flags: W
HStem: 0 21G<72 142> 780 20G<72 142>
VStem: 72 70<0 800>
LayerCount: 2
Fore
SplineSet
72 800 m 1
 142 800 l 1
 142 0 l 1
 72 0 l 1
 72 800 l 1
-43 968 m 1
 37 968 l 1
 150 840 l 1
 87 840 l 1
 -43 968 l 1
EndSplineSet
Validated: 1
EndChar

StartChar: Iacute
Encoding: 205 205 129
Width: 219
Flags: W
HStem: 0 21G<72 142> 780 20G<72 142>
VStem: 72 70<0 800>
LayerCount: 2
Fore
SplineSet
72 800 m 1
 142 800 l 1
 142 0 l 1
 72 0 l 1
 72 800 l 1
257 968 m 1
 127 840 l 1
 64 840 l 1
 177 968 l 1
 257 968 l 1
EndSplineSet
Validated: 1
EndChar

StartChar: Icircumflex
Encoding: 206 206 130
Width: 219
Flags: W
HStem: 0 21G<72 142> 780 20G<72 142>
VStem: 72 70<0 800>
LayerCount: 2
Fore
SplineSet
72 800 m 1
 142 800 l 1
 142 0 l 1
 72 0 l 1
 72 800 l 1
78 966 m 1
 136 966 l 1
 249 826 l 1
 202 826 l 1
 107 918 l 1
 12 826 l 1
 -35 826 l 1
 78 966 l 1
EndSplineSet
Validated: 1
EndChar

StartChar: Idieresis
Encoding: 207 207 131
Width: 219
Flags: W
HStem: 0 21G<72 142> 780 20G<72 142> 862 81<-27.8202 49.8202 164.18 241.82>
VStem: -29 80<863.18 941.82> 72 70<0 800> 163 80<863.18 941.82>
CounterMasks: 1 1c
LayerCount: 2
Fore
SplineSet
72 800 m 1
 142 800 l 1
 142 0 l 1
 72 0 l 1
 72 800 l 1
213 943 m 2
 229 943 243 929 243 913 c 2
 243 892 l 2
 243 876 229 862 213 862 c 2
 193 862 l 2
 177 862 163 876 163 892 c 2
 163 913 l 2
 163 929 177 943 193 943 c 2
 213 943 l 2
1 943 m 2
 21 943 l 2
 37 943 51 929 51 913 c 2
 51 892 l 2
 51 876 37 862 21 862 c 2
 1 862 l 2
 -15 862 -29 876 -29 892 c 2
 -29 913 l 2
 -29 929 -15 943 1 943 c 2
EndSplineSet
Validated: 1
EndChar

StartChar: Eth
Encoding: 208 208 132
Width: 936
Flags: W
HStem: 0 60<196 712.067> 400 64<62 126 196 423> 740 60<196 698.975>
VStem: 126 70<60 400 464 740> 797.052 65.9395<154.848 616.233>
LayerCount: 2
Fore
SplineSet
486 60 m 2
 564.454101562 60 643.413085938 61.2724609375 686.620117188 68.9970703125 c 0
 733.822265625 77.435546875 771.854492188 104.352539062 779.9765625 152.626953125 c 0
 793.094726562 230.59375 797.051757812 280.458007812 797.051757812 386.08203125 c 0
 797.051757812 492.852539062 790.094726562 568.716796875 770.9765625 645.682617188 c 0
 759.174804688 693.192382812 719.822265625 719.875976562 672.620117188 729.313476562 c 0
 638.848632812 736.065429688 541.916015625 740 484 740 c 2
 196 740 l 1
 196 464 l 1
 423 464 l 1
 423 400 l 1
 196 400 l 1
 196 60 l 1
 486 60 l 2
126 400 m 1
 62 400 l 1
 62 464 l 1
 126 464 l 1
 126 800 l 1
 473 800 l 2
 551.841796875 800 671.489257812 796.30859375 704.125 788.095703125 c 0
 761.670898438 773.614257812 804.700195312 748.911132812 825 700 c 0
 851.307617188 636.614257812 862.991210938 513.283203125 862.991210938 385.98828125 c 0
 862.991210938 266.693359375 855.322265625 170.108398438 834.59375 107.685546875 c 0
 816.21484375 52.33984375 770.514648438 22.5380859375 715.125 11.2138671875 c 0
 669.450195312 1.8759765625 582.319335938 0 488 0 c 2
 126 0 l 1
 126 400 l 1
EndSplineSet
Validated: 1
EndChar

StartChar: Ntilde
Encoding: 209 209 133
Width: 871
Flags: W
HStem: 0 21G<75 145> 789 11G<106.652 135.5 725 795> 849 44<461.405 563.153> 922 44<306.847 408.595>
VStem: 75 70<0 698> 253 45<852 913.21> 572 45<901.79 963> 725 70<102 800>
LayerCount: 2
Fore
SplineSet
145 698 m 1
 145 0 l 1
 75 0 l 1
 75 754 l 2
 75 786 94.3046875 809 119 809 c 0
 152 809 171.685546875 779.743164062 183.72265625 765 c 2
 725 102 l 1
 725 800 l 1
 795 800 l 1
 795 46 l 2
 795 14 775.6953125 -9 751 -9 c 0
 718 -9 698.314453125 20.2568359375 686.27734375 35 c 2
 145 698 l 1
419 892 m 0
 394 912 387 922 356 922 c 0
 317 922 298 909 298 852 c 1
 253 852 l 1
 253 942 289 966 356 966 c 0
 403 966 418 951 451 923 c 0
 476 903 483 893 514 893 c 0
 553 893 572 906 572 963 c 1
 617 963 l 1
 617 873 581 849 514 849 c 0
 467 849 452 864 419 892 c 0
EndSplineSet
Validated: 1
EndChar

StartChar: Ograve
Encoding: 210 210 134
Width: 899
Flags: W
HStem: -12.1963 58.5244<226.338 674.138> 749.443 58.8857<225.707 674.86>
VStem: 74 65.9395<166.339 626.957> 760.043 65.9395<168.453 628.354>
LayerCount: 2
Fore
SplineSet
649.611328125 738.313476562 m 0
 615.708984375 744.375976562 508.907226562 749.443359375 450.991210938 749.443359375 c 0
 392.327148438 749.443359375 283.546875 746.424804688 249.37109375 740.313476562 c 0
 202.170898438 731.875976562 164.138671875 702.958007812 156.014648438 654.682617188 c 0
 142.896484375 576.716796875 139.939453125 503.852539062 139.939453125 397.08203125 c 0
 139.939453125 291.458007812 143.896484375 220.59375 157.014648438 142.626953125 c 0
 165.138671875 94.3525390625 203.170898438 65.435546875 250.37109375 56.9970703125 c 0
 293.580078125 49.271484375 371.990234375 46.328125 450.538085938 46.328125 c 24
 528.9921875 46.328125 607.404296875 47.271484375 650.611328125 54.9970703125 c 0
 697.813476562 63.435546875 735.845703125 92.3525390625 743.967773438 140.626953125 c 0
 757.0859375 218.59375 760.04296875 291.458007812 760.04296875 397.08203125 c 0
 760.04296875 503.852539062 756.0859375 574.716796875 742.967773438 652.682617188 c 0
 734.845703125 700.958007812 696.813476562 729.875976562 649.611328125 738.313476562 c 0
74 396.98828125 m 0
 74 662.784312519 86.0444279338 765.889900487 208.866210938 796.095703125 c 0
 241.791992188 804.193359375 371.490234375 808.329101562 450.991210938 808.329101562 c 0
 529.833007812 808.329101562 658.48046875 804.30859375 691.116210938 796.095703125 c 0
 748.662109375 781.614257812 784.69140625 752.911132812 799.991210938 704 c 0
 820.479492188 638.500976562 825.982421875 524.283203125 825.982421875 396.98828125 c 0
 825.982421875 102.609265343 804.419845932 22.380394366 691.116210938 -0.7861328125 c 0
 645.44140625 -10.1240234375 544.991210938 -12.1962890625 450.671875 -12.1962890625 c 24
 355.991210938 -12.1962890625 254.357421875 -10.9814453125 208.866210938 -0.7861328125 c 0
 76.8670326289 28.7976881882 74 153.620807865 74 396.98828125 c 0
351.991210938 968 m 5
 431.991210938 968 l 5
 544.991210938 840 l 5
 481.991210938 840 l 5
 351.991210938 968 l 5
EndSplineSet
Validated: 1
EndChar

StartChar: Oacute
Encoding: 211 211 135
Width: 899
Flags: W
HStem: -12.1963 58.5244<226.338 674.138> 749.443 58.8857<225.707 674.86>
VStem: 74 65.9395<166.339 626.957> 760.043 65.9395<168.453 628.354>
LayerCount: 2
Fore
SplineSet
649.611328125 738.313476562 m 0
 615.708984375 744.375976562 508.907226562 749.443359375 450.991210938 749.443359375 c 0
 392.327148438 749.443359375 283.546875 746.424804688 249.37109375 740.313476562 c 0
 202.170898438 731.875976562 164.138671875 702.958007812 156.014648438 654.682617188 c 0
 142.896484375 576.716796875 139.939453125 503.852539062 139.939453125 397.08203125 c 0
 139.939453125 291.458007812 143.896484375 220.59375 157.014648438 142.626953125 c 0
 165.138671875 94.3525390625 203.170898438 65.435546875 250.37109375 56.9970703125 c 0
 293.580078125 49.271484375 371.990234375 46.328125 450.538085938 46.328125 c 24
 528.9921875 46.328125 607.404296875 47.271484375 650.611328125 54.9970703125 c 0
 697.813476562 63.435546875 735.845703125 92.3525390625 743.967773438 140.626953125 c 0
 757.0859375 218.59375 760.04296875 291.458007812 760.04296875 397.08203125 c 0
 760.04296875 503.852539062 756.0859375 574.716796875 742.967773438 652.682617188 c 0
 734.845703125 700.958007812 696.813476562 729.875976562 649.611328125 738.313476562 c 0
74 396.98828125 m 0
 74 662.784312519 86.0444279338 765.889900487 208.866210938 796.095703125 c 0
 241.791992188 804.193359375 371.490234375 808.329101562 450.991210938 808.329101562 c 0
 529.833007812 808.329101562 658.48046875 804.30859375 691.116210938 796.095703125 c 0
 748.662109375 781.614257812 784.69140625 752.911132812 799.991210938 704 c 0
 820.479492188 638.500976562 825.982421875 524.283203125 825.982421875 396.98828125 c 0
 825.982421875 102.609265343 804.419845932 22.380394366 691.116210938 -0.7861328125 c 0
 645.44140625 -10.1240234375 544.991210938 -12.1962890625 450.671875 -12.1962890625 c 24
 355.991210938 -12.1962890625 254.357421875 -10.9814453125 208.866210938 -0.7861328125 c 0
 76.8670326289 28.7976881882 74 153.620807865 74 396.98828125 c 0
559.991210938 968 m 1
 429.991210938 840 l 1
 366.991210938 840 l 1
 479.991210938 968 l 1
 559.991210938 968 l 1
EndSplineSet
Validated: 1
EndChar

StartChar: Ocircumflex
Encoding: 212 212 136
Width: 899
Flags: W
HStem: -12.1963 58.5244<226.338 674.138> 749.443 58.8857<225.707 674.862>
VStem: 74 65.9395<166.339 626.957> 760.043 65.9395<168.453 628.354>
LayerCount: 2
Fore
SplineSet
649.611328125 738.313476562 m 0
 615.708984375 744.375976562 508.907226562 749.443359375 450.991210938 749.443359375 c 0
 392.327148438 749.443359375 283.546875 746.424804688 249.37109375 740.313476562 c 0
 202.170898438 731.875976562 164.138671875 702.958007812 156.014648438 654.682617188 c 0
 142.896484375 576.716796875 139.939453125 503.852539062 139.939453125 397.08203125 c 0
 139.939453125 291.458007812 143.896484375 220.59375 157.014648438 142.626953125 c 0
 165.138671875 94.3525390625 203.170898438 65.435546875 250.37109375 56.9970703125 c 0
 293.580078125 49.271484375 371.990234375 46.328125 450.538085938 46.328125 c 24
 528.9921875 46.328125 607.404296875 47.271484375 650.611328125 54.9970703125 c 0
 697.813476562 63.435546875 735.845703125 92.3525390625 743.967773438 140.626953125 c 0
 757.0859375 218.59375 760.04296875 291.458007812 760.04296875 397.08203125 c 0
 760.04296875 503.852539062 756.0859375 574.716796875 742.967773438 652.682617188 c 0
 734.845703125 700.958007812 696.813476562 729.875976562 649.611328125 738.313476562 c 0
74 396.98828125 m 0
 74 662.784312519 86.0444279338 765.889900487 208.866210938 796.095703125 c 0
 241.791992188 804.193359375 371.490234375 808.329101562 450.991210938 808.329101562 c 0
 529.909179688 808.329101562 658.48046875 804.30859375 691.116210938 796.095703125 c 0
 748.662109375 781.614257812 784.69140625 752.911132812 799.991210938 704 c 0
 820.479492188 638.500976562 825.982421875 524.283203125 825.982421875 396.98828125 c 0
 825.982421875 102.609265343 804.419845932 22.380394366 691.116210938 -0.7861328125 c 0
 645.44140625 -10.1240234375 544.991210938 -12.1962890625 450.671875 -12.1962890625 c 24
 355.991210938 -12.1962890625 254.357421875 -10.9814453125 208.866210938 -0.7861328125 c 0
 76.8670326289 28.7976881882 74 153.620807865 74 396.98828125 c 0
421.991210938 954 m 5
 479.991210938 954 l 5
 592.991210938 830 l 5
 545.991210938 830 l 5
 450.991210938 906 l 5
 355.991210938 830 l 5
 308.991210938 830 l 5
 421.991210938 954 l 5
EndSplineSet
Validated: 1
EndChar

StartChar: Otilde
Encoding: 213 213 137
Width: 899
Flags: W
HStem: -12.1963 58.5244<226.338 674.138> 749.443 58.8857<225.707 674.86> 849 44<477.397 579.144> 922 44<322.838 424.586>
VStem: 74 65.9395<166.339 626.957> 268.991 45<852 913.21> 587.991 45<901.79 963> 760.043 65.9395<168.453 628.354>
LayerCount: 2
Fore
SplineSet
649.611328125 738.313476562 m 0
 615.708984375 744.375976562 508.907226562 749.443359375 450.991210938 749.443359375 c 0
 392.327148438 749.443359375 283.546875 746.424804688 249.37109375 740.313476562 c 0
 202.170898438 731.875976562 164.138671875 702.958007812 156.014648438 654.682617188 c 0
 142.896484375 576.716796875 139.939453125 503.852539062 139.939453125 397.08203125 c 0
 139.939453125 291.458007812 143.896484375 220.59375 157.014648438 142.626953125 c 0
 165.138671875 94.3525390625 203.170898438 65.435546875 250.37109375 56.9970703125 c 0
 293.580078125 49.271484375 371.990234375 46.328125 450.538085938 46.328125 c 24
 528.9921875 46.328125 607.404296875 47.271484375 650.611328125 54.9970703125 c 0
 697.813476562 63.435546875 735.845703125 92.3525390625 743.967773438 140.626953125 c 0
 757.0859375 218.59375 760.04296875 291.458007812 760.04296875 397.08203125 c 0
 760.04296875 503.852539062 756.0859375 574.716796875 742.967773438 652.682617188 c 0
 734.845703125 700.958007812 696.813476562 729.875976562 649.611328125 738.313476562 c 0
74 396.98828125 m 0
 74 662.784312519 86.0444279338 765.889900487 208.866210938 796.095703125 c 0
 241.791992188 804.193359375 371.490234375 808.329101562 450.991210938 808.329101562 c 0
 529.833007812 808.329101562 658.48046875 804.30859375 691.116210938 796.095703125 c 0
 748.662109375 781.614257812 784.69140625 752.911132812 799.991210938 704 c 0
 820.479492188 638.500976562 825.982421875 524.283203125 825.982421875 396.98828125 c 0
 825.982421875 102.609265343 804.419845932 22.380394366 691.116210938 -0.7861328125 c 0
 645.44140625 -10.1240234375 544.991210938 -12.1962890625 450.671875 -12.1962890625 c 24
 355.991210938 -12.1962890625 254.357421875 -10.9814453125 208.866210938 -0.7861328125 c 0
 76.8670326289 28.7976881882 74 153.620807865 74 396.98828125 c 0
434.991210938 892 m 0
 409.991210938 912 402.991210938 922 371.991210938 922 c 0
 332.991210938 922 313.991210938 909 313.991210938 852 c 1
 268.991210938 852 l 1
 268.991210938 942 304.991210938 966 371.991210938 966 c 0
 418.991210938 966 433.991210938 951 466.991210938 923 c 0
 491.991210938 903 498.991210938 893 529.991210938 893 c 0
 568.991210938 893 587.991210938 906 587.991210938 963 c 1
 632.991210938 963 l 1
 632.991210938 873 596.991210938 849 529.991210938 849 c 0
 482.991210938 849 467.991210938 864 434.991210938 892 c 0
EndSplineSet
Validated: 1
EndChar

StartChar: Odieresis
Encoding: 214 214 138
Width: 899
Flags: W
HStem: -12.1963 58.5244<226.338 674.138> 749.443 58.8857<225.707 674.86> 862 81<316.171 393.811 508.171 585.811>
VStem: 74 65.9395<166.339 626.957> 314.991 80<863.18 941.82> 506.991 80<863.18 941.82> 760.043 65.9395<168.453 628.354>
LayerCount: 2
Fore
SplineSet
649.611328125 738.313476562 m 0
 615.708984375 744.375976562 508.907226562 749.443359375 450.991210938 749.443359375 c 0
 392.327148438 749.443359375 283.546875 746.424804688 249.37109375 740.313476562 c 0
 202.170898438 731.875976562 164.138671875 702.958007812 156.014648438 654.682617188 c 0
 142.896484375 576.716796875 139.939453125 503.852539062 139.939453125 397.08203125 c 0
 139.939453125 291.458007812 143.896484375 220.59375 157.014648438 142.626953125 c 0
 165.138671875 94.3525390625 203.170898438 65.435546875 250.37109375 56.9970703125 c 0
 293.580078125 49.271484375 371.990234375 46.328125 450.538085938 46.328125 c 24
 528.9921875 46.328125 607.404296875 47.271484375 650.611328125 54.9970703125 c 0
 697.813476562 63.435546875 735.845703125 92.3525390625 743.967773438 140.626953125 c 0
 757.0859375 218.59375 760.04296875 291.458007812 760.04296875 397.08203125 c 0
 760.04296875 503.852539062 756.0859375 574.716796875 742.967773438 652.682617188 c 0
 734.845703125 700.958007812 696.813476562 729.875976562 649.611328125 738.313476562 c 0
74 396.98828125 m 0
 74 662.784312519 86.0444279338 765.889900487 208.866210938 796.095703125 c 0
 241.791992188 804.193359375 371.490234375 808.329101562 450.991210938 808.329101562 c 0
 529.833007812 808.329101562 658.48046875 804.30859375 691.116210938 796.095703125 c 0
 748.662109375 781.614257812 784.69140625 752.911132812 799.991210938 704 c 0
 820.479492188 638.500976562 825.982421875 524.283203125 825.982421875 396.98828125 c 0
 825.982421875 102.609265343 804.419845932 22.380394366 691.116210938 -0.7861328125 c 0
 645.44140625 -10.1240234375 544.991210938 -12.1962890625 450.671875 -12.1962890625 c 24
 355.991210938 -12.1962890625 254.357421875 -10.9814453125 208.866210938 -0.7861328125 c 0
 76.8670326289 28.7976881882 74 153.620807865 74 396.98828125 c 0
556.991210938 943 m 6
 572.991210938 943 586.991210938 929 586.991210938 913 c 6
 586.991210938 892 l 6
 586.991210938 876 572.991210938 862 556.991210938 862 c 6
 536.991210938 862 l 6
 520.991210938 862 506.991210938 876 506.991210938 892 c 6
 506.991210938 913 l 6
 506.991210938 929 520.991210938 943 536.991210938 943 c 6
 556.991210938 943 l 6
344.991210938 943 m 6
 364.991210938 943 l 6
 380.991210938 943 394.991210938 929 394.991210938 913 c 6
 394.991210938 892 l 6
 394.991210938 876 380.991210938 862 364.991210938 862 c 6
 344.991210938 862 l 6
 328.991210938 862 314.991210938 876 314.991210938 892 c 6
 314.991210938 913 l 6
 314.991210938 929 328.991210938 943 344.991210938 943 c 6
EndSplineSet
Validated: 1
EndChar

StartChar: Oslash
Encoding: 216 216 139
Width: 899
Flags: W
HStem: -12.1963 58.5244<226.445 673.146> 749.443 58.8857<224.716 674.519>
VStem: 73.0088 65.9395<168.566 626.957> 759.052 65.9395<168.453 628.417>
LayerCount: 2
Fore
SplineSet
126.147460938 45.4072265625 m 1
 76.9453346573 102.627054631 73.0087890625 200.899071718 73.0087890625 396.98828125 c 0
 73.0087890625 662.784312516 85.0532169952 765.889900486 207.875 796.095703125 c 0
 240.80078125 804.193359375 370.499023438 808.329101562 450 808.329101562 c 0
 528.841796875 808.329101562 657.489257812 804.30859375 690.125 796.095703125 c 0
 706.79296875 791.901367188 721.655273438 786.513671875 734.731445312 779.788085938 c 1
 778 832 l 1
 848 832 l 1
 776.909179688 746.213867188 l 1
 799.498840038 718.172002576 824.991210938 662.453753602 824.991210938 396.98828125 c 0
 824.991210938 102.609265339 803.428634992 22.3803943652 690.125 -0.7861328125 c 0
 644.450195312 -10.1240234375 544 -12.1962890625 449.680664062 -12.1962890625 c 0
 249.460229073 -12.1962890625 205.651560209 -5.4050221714 168.930664062 12.564453125 c 1
 132 -32 l 1
 62 -32 l 1
 126.147460938 45.4072265625 l 1
648.620117188 738.313476562 m 0
 614.717773438 744.375976562 507.916015625 749.443359375 450 749.443359375 c 0
 391.3359375 749.443359375 282.555664062 746.424804688 248.379882812 740.313476562 c 0
 201.1796875 731.875976562 163.147460938 702.958007812 155.0234375 654.682617188 c 0
 141.905273438 576.716796875 138.948242188 503.852539062 138.948242188 397.08203125 c 0
 138.948242188 291.458007812 142.905273438 220.59375 156.0234375 142.626953125 c 0
 158.668945312 126.904296875 164.48828125 113.234375 172.762695312 101.657226562 c 1
 689.07421875 724.692382812 l 1
 676.8671875 731.159179688 663.1796875 735.7109375 648.620117188 738.313476562 c 0
214.674804688 67.7646484375 m 1
 249.769964312 51.4631453957 328.117661107 46.328125 449.546875 46.328125 c 0
 528.000976562 46.328125 606.413085938 47.271484375 649.620117188 54.9970703125 c 0
 696.822265625 63.435546875 734.854492188 92.3525390625 742.9765625 140.626953125 c 0
 756.094726562 218.59375 759.051757812 291.458007812 759.051757812 397.08203125 c 0
 759.051757812 483.188743407 755.388545678 645.044525738 728.846679688 688.216796875 c 1
 214.674804688 67.7646484375 l 1
EndSplineSet
Validated: 1
EndChar

StartChar: Ugrave
Encoding: 217 217 140
Width: 903
Flags: W
HStem: -12.1963 58.5244<229.669 675.502> 780 20G<75 142 761 828>
VStem: 75 67<111.427 800> 761 67<106.305 800>
LayerCount: 2
Fore
SplineSet
142 324 m 2
 142 51.5363514559 153.467290822 46.328125 452.546875 46.328125 c 24
 633.448532916 46.328125 717.784830989 48.7818989103 745.9765625 118.626953125 c 0
 759.25390625 151.521484375 761 232 761 324 c 10
 761 800 l 1
 828 800 l 1
 828 324 l 18
 828 228 826.173828125 117.428710938 806.59375 78.685546875 c 0
 765.322316351 -2.97927750449 697.998316902 -12.1962890625 452.680664062 -12.1962890625 c 24
 243.792214316 -12.1962890625 142.582055388 -10.4251265408 101.40625 74.685546875 c 0
 79 121 75 186 75 324 c 10
 75 800 l 1
 142 800 l 1
 142 324 l 2
319 968 m 5
 399 968 l 5
 512 840 l 5
 449 840 l 5
 319 968 l 5
EndSplineSet
Validated: 1
EndChar

StartChar: Uacute
Encoding: 218 218 141
Width: 903
Flags: W
HStem: -12.1963 58.5244<229.669 675.502> 780 20G<75 142 761 828>
VStem: 75 67<111.427 800> 761 67<106.305 800>
LayerCount: 2
Fore
SplineSet
142 324 m 2
 142 51.5363514559 153.467290822 46.328125 452.546875 46.328125 c 24
 633.448532916 46.328125 717.784830989 48.7818989103 745.9765625 118.626953125 c 0
 759.25390625 151.521484375 761 232 761 324 c 10
 761 800 l 1
 828 800 l 1
 828 324 l 18
 828 228 826.173828125 117.428710938 806.59375 78.685546875 c 0
 765.322316351 -2.97927750449 697.998316902 -12.1962890625 452.680664062 -12.1962890625 c 24
 243.792214316 -12.1962890625 142.582055388 -10.4251265408 101.40625 74.685546875 c 0
 79 121 75 186 75 324 c 10
 75 800 l 1
 142 800 l 1
 142 324 l 2
587 968 m 1
 457 840 l 1
 394 840 l 1
 507 968 l 1
 587 968 l 1
EndSplineSet
Validated: 1
EndChar

StartChar: Ucircumflex
Encoding: 219 219 142
Width: 903
Flags: W
HStem: -12.1963 58.5244<229.669 675.502> 780 20G<75 142 761 828>
VStem: 75 67<111.427 800> 761 67<106.305 800>
LayerCount: 2
Fore
SplineSet
142 324 m 2
 142 51.5363514559 153.467290822 46.328125 452.546875 46.328125 c 24
 633.448532916 46.328125 717.784830989 48.7818989103 745.9765625 118.626953125 c 0
 759.25390625 151.521484375 761 232 761 324 c 10
 761 800 l 1
 828 800 l 1
 828 324 l 18
 828 228 826.173828125 117.428710938 806.59375 78.685546875 c 0
 765.322316351 -2.97927750449 697.998316902 -12.1962890625 452.680664062 -12.1962890625 c 24
 243.792214316 -12.1962890625 142.582055388 -10.4251265408 101.40625 74.685546875 c 0
 79 121 75 186 75 324 c 10
 75 800 l 1
 142 800 l 1
 142 324 l 2
423 966 m 1
 481 966 l 1
 594 823 l 1
 547 823 l 1
 452 918 l 1
 357 823 l 1
 310 823 l 1
 423 966 l 1
EndSplineSet
Validated: 1
EndChar

StartChar: Udieresis
Encoding: 220 220 143
Width: 903
Flags: W
HStem: -12.1963 58.5244<229.669 675.502> 780 20G<75 142 761 828> 862 81<317.18 394.82 509.18 586.82>
VStem: 75 67<111.427 800> 316 80<863.18 941.82> 508 80<863.18 941.82> 761 67<106.305 800>
LayerCount: 2
Fore
SplineSet
142 324 m 2
 142 51.5363514559 153.467290822 46.328125 452.546875 46.328125 c 24
 633.448532916 46.328125 717.784830989 48.7818989103 745.9765625 118.626953125 c 0
 759.25390625 151.521484375 761 232 761 324 c 10
 761 800 l 1
 828 800 l 1
 828 324 l 18
 828 228 826.173828125 117.428710938 806.59375 78.685546875 c 0
 765.322316351 -2.97927750449 697.998316902 -12.1962890625 452.680664062 -12.1962890625 c 24
 243.792214316 -12.1962890625 142.582055388 -10.4251265408 101.40625 74.685546875 c 0
 79 121 75 186 75 324 c 10
 75 800 l 1
 142 800 l 1
 142 324 l 2
558 943 m 2
 574 943 588 929 588 913 c 2
 588 892 l 2
 588 876 574 862 558 862 c 2
 538 862 l 2
 522 862 508 876 508 892 c 2
 508 913 l 2
 508 929 522 943 538 943 c 2
 558 943 l 2
346 943 m 2
 366 943 l 2
 382 943 396 929 396 913 c 2
 396 892 l 2
 396 876 382 862 366 862 c 2
 346 862 l 2
 330 862 316 876 316 892 c 2
 316 913 l 2
 316 929 330 943 346 943 c 2
EndSplineSet
Validated: 1
EndChar

StartChar: Yacute
Encoding: 221 221 144
Width: 825
Flags: W
HStem: 0 21G<40 124.396 703.554 788> 238 68<244.459 582.774> 792.75 20G<400.493 425.753>
LayerCount: 2
Fore
SplineSet
559 968 m 1
 429 840 l 1
 366 840 l 1
 479 968 l 1
 559 968 l 1
40 0 m 1
 365.344726562 775 l 2
 376.577148438 801.7578125 387.873046875 812.75 413.11328125 812.75 c 0
 438.393554688 812.75 449.415039062 801.752929688 460.712890625 775 c 2
 788 0 l 1
 712 0 l 1
 611.491210938 238 l 1
 215.912109375 238 l 1
 116 0 l 1
 40 0 l 1
244.458984375 306 m 1
 582.774414062 306 l 1
 413.11328125 707.75 l 1
 244.458984375 306 l 1
EndSplineSet
Validated: 1
EndChar

StartChar: Thorn
Encoding: 222 222 145
Width: 743
Flags: W
HStem: -200 21G<75 145> -12 59<145 527.879> 549 59.1816<145 531.868> 780 20G<75 145>
VStem: 75 70<-200 -12 47 549 608.182 800> 608.052 63.9395<128.841 474.059>
LayerCount: 2
Fore
SplineSet
145 -12 m 1
 145 -200 l 1
 75 -200 l 1
 75 800 l 1
 145 800 l 1
 145 608.181640625 l 1
 375 608 l 2
 529.128754803 607.878832572 602.503464907 598.157410152 644 506 c 0
 671.416992188 445.110351562 671.991210938 391.048828125 671.991210938 296.98828125 c 0
 671.991210938 214.609375 664.826171875 140.600585938 642.59375 95.685546875 c 0
 599.418855 8.46142410537 525.422194431 -12 375 -12 c 2
 145 -12 l 1
608.051757812 297.08203125 m 0
 608.051757812 505.688969635 584.819232209 549 375 549 c 2
 145 549 l 25
 145 47 l 25
 375 47 l 2
 511.097474201 47 560.782039863 70.1909323205 585 125 c 0
 601.915039062 163.280273438 608.051757812 191.458007812 608.051757812 297.08203125 c 0
EndSplineSet
Validated: 1
EndChar

StartChar: ccedilla
Encoding: 231 231 146
Width: 704
Flags: W
HStem: -198 45<250.991 460.845> -94 42<338.991 468.146> -12.1963 58.5244<211.79 296.991 338.991 528.242> 549.443 58.8857<207.441 522.289>
VStem: 71 63.9395<122.779 473.027> 296.991 42<-52 -12.0811> 469.744 45.665<-142.158 -101.857> 578.599 62.2979<471.327 502.066> 586.08 61.2803<98.1934 127.662>
LayerCount: 2
Fore
SplineSet
367.538085938 46.328125 m 0xff
 523.752235274 46.328125 564.749197292 68.8521280522 586.080078125 143.041015625 c 1
 647.360351562 125.678710938 l 1xfe80
 611.98327097 -0.296194987674 541.742449673 -12.1962890625 367.671875 -12.1962890625 c 0
 357.853515625 -12.1962890625 348.298828125 -12.1669921875 338.991210938 -12.0810546875 c 1
 338.991210938 -52 l 1
 462.970703125 -52 515.409179688 -59.8935546875 515.409179688 -121 c 0
 515.409179688 -189.20703125 468.000976562 -198 250.991210938 -198 c 1
 250.991210938 -153 l 1
 434.5546875 -153 469.744140625 -148.026367188 469.744140625 -121 c 0
 469.744140625 -96.9365234375 434.875976562 -94 296.991210938 -94 c 1
 296.991210938 -11.1435546875 l 1
 185.357270822 -6.76409683486 131.748248572 12.5005052999 93.3974609375 93.685546875 c 0
 71.9912109375 139 71 214.609375 71 296.98828125 c 0
 71 414.387495444 71 562.927790638 205.866210938 596.095703125 c 0
 238.791992188 604.193359375 292.490234375 608.329101562 371.991210938 608.329101562 c 0
 470.823631582 608.329101562 628.08979761 608.329101562 640.896484375 472.696289062 c 1
 578.598632812 460.5078125 l 1
 570.128554242 499.696174864 551.270873208 549.443359375 371.991210938 549.443359375 c 0
 211.311971267 549.443359375 181.169990948 524.869195029 155.014648438 470.682617188 c 0
 138.502929688 436.473632812 134.939453125 391.004882812 134.939453125 297.08203125 c 0
 134.939453125 191.458007812 137.076171875 166.280273438 153.991210938 128 c 0
 176.198949935 77.7403801639 206.479670374 46.328125 367.538085938 46.328125 c 0xff
EndSplineSet
Validated: 1
EndChar

StartChar: mu
Encoding: 181 181 147
Width: 720
Flags: W
HStem: -200 21G<74 141> -8.3291 58.8857<204.152 493.719> 0 21G<574 638> 580 20G<74 141 574 638>
VStem: 74 67<-200 34.2972 115.625 600> 574 64<0 68.6836 140.418 600>
LayerCount: 2
Fore
SplineSet
339 -8.3291015625 m 0xdc
 249.74333604 -8.3291015625 187.58363942 -4.54836540934 141 34.297229821 c 1
 141 -200 l 1
 74 -200 l 1
 74 600 l 1
 141 600 l 1
 141 303 l 2
 141 170.523357595 141 83.8559078217 236.379882812 59.6865234375 c 0
 269.764872925 51.2267242128 291.083984375 50.556640625 339 50.556640625 c 0xdc
 510.207485944 50.556640625 574 68.2256680007 574 303 c 2
 574 600 l 1
 638 600 l 1
 638 0 l 1
 574 0 l 1xbc
 574 68.68359375 l 1
 529.218203486 -8.3291015625 445.982903457 -8.3291015625 339 -8.3291015625 c 0xdc
EndSplineSet
Validated: 1
EndChar

StartChar: eth
Encoding: 240 240 148
Width: 755
Flags: W
HStem: -12.1963 58.5244<212.239 544.821> 549.443 58.8857<209.714 548.299> 736 64<219.991 406.907>
VStem: 73 63.9395<122.639 473.042> 616.043 64.9395<117.217 482.263>
LayerCount: 2
Fore
SplineSet
377.538085938 46.328125 m 0
 593.901601486 46.328125 616.04296875 79.8723373616 616.04296875 297.08203125 c 0
 616.04296875 380.212890625 611.991210938 444 590.991210938 494 c 0
 580.034975098 520.085768591 567.704547216 549.443359375 377.991210938 549.443359375 c 0
 213.323973394 549.443359375 183.485889736 525.523649249 157.014648438 470.682617188 c 0
 140.502929688 436.473632812 136.939453125 391.004882812 136.939453125 297.08203125 c 0
 136.939453125 191.458007812 139.076171875 166.280273438 155.991210938 128 c 0
 179.613229922 74.5396412469 211.312138668 46.328125 377.538085938 46.328125 c 0
551.420898438 706.833984375 m 1
 609.274594401 638.641025676 680.982421875 544.167516814 680.982421875 296.98828125 c 0
 680.982421875 170.941914471 674.724361799 27.8314992339 546.116210938 -0.7861328125 c 0
 500.609375 -10.912109375 439.991210938 -12.1962890625 377.671875 -12.1962890625 c 0
 206.917287174 -12.1962890625 140.997126002 -2.84469233101 95.3974609375 93.685546875 c 0
 73.9912109375 139 73 214.609375 73 296.98828125 c 0
 73 414.387495443 73 562.927790638 207.866210938 596.095703125 c 0
 240.791992188 604.193359375 298.490234375 608.329101562 377.991210938 608.329101562 c 0
 462.77734375 608.329101562 516.982421875 603.828125 549.310546875 595.271484375 c 1
 531.821289062 628.053710938 508.16015625 660.352539062 473.729492188 685.72265625 c 1
 264.991210938 629 l 1
 240.991210938 674 l 1
 408.485351562 719.514648438 l 1
 377.928710938 729.924804688 341.844726562 736 298.991210938 736 c 2
 219.991210938 736 l 1
 219.991210938 800 l 1
 298.991210938 800 l 2
 388.447265625 800 454.641601562 778.52734375 504.454101562 745.592773438 c 1
 608.991210938 774 l 1
 632.991210938 729 l 1
 551.420898438 706.833984375 l 1
EndSplineSet
Validated: 1
EndChar

StartChar: ntilde
Encoding: 241 241 149
Width: 743
Flags: W
HStem: 0 21G<73 137 600 667> 549.443 58.8857<213.354 532.226> 580 20G<73 137> 673 48<397.326 504.79> 752 48<233.21 340.674>
VStem: 73 64<0 482.075 539.316 600> 174 49<677 742.356> 515 49<730.644 796> 600 67<0 482.921>
LayerCount: 2
Fore
SplineSet
352 720 m 0x9f80
 325 744 319 752 286 752 c 0
 244 752 223 739 223 677 c 1
 174 677 l 1
 174 774 214 800 286 800 c 0
 337 800 350.975585938 784.1328125 386 753 c 0
 413 729 419 721 452 721 c 0
 494 721 515 734 515 796 c 1
 564 796 l 1
 564 699 524 673 452 673 c 0
 401 673 387.024414062 688.8671875 352 720 c 0x9f80
137 539.31640625 m 1
 181.41430082 608.329101562 289.252052524 608.329101562 380 608.329101562 c 0
 519.925883743 608.329101562 603.5298839 597.677934081 644 505 c 0
 666.48828125 453.500976562 666.991210938 398 666.991210938 296.98828125 c 2
 667 0 l 1
 600 0 l 1
 600 297 l 2
 600 436.744617746 599.83285049 516.935666172 498.620117188 540.313476562 c 0
 465.063476562 548.064453125 437.916015625 549.443359375 380 549.443359375 c 0xdf80
 296.311830358 549.443359375 186.534828963 549.443359375 151.0234375 467.682617188 c 0
 139 440 137 391.004882812 137 297 c 2
 137 0 l 1
 73 0 l 1
 73 600 l 1
 137 600 l 1xbf80
 137 539.31640625 l 1
EndSplineSet
Validated: 1
EndChar

StartChar: ograve
Encoding: 242 242 150
Width: 756
Flags: W
HStem: -12.1963 58.5244<212.239 544.821> 549.443 58.8857<209.714 546.777> 780 20G<247.991 361.803>
VStem: 73 63.9395<122.639 473.042> 616.043 64.9395<117.217 484.04>
LayerCount: 2
Fore
SplineSet
247.991210938 800 m 5
 344.991210938 800 l 5
 460.991210938 662 l 5
 388.991210938 662 l 5
 247.991210938 800 l 5
377.538085938 46.328125 m 24
 593.901601486 46.328125 616.04296875 79.8723373616 616.04296875 297.08203125 c 0
 616.04296875 451.591914 611.749727641 520.870451218 508.611328125 539.313476562 c 0
 474.708984375 545.375976562 435.907226562 549.443359375 377.991210938 549.443359375 c 0
 213.323973394 549.443359375 183.485889736 525.523649249 157.014648438 470.682617188 c 0
 140.502929688 436.473632812 136.939453125 391.004882812 136.939453125 297.08203125 c 0
 136.939453125 191.458007812 139.076171875 166.280273438 155.991210938 128 c 0
 179.613229922 74.5396412469 211.312138668 46.328125 377.538085938 46.328125 c 24
377.991210938 608.329101562 m 0
 631.778027283 608.329101562 680.982421875 574.129692445 680.982421875 296.98828125 c 0
 680.982421875 170.941914471 674.724361799 27.8314992339 546.116210938 -0.7861328125 c 0
 500.609375 -10.912109375 439.991210938 -12.1962890625 377.671875 -12.1962890625 c 24
 206.917287174 -12.1962890625 140.997126002 -2.84469233101 95.3974609375 93.685546875 c 0
 73.9912109375 139 73 214.609375 73 296.98828125 c 0
 73 414.387495443 73 562.927790638 207.866210938 596.095703125 c 0
 240.791992188 604.193359375 298.490234375 608.329101562 377.991210938 608.329101562 c 0
EndSplineSet
Validated: 1
EndChar

StartChar: oacute
Encoding: 243 243 151
Width: 756
Flags: W
HStem: -12.1963 58.5244<212.239 544.821> 549.443 58.8857<209.714 546.777> 780 20G<388.18 501.991>
VStem: 73 63.9395<122.639 473.042> 616.043 64.9395<117.217 484.04>
LayerCount: 2
Fore
SplineSet
501.991210938 800 m 1
 360.991210938 662 l 1
 288.991210938 662 l 1
 404.991210938 800 l 1
 501.991210938 800 l 1
377.538085938 46.328125 m 24
 593.901601486 46.328125 616.04296875 79.8723373616 616.04296875 297.08203125 c 0
 616.04296875 451.591914 611.749727641 520.870451218 508.611328125 539.313476562 c 0
 474.708984375 545.375976562 435.907226562 549.443359375 377.991210938 549.443359375 c 0
 213.323973394 549.443359375 183.485889736 525.523649249 157.014648438 470.682617188 c 0
 140.502929688 436.473632812 136.939453125 391.004882812 136.939453125 297.08203125 c 0
 136.939453125 191.458007812 139.076171875 166.280273438 155.991210938 128 c 0
 179.613229922 74.5396412469 211.312138668 46.328125 377.538085938 46.328125 c 24
377.991210938 608.329101562 m 0
 631.778027283 608.329101562 680.982421875 574.129692445 680.982421875 296.98828125 c 0
 680.982421875 170.941914471 674.724361799 27.8314992339 546.116210938 -0.7861328125 c 0
 500.609375 -10.912109375 439.991210938 -12.1962890625 377.671875 -12.1962890625 c 24
 206.917287174 -12.1962890625 140.997126002 -2.84469233101 95.3974609375 93.685546875 c 0
 73.9912109375 139 73 214.609375 73 296.98828125 c 0
 73 414.387495443 73 562.927790638 207.866210938 596.095703125 c 0
 240.791992188 604.193359375 298.490234375 608.329101562 377.991210938 608.329101562 c 0
EndSplineSet
Validated: 1
EndChar

StartChar: ocircumflex
Encoding: 244 244 152
Width: 756
Flags: W
HStem: -12.1963 58.5244<212.239 544.821> 549.443 58.8857<209.714 546.777> 780 20G<326.362 427.62>
VStem: 73 63.9395<122.639 473.042> 616.043 64.9395<117.217 484.04>
LayerCount: 2
Fore
SplineSet
377.538085938 46.328125 m 24
 593.901601486 46.328125 616.04296875 79.8723373616 616.04296875 297.08203125 c 0
 616.04296875 451.591914 611.749727641 520.870451218 508.611328125 539.313476562 c 0
 474.708984375 545.375976562 435.907226562 549.443359375 377.991210938 549.443359375 c 0
 213.323973394 549.443359375 183.485889736 525.523649249 157.014648438 470.682617188 c 0
 140.502929688 436.473632812 136.939453125 391.004882812 136.939453125 297.08203125 c 0
 136.939453125 191.458007812 139.076171875 166.280273438 155.991210938 128 c 0
 179.613229922 74.5396412469 211.312138668 46.328125 377.538085938 46.328125 c 24
377.991210938 608.329101562 m 0
 631.778027283 608.329101562 680.982421875 574.129692445 680.982421875 296.98828125 c 0
 680.982421875 170.941914471 674.724361799 27.8314992339 546.116210938 -0.7861328125 c 0
 500.609375 -10.912109375 439.991210938 -12.1962890625 377.671875 -12.1962890625 c 24
 206.917287174 -12.1962890625 140.997126002 -2.84469233101 95.3974609375 93.685546875 c 0
 73.9912109375 139 73 214.609375 73 296.98828125 c 0
 73 414.387495443 73 562.927790638 207.866210938 596.095703125 c 0
 240.791992188 604.193359375 298.490234375 608.329101562 377.991210938 608.329101562 c 0
341.991210938 800 m 1
 411.991210938 800 l 1
 529.991210938 649 l 1
 481.991210938 649 l 1
 376.991210938 751 l 1
 271.991210938 649 l 1
 223.991210938 649 l 1
 341.991210938 800 l 1
EndSplineSet
Validated: 1
EndChar

StartChar: otilde
Encoding: 245 245 153
Width: 755
Flags: W
HStem: -12.1963 58.5244<212.239 544.821> 549.443 58.8857<209.714 546.777> 673 48<405.317 512.782> 752 48<241.201 348.665>
VStem: 73 63.9395<122.639 473.042> 181.991 49<677 742.356> 522.991 49<730.644 796> 616.043 64.9395<117.217 484.04>
LayerCount: 2
Fore
SplineSet
377.538085938 46.328125 m 24
 593.901601486 46.328125 616.04296875 79.8723373616 616.04296875 297.08203125 c 0
 616.04296875 451.591914 611.749727641 520.870451218 508.611328125 539.313476562 c 0
 474.708984375 545.375976562 435.907226562 549.443359375 377.991210938 549.443359375 c 0
 213.323973394 549.443359375 183.485889736 525.523649249 157.014648438 470.682617188 c 0
 140.502929688 436.473632812 136.939453125 391.004882812 136.939453125 297.08203125 c 0
 136.939453125 191.458007812 139.076171875 166.280273438 155.991210938 128 c 0
 179.613229922 74.5396412469 211.312138668 46.328125 377.538085938 46.328125 c 24
377.991210938 608.329101562 m 0
 631.778027283 608.329101562 680.982421875 574.129692445 680.982421875 296.98828125 c 0
 680.982421875 170.941914471 674.724361799 27.8314992339 546.116210938 -0.7861328125 c 0
 500.609375 -10.912109375 439.991210938 -12.1962890625 377.671875 -12.1962890625 c 24
 206.917287174 -12.1962890625 140.997126002 -2.84469233101 95.3974609375 93.685546875 c 0
 73.9912109375 139 73 214.609375 73 296.98828125 c 0
 73 414.387495443 73 562.927790638 207.866210938 596.095703125 c 0
 240.791992188 604.193359375 298.490234375 608.329101562 377.991210938 608.329101562 c 0
359.991210938 720 m 0
 332.991210938 744 326.991210938 752 293.991210938 752 c 0
 251.991210938 752 230.991210938 739 230.991210938 677 c 1
 181.991210938 677 l 1
 181.991210938 774 221.991210938 800 293.991210938 800 c 0
 344.991210938 800 358.966796875 784.1328125 393.991210938 753 c 0
 420.991210938 729 426.991210938 721 459.991210938 721 c 0
 501.991210938 721 522.991210938 734 522.991210938 796 c 1
 571.991210938 796 l 1
 571.991210938 699 531.991210938 673 459.991210938 673 c 0
 408.991210938 673 395.015625 688.8671875 359.991210938 720 c 0
EndSplineSet
Validated: 1
EndChar

StartChar: odieresis
Encoding: 246 246 154
Width: 756
Flags: W
HStem: -12.1963 58.5244<212.239 544.821> 549.443 58.8857<209.714 546.777> 703 97<246.96 339.022 414.96 507.022>
VStem: 73 63.9395<122.639 473.042> 243.991 98<706.162 796.838> 411.991 98<706.162 796.838> 616.043 64.9395<117.217 484.04>
LayerCount: 2
Fore
SplineSet
377.538085938 46.328125 m 24
 593.901601486 46.328125 616.04296875 79.8723373616 616.04296875 297.08203125 c 0
 616.04296875 451.591914 611.749727641 520.870451218 508.611328125 539.313476562 c 0
 474.708984375 545.375976562 435.907226562 549.443359375 377.991210938 549.443359375 c 0
 213.323973394 549.443359375 183.485889736 525.523649249 157.014648438 470.682617188 c 0
 140.502929688 436.473632812 136.939453125 391.004882812 136.939453125 297.08203125 c 0
 136.939453125 191.458007812 139.076171875 166.280273438 155.991210938 128 c 0
 179.613229922 74.5396412469 211.312138668 46.328125 377.538085938 46.328125 c 24
377.991210938 608.329101562 m 0
 631.778027283 608.329101562 680.982421875 574.129692445 680.982421875 296.98828125 c 0
 680.982421875 170.941914471 674.724361799 27.8314992339 546.116210938 -0.7861328125 c 0
 500.609375 -10.912109375 439.991210938 -12.1962890625 377.671875 -12.1962890625 c 24
 206.917287174 -12.1962890625 140.997126002 -2.84469233101 95.3974609375 93.685546875 c 0
 73.9912109375 139 73 214.609375 73 296.98828125 c 0
 73 414.387495443 73 562.927790638 207.866210938 596.095703125 c 0
 240.791992188 604.193359375 298.490234375 608.329101562 377.991210938 608.329101562 c 0
448.991210938 800 m 2
 472.991210938 800 l 2
 492.991210938 800 509.991210938 784 509.991210938 764 c 2
 509.991210938 739 l 2
 509.991210938 719 492.991210938 703 472.991210938 703 c 2
 448.991210938 703 l 2
 428.991210938 703 411.991210938 719 411.991210938 739 c 2
 411.991210938 764 l 2
 411.991210938 784 428.991210938 800 448.991210938 800 c 2
280.991210938 800 m 2
 304.991210938 800 l 2
 324.991210938 800 341.991210938 784 341.991210938 764 c 2
 341.991210938 739 l 2
 341.991210938 719 324.991210938 703 304.991210938 703 c 2
 280.991210938 703 l 2
 260.991210938 703 243.991210938 719 243.991210938 739 c 2
 243.991210938 764 l 2
 243.991210938 784 260.991210938 800 280.991210938 800 c 2
EndSplineSet
Validated: 1
EndChar

StartChar: oslash
Encoding: 248 248 155
Width: 797
Flags: W
HStem: -12.1963 58.5244<233.079 563.549> 549.443 58.8857<229.722 568.065>
VStem: 93.0088 63.9395<121.996 473.042> 636.052 64.9395<117.217 477.728>
LayerCount: 2
Fore
SplineSet
397.546875 46.328125 m 0
 613.910390547 46.328125 636.051757812 79.8723373584 636.051757812 297.08203125 c 0
 636.051757812 381.686846949 634.764507752 440.736597867 616.666609283 479.878342708 c 1
 213.915445594 77.7715808815 l 1
 243.769113378 57.0403462517 295.117300304 46.328125 397.546875 46.328125 c 0
670 612 m 1
 749 612 l 1
 665.889679364 529.022655877 l 1
 692.805236887 482.652122666 700.991210938 410.02893475 700.991210938 296.98828125 c 0
 700.991210938 170.941914468 694.733150859 27.8314992328 566.125 -0.7861328125 c 0
 520.618164062 -10.912109375 460 -12.1962890625 397.680664062 -12.1962890625 c 0
 278.19896721 -12.1962890625 210.046166615 -7.61757237707 164.26781346 28.2033849589 c 1
 124 -12 l 1
 45 -12 l 1
 127.721739423 70.5893846397 l 1
 123.428977592 77.6720442948 119.341927037 85.3540855528 115.40625 93.685546875 c 0
 94 139 93.0087890625 214.609375 93.0087890625 296.98828125 c 0
 93.0087890625 414.387495445 93.0087890625 562.927790638 227.875 596.095703125 c 0
 260.80078125 604.193359375 318.499023438 608.329101562 398 608.329101562 c 0
 510.250830431 608.329101562 582.478689787 601.638585582 628.128278114 570.195272869 c 1
 670 612 l 1
579.604380243 521.749013235 m 1
 566.091877706 529.844347036 549.353144649 535.60603343 528.620117188 539.313476562 c 0
 494.717773438 545.375976562 455.916015625 549.443359375 398 549.443359375 c 0
 233.332762458 549.443359375 203.4946788 525.523649251 177.0234375 470.682617188 c 0
 160.51171875 436.473632812 156.948242188 391.004882812 156.948242188 297.08203125 c 0
 156.948242188 191.458007812 159.084960938 166.280273438 176 128 c 0
 176.948912707 125.852460716 177.910858961 123.745665086 178.894035616 121.679805159 c 1
 579.604380243 521.749013235 l 1
EndSplineSet
Validated: 1
EndChar

StartChar: agrave
Encoding: 224 224 156
Width: 730
Flags: W
HStem: -12 58<198.479 520.459> 0 21G<590 655> 311 64<179.639 588.351> 549 59<200.972 523.411> 780 20G<259 372.812>
VStem: 63 64<99.061 265.109> 82 62<476.194 499.278> 590 65<0 47 114.999 299.489 360 482.312>
LayerCount: 2
Fore
SplineSet
259 800 m 1x39
 356 800 l 1
 472 662 l 1
 400 662 l 1
 259 800 l 1x39
590 47 m 1
 557.001070269 3.58035561682 523.28031501 -12 360 -12 c 0
 245.596994934 -12 134.048423599 -9.66135811255 89 74 c 0
 65 118 63 145 63 195 c 0xbd
 63 258.306189995 83.6244199161 335.181283201 176 362 c 0
 215 373 283 375 325 375 c 2
 460 375 l 2
 509 375 555 370 590 360 c 1
 587.471371356 488.960060844 556.653689756 526.463201744 483 539 c 0
 449 545 418 549 360 549 c 0
 240.155714871 549 167.742490215 537.184552346 144 462 c 1
 82 478 l 1
 114.797258484 598.25661444 203.418161395 608 360 608 c 0
 486.509034575 608 592.684075785 603.17062738 631 504 c 0
 654 443 655 365 655 297 c 2
 655 0 l 1
 590 0 l 1x7b
 590 47 l 1
350 311 m 2
 232.153846154 311 127 311 127 194 c 0
 127 117.682012758 139.55778982 73.9263336477 239 57 c 0
 282 49 312 46 360 46 c 0
 568.914886595 46 590 86.2585011326 590 293 c 1
 556 306 501 311 451 311 c 2
 350 311 l 2
EndSplineSet
Validated: 1
EndChar

StartChar: aacute
Encoding: 225 225 157
Width: 730
Flags: W
HStem: -12.1963 58.5244<196.357 521.612> 0 21G<589.991 654.991> 311 64<179.496 587.914> 549.443 58.8857<200.504 522.037> 780 20G<353.18 466.991>
VStem: 63 63.9395<99.375 265.513> 81.5166 62.1992<476.199 500.293> 589.991 65<0 47.3037 117.573 298.936 360.101 483.442>
LayerCount: 2
Fore
SplineSet
466.991210938 800 m 1x39
 325.991210938 662 l 1
 253.991210938 662 l 1
 369.991210938 800 l 1
 466.991210938 800 l 1x39
589.991210938 47.3037109375 m 1
 558.548809787 6.47589622979 530.413529267 -12.1962890625 359.671875 -12.1962890625 c 0
 241.651603848 -12.1962890625 133.16231675 -8.0320536507 88.9912109375 74 c 0
 65.2314453125 118.125976562 63 145 63 194.98828125 c 0xbd
 63 253.307387175 81.0860554059 334.965729858 175.991210938 362 c 0
 215.482421875 373.249023438 282.872070312 375 324.991210938 375 c 2
 459.991210938 375 l 2
 508.51953125 375 554.954101562 370.39453125 589.543945312 360.100585938 c 1
 586.684438546 480.403793256 564.190356635 524.725659635 482.611328125 539.313476562 c 0
 448.708984375 545.375976562 417.907226562 549.443359375 359.991210938 549.443359375 c 0
 242.54988945 549.443359375 167.091366816 537.767311324 143.715820312 462 c 1
 81.5166015625 478 l 1
 114.222739492 604.397542328 223.621711477 608.329101562 359.991210938 608.329101562 c 0
 479.929704162 608.329101562 592.600774802 604.788756215 630.991210938 504 c 0
 654.178710938 443.125 654.991210938 365.0078125 654.991210938 297 c 2
 654.991210938 0 l 1
 589.991210938 0 l 1x7b
 589.991210938 47.3037109375 l 1
349.991210938 311 m 2
 231.824815055 311 126.939453125 311 126.939453125 194.08203125 c 0
 126.939453125 113.063025061 141.884043954 74.4278750287 239.37109375 56.9970703125 c 0
 282.580078125 49.271484375 311.986328125 46.328125 359.538085938 46.328125 c 0
 503.972804827 46.328125 544.434778159 66.8207913079 566.991210938 114 c 0
 585.245117188 152.1796875 589.991210938 187.545898438 589.991210938 292.579101562 c 1
 555.768554688 305.120117188 500.70703125 311 450.991210938 311 c 2
 349.991210938 311 l 2
EndSplineSet
Validated: 1
EndChar

StartChar: acircumflex
Encoding: 226 226 158
Width: 729
Flags: W
HStem: -12 58<197.479 519.459> 0 21G<589 654> 311 64<178.639 587.351> 549 59<199.972 522.411> 780 20G<312.371 413.629>
VStem: 62 64<99.061 265.109> 81 62<476.194 499.278> 589 65<0 47 114.999 299.489 360 482.312>
LayerCount: 2
Fore
SplineSet
328 800 m 1x39
 398 800 l 1
 516 649 l 1
 468 649 l 1
 363 751 l 1
 258 649 l 1
 210 649 l 1
 328 800 l 1x39
589 47 m 1
 556.001070269 3.58035561682 522.28031501 -12 359 -12 c 0
 244.596994934 -12 133.048423599 -9.66135811255 88 74 c 0
 64 118 62 145 62 195 c 0xbd
 62 258.306189995 82.6244199161 335.181283201 175 362 c 0
 214 373 282 375 324 375 c 2
 459 375 l 2
 508 375 554 370 589 360 c 1
 586.471371356 488.960060844 555.653689756 526.463201744 482 539 c 0
 448 545 417 549 359 549 c 0
 239.155714871 549 166.742490215 537.184552346 143 462 c 1
 81 478 l 1
 113.797258484 598.25661444 202.418161395 608 359 608 c 0
 485.509034575 608 591.684075785 603.17062738 630 504 c 0
 653 443 654 365 654 297 c 2
 654 0 l 1
 589 0 l 1x7b
 589 47 l 1
349 311 m 2
 231.153846154 311 126 311 126 194 c 0
 126 117.682012758 138.55778982 73.9263336477 238 57 c 0
 281 49 311 46 359 46 c 0
 567.914886595 46 589 86.2585011326 589 293 c 1
 555 306 500 311 450 311 c 2
 349 311 l 2
EndSplineSet
Validated: 1
EndChar

StartChar: atilde
Encoding: 227 227 159
Width: 729
Flags: W
HStem: -12 58<197.479 519.459> 0 21G<589 654> 311 64<178.639 587.351> 549 59<199.972 522.411> 673 48<384.326 491.79> 752 48<220.21 327.674>
VStem: 62 64<99.061 265.109> 81 62<476.194 499.278> 161 49<677 742.356> 502 49<730.644 796> 589 65<0 47 114.999 299.489 360 482.312>
LayerCount: 2
Fore
SplineSet
339 720 m 0x3ce0
 312 744 306 752 273 752 c 0
 231 752 210 739 210 677 c 1
 161 677 l 1
 161 774 201 800 273 800 c 0
 324 800 337.975585938 784.1328125 373 753 c 0
 400 729 406 721 439 721 c 0
 481 721 502 734 502 796 c 1
 551 796 l 1
 551 699 511 673 439 673 c 0
 388 673 374.024414062 688.8671875 339 720 c 0x3ce0
589 47 m 1
 556.001070269 3.58035561682 522.28031501 -12 359 -12 c 0
 244.596994934 -12 133.048423599 -9.66135811255 88 74 c 0
 64 118 62 145 62 195 c 0xbee0
 62 258.306189995 82.6244199161 335.181283201 175 362 c 0
 214 373 282 375 324 375 c 2
 459 375 l 2
 508 375 554 370 589 360 c 1
 586.471371356 488.960060844 555.653689756 526.463201744 482 539 c 0
 448 545 417 549 359 549 c 0
 239.155714871 549 166.742490215 537.184552346 143 462 c 1
 81 478 l 1
 113.797258484 598.25661444 202.418161395 608 359 608 c 0
 485.509034575 608 591.684075785 603.17062738 630 504 c 0
 653 443 654 365 654 297 c 2
 654 0 l 1
 589 0 l 1x7de0
 589 47 l 1
349 311 m 2
 231.153846154 311 126 311 126 194 c 0
 126 117.682012758 138.55778982 73.9263336477 238 57 c 0
 281 49 311 46 359 46 c 0
 567.914886595 46 589 86.2585011326 589 293 c 1
 555 306 500 311 450 311 c 2
 349 311 l 2
EndSplineSet
Validated: 1
EndChar

StartChar: adieresis
Encoding: 228 228 160
Width: 730
Flags: W
HStem: -12.1963 58.5244<196.357 521.612> 0 21G<589.991 654.991> 311 64<179.496 587.914> 549.443 58.8857<200.504 522.037> 703 97<233.96 326.022 401.96 494.022>
VStem: 63 63.9395<99.375 265.513> 81.5166 62.1992<476.199 500.293> 230.991 98<706.162 796.838> 398.991 98<706.162 796.838> 589.991 65<0 47.3037 117.573 298.936 360.101 483.442>
LayerCount: 2
Fore
SplineSet
435.991210938 800 m 2x39c0
 459.991210938 800 l 2
 479.991210938 800 496.991210938 784 496.991210938 764 c 2
 496.991210938 739 l 2
 496.991210938 719 479.991210938 703 459.991210938 703 c 2
 435.991210938 703 l 2
 415.991210938 703 398.991210938 719 398.991210938 739 c 2
 398.991210938 764 l 2
 398.991210938 784 415.991210938 800 435.991210938 800 c 2x39c0
267.991210938 800 m 2
 291.991210938 800 l 2
 311.991210938 800 328.991210938 784 328.991210938 764 c 2
 328.991210938 739 l 2
 328.991210938 719 311.991210938 703 291.991210938 703 c 2
 267.991210938 703 l 2
 247.991210938 703 230.991210938 719 230.991210938 739 c 2
 230.991210938 764 l 2
 230.991210938 784 247.991210938 800 267.991210938 800 c 2
589.991210938 47.3037109375 m 1
 558.548809787 6.47589622979 530.413529267 -12.1962890625 359.671875 -12.1962890625 c 0
 241.651603848 -12.1962890625 133.16231675 -8.0320536507 88.9912109375 74 c 0
 65.2314453125 118.125976562 63 145 63 194.98828125 c 0xbdc0
 63 253.307387175 81.0860554059 334.965729858 175.991210938 362 c 0
 215.482421875 373.249023438 282.872070312 375 324.991210938 375 c 2
 459.991210938 375 l 2
 508.51953125 375 554.954101562 370.39453125 589.543945312 360.100585938 c 1
 586.684438546 480.403793256 564.190356635 524.725659635 482.611328125 539.313476562 c 0
 448.708984375 545.375976562 417.907226562 549.443359375 359.991210938 549.443359375 c 0
 242.54988945 549.443359375 167.091366816 537.767311324 143.715820312 462 c 1
 81.5166015625 478 l 1
 114.222739492 604.397542328 223.621711477 608.329101562 359.991210938 608.329101562 c 0
 479.929704162 608.329101562 592.600774802 604.788756215 630.991210938 504 c 0
 654.178710938 443.125 654.991210938 365.0078125 654.991210938 297 c 2
 654.991210938 0 l 1
 589.991210938 0 l 1x7bc0
 589.991210938 47.3037109375 l 1
349.991210938 311 m 2
 231.824815055 311 126.939453125 311 126.939453125 194.08203125 c 0
 126.939453125 113.063025061 141.884043954 74.4278750287 239.37109375 56.9970703125 c 0
 282.580078125 49.271484375 311.986328125 46.328125 359.538085938 46.328125 c 0
 503.972804827 46.328125 544.434778159 66.8207913079 566.991210938 114 c 0
 585.245117188 152.1796875 589.991210938 187.545898438 589.991210938 292.579101562 c 1
 555.768554688 305.120117188 500.70703125 311 450.991210938 311 c 2
 349.991210938 311 l 2
EndSplineSet
Validated: 1
EndChar

StartChar: aring
Encoding: 229 229 161
Width: 729
Flags: W
HStem: -12.1963 58.5244<195.357 520.612> 0 21G<588.991 653.991> 311 64<178.496 586.914> 549.443 58.8857<199.504 521.037> 636 36<315.775 403.299> 764 36<314.496 404.526>
VStem: 62 63.9395<99.375 265.513> 80.5166 62.1992<476.199 500.293> 276.991 35<674.929 761.216> 406.991 36<674.784 761.216> 588.991 65<0 47.3037 117.573 298.936 360.101 483.442>
LayerCount: 2
Fore
SplineSet
331.991210938 800 m 6x3ce0
 386.991210938 800 l 6
 416.991210938 800 442.991210938 775 442.991210938 745 c 6
 442.991210938 691 l 6
 442.991210938 661 416.991210938 636 386.991210938 636 c 6
 331.991210938 636 l 6
 301.991210938 636 276.991210938 661 276.991210938 691 c 6
 276.991210938 745 l 6
 276.991210938 775 301.991210938 800 331.991210938 800 c 6x3ce0
343.991210938 764 m 6
 323.991210938 764 311.991210938 752 311.991210938 733 c 6
 311.991210938 704 l 6
 311.991210938 685 323.991210938 672 343.991210938 672 c 6
 374.991210938 672 l 6
 394.991210938 672 406.991210938 685 406.991210938 704 c 6
 406.991210938 733 l 6
 406.991210938 752 394.991210938 764 374.991210938 764 c 6
 343.991210938 764 l 6
588.991210938 47.3037109375 m 1
 557.548809787 6.47589622979 529.413529267 -12.1962890625 358.671875 -12.1962890625 c 0
 240.651603848 -12.1962890625 132.16231675 -8.0320536507 87.9912109375 74 c 0
 64.2314453125 118.125976562 62 145 62 194.98828125 c 0xbee0
 62 253.307387175 80.0860554059 334.965729858 174.991210938 362 c 0
 214.482421875 373.249023438 281.872070312 375 323.991210938 375 c 2
 458.991210938 375 l 2
 507.51953125 375 553.954101562 370.39453125 588.543945312 360.100585938 c 1
 585.684438546 480.403793256 563.190356635 524.725659635 481.611328125 539.313476562 c 0
 447.708984375 545.375976562 416.907226562 549.443359375 358.991210938 549.443359375 c 0
 241.54988945 549.443359375 166.091366816 537.767311324 142.715820312 462 c 1
 80.5166015625 478 l 1
 113.222739492 604.397542328 222.621711477 608.329101562 358.991210938 608.329101562 c 0
 478.929704162 608.329101562 591.600774802 604.788756215 629.991210938 504 c 0
 653.178710938 443.125 653.991210938 365.0078125 653.991210938 297 c 2
 653.991210938 0 l 1
 588.991210938 0 l 1x7de0
 588.991210938 47.3037109375 l 1
348.991210938 311 m 2
 230.824815055 311 125.939453125 311 125.939453125 194.08203125 c 0
 125.939453125 113.063025061 140.884043954 74.4278750287 238.37109375 56.9970703125 c 0
 281.580078125 49.271484375 310.986328125 46.328125 358.538085938 46.328125 c 0
 502.972804827 46.328125 543.434778159 66.8207913079 565.991210938 114 c 0
 584.245117188 152.1796875 588.991210938 187.545898438 588.991210938 292.579101562 c 1
 554.768554688 305.120117188 499.70703125 311 449.991210938 311 c 2
 348.991210938 311 l 2
EndSplineSet
Validated: 1
EndChar

StartChar: ae
Encoding: 230 230 162
Width: 1192
Flags: W
HStem: -12.1963 58.5244<191.171 507.059 709.206 1011.51> 286 64<171.475 569.991 636.493 1061.49> 549.443 58.8857<190.97 504.232 705.761 992.653>
VStem: 64 63.9395<99.837 246.85> 82.5166 62.1992<476.199 505.614> 571.991 64<122.817 286 350 473.339> 1061.49 65.4941<92.5317 120.279 350 479.696>
LayerCount: 2
Fore
SplineSet
341.991210938 286 m 2xf6
 189.302759136 286 127.939453125 274.450013546 127.939453125 173.08203125 c 0
 127.939453125 141.939453125 134.061523438 117.0625 148.991210938 100 c 0
 185.991946109 57.713445519 231.141523122 46.328125 350.538085938 46.328125 c 0
 471.34977214 46.328125 519.177965235 53.7339931603 547.991210938 114 c 0
 566.245117188 152.1796875 571.991210938 180.966796875 571.991210938 286 c 1
 341.991210938 286 l 2xf6
601.9453125 78.75390625 m 1
 565.321420668 0.645395811956 490.116292934 -12.1962890625 350.671875 -12.1962890625 c 0
 207.626615454 -12.1962890625 135.362229874 2.74024602016 92.9912109375 61 c 0
 68.9912109375 94 64 124 64 173.98828125 c 0xf6
 64 221 71.9287109375 252.654296875 92.9912109375 281 c 0
 120.541649291 318.077755133 163.001322772 350 316.991210938 350 c 2
 569.991210938 350 l 1
 567.847910349 440.17147231 565.130584012 517.012456541 471.611328125 540.313476562 c 0
 437.559570312 548.797851562 408.907226562 549.443359375 350.991210938 549.443359375 c 0
 221.215902016 549.443359375 170.706662729 546.24428702 144.715820312 462 c 1
 82.5166015625 478 l 1xee
 115.45063922 605.278293382 228.596325765 608.329101562 350.991210938 608.329101562 c 0
 456.905298951 608.329101562 561.94595091 604.837550504 605.802734375 518.032226562 c 1
 645.627716393 594.827366282 706.832775046 608.329101562 857.991210938 608.329101562 c 0
 957.586498252 608.329101562 1049.10268041 606.513898927 1100.99121094 503 c 0
 1126.84667969 451.419921875 1126.98242188 391.094726562 1126.98242188 322.98828125 c 0
 1126.98242188 306.975585938 1125.99121094 294 1124.02441406 286 c 1
 635.991210938 286 l 1
 635.991210938 272.303710938 l 2
 636.3984375 187.171875 639.485351562 163.090820312 654.991210938 128 c 0
 675.385143819 81.8453097955 699.015856024 46.328125 858.538085938 46.328125 c 0
 1009.86681079 46.328125 1044.55451038 72.0987076484 1065.55273438 138 c 1
 1125.10742188 118 l 1
 1089.42572337 1.48251802721 1026.85333935 -12.1962890625 858.671875 -12.1962890625 c 0
 704.43894222 -12.1962890625 645.295596154 -1.12188255003 601.9453125 78.75390625 c 1
1061.48828125 365 m 0
 1061.48828125 534.31730054 981.042476403 549.443359375 857.991210938 549.443359375 c 0
 720.072249836 549.443359375 685.867371908 532.529137588 656.014648438 470.682617188 c 0
 642.95703125 443.62890625 637.997070312 409.533203125 636.493164062 350 c 1
 1059.99121094 350 l 1
 1060.99121094 354 1061.48828125 361.392578125 1061.48828125 365 c 0
EndSplineSet
Validated: 1
EndChar

StartChar: egrave
Encoding: 232 232 163
Width: 711
Flags: W
HStem: -12.1963 58.5244<210.581 528.208> 286 64<135.493 580.488> 549.443 58.8857<207.049 513.907> 780 20G<246.991 360.803>
VStem: 71 63.9482<123.344 286 350 472.853> 580.488 65.4941<92.2254 120.279 350 477.678>
LayerCount: 2
Fore
SplineSet
246.991210938 800 m 1
 343.991210938 800 l 1
 459.991210938 662 l 1
 387.991210938 662 l 1
 246.991210938 800 l 1
557.991210938 480 m 0
 532.669748428 532.132422814 494.542637516 549.443359375 366.991210938 549.443359375 c 0
 211.081956337 549.443359375 180.700256813 523.896036859 155.014648438 470.682617188 c 0
 141.95703125 443.62890625 136.997070312 409.533203125 135.493164062 350 c 1
 578.991210938 350 l 1
 579.991210938 354 580.48828125 361.392578125 580.48828125 365 c 0
 580.48828125 415.8359375 572.078125 450.998046875 557.991210938 480 c 0
645.107421875 118 m 1
 608.954778934 -0.0553370301005 540.274811567 -12.1962890625 367.671875 -12.1962890625 c 0
 205.829033346 -12.1962890625 138.814290688 -2.45764701815 93.3974609375 93.685546875 c 0
 71.9912109375 139 71 214.609375 71 296.98828125 c 0
 71 414.387495444 71 562.927790638 205.866210938 596.095703125 c 0
 238.791992188 604.193359375 287.490234375 608.329101562 366.991210938 608.329101562 c 0
 562.311303259 608.329101562 645.982421875 581.709030692 645.982421875 322.98828125 c 0
 645.982421875 306.975585938 644.991210938 294 643.024414062 286 c 1
 134.948242188 286 l 1
 135.112304688 189.630859375 137.684570312 164.904296875 153.991210938 128 c 0
 176.198949935 77.7403801639 206.479670374 46.328125 367.538085938 46.328125 c 0
 524.790497058 46.328125 562.787398304 69.6911859589 584.552734375 138 c 1
 645.107421875 118 l 1
EndSplineSet
Validated: 1
EndChar

StartChar: eacute
Encoding: 233 233 164
Width: 711
Flags: W
HStem: -12.1963 58.5244<210.581 528.208> 286 64<135.493 580.488> 549.443 58.8857<207.049 513.907> 780 20G<370.18 483.991>
VStem: 71 63.9482<123.344 286 350 472.853> 580.488 65.4941<92.2254 120.279 350 477.678>
LayerCount: 2
Fore
SplineSet
483.991210938 800 m 1
 342.991210938 662 l 1
 270.991210938 662 l 1
 386.991210938 800 l 1
 483.991210938 800 l 1
557.991210938 480 m 0
 532.669748428 532.132422814 494.542637516 549.443359375 366.991210938 549.443359375 c 0
 211.081956337 549.443359375 180.700256813 523.896036859 155.014648438 470.682617188 c 0
 141.95703125 443.62890625 136.997070312 409.533203125 135.493164062 350 c 1
 578.991210938 350 l 1
 579.991210938 354 580.48828125 361.392578125 580.48828125 365 c 0
 580.48828125 415.8359375 572.078125 450.998046875 557.991210938 480 c 0
645.107421875 118 m 1
 608.954778934 -0.0553370301005 540.274811567 -12.1962890625 367.671875 -12.1962890625 c 0
 205.829033346 -12.1962890625 138.814290688 -2.45764701815 93.3974609375 93.685546875 c 0
 71.9912109375 139 71 214.609375 71 296.98828125 c 0
 71 414.387495444 71 562.927790638 205.866210938 596.095703125 c 0
 238.791992188 604.193359375 287.490234375 608.329101562 366.991210938 608.329101562 c 0
 562.311303259 608.329101562 645.982421875 581.709030692 645.982421875 322.98828125 c 0
 645.982421875 306.975585938 644.991210938 294 643.024414062 286 c 1
 134.948242188 286 l 1
 135.112304688 189.630859375 137.684570312 164.904296875 153.991210938 128 c 0
 176.198949935 77.7403801639 206.479670374 46.328125 367.538085938 46.328125 c 0
 524.790497058 46.328125 562.787398304 69.6911859589 584.552734375 138 c 1
 645.107421875 118 l 1
EndSplineSet
Validated: 1
EndChar

StartChar: ecircumflex
Encoding: 234 234 165
Width: 711
Flags: W
HStem: -12.1963 58.5244<210.581 528.208> 286 64<135.493 580.488> 549.443 58.8857<207.049 513.907> 780 20G<310.362 411.62>
VStem: 71 63.9482<123.344 286 350 472.853> 580.488 65.4941<92.2254 120.279 350 477.678>
LayerCount: 2
Fore
SplineSet
325.991210938 800 m 1
 395.991210938 800 l 1
 513.991210938 649 l 1
 465.991210938 649 l 1
 360.991210938 751 l 1
 255.991210938 649 l 1
 207.991210938 649 l 1
 325.991210938 800 l 1
557.991210938 480 m 0
 532.669748428 532.132422814 494.542637516 549.443359375 366.991210938 549.443359375 c 0
 211.081956337 549.443359375 180.700256813 523.896036859 155.014648438 470.682617188 c 0
 141.95703125 443.62890625 136.997070312 409.533203125 135.493164062 350 c 1
 578.991210938 350 l 1
 579.991210938 354 580.48828125 361.392578125 580.48828125 365 c 0
 580.48828125 415.8359375 572.078125 450.998046875 557.991210938 480 c 0
645.107421875 118 m 1
 608.954778934 -0.0553370301005 540.274811567 -12.1962890625 367.671875 -12.1962890625 c 0
 205.829033346 -12.1962890625 138.814290688 -2.45764701815 93.3974609375 93.685546875 c 0
 71.9912109375 139 71 214.609375 71 296.98828125 c 0
 71 414.387495444 71 562.927790638 205.866210938 596.095703125 c 0
 238.791992188 604.193359375 287.490234375 608.329101562 366.991210938 608.329101562 c 0
 562.311303259 608.329101562 645.982421875 581.709030692 645.982421875 322.98828125 c 0
 645.982421875 306.975585938 644.991210938 294 643.024414062 286 c 1
 134.948242188 286 l 1
 135.112304688 189.630859375 137.684570312 164.904296875 153.991210938 128 c 0
 176.198949935 77.7403801639 206.479670374 46.328125 367.538085938 46.328125 c 0
 524.790497058 46.328125 562.787398304 69.6911859589 584.552734375 138 c 1
 645.107421875 118 l 1
EndSplineSet
Validated: 1
EndChar

StartChar: edieresis
Encoding: 235 235 166
Width: 711
Flags: W
HStem: -12.1963 58.5244<210.581 528.208> 286 64<135.493 580.488> 549.443 58.8857<207.049 513.907> 703 97<232.96 325.022 400.96 493.022>
VStem: 71 63.9482<123.344 286 350 472.853> 229.991 98<706.162 796.838> 397.991 98<706.162 796.838> 580.488 65.4941<92.2254 120.279 350 477.678>
LayerCount: 2
Fore
SplineSet
434.991210938 800 m 2
 458.991210938 800 l 2
 478.991210938 800 495.991210938 784 495.991210938 764 c 2
 495.991210938 739 l 2
 495.991210938 719 478.991210938 703 458.991210938 703 c 2
 434.991210938 703 l 2
 414.991210938 703 397.991210938 719 397.991210938 739 c 2
 397.991210938 764 l 2
 397.991210938 784 414.991210938 800 434.991210938 800 c 2
266.991210938 800 m 2
 290.991210938 800 l 2
 310.991210938 800 327.991210938 784 327.991210938 764 c 2
 327.991210938 739 l 2
 327.991210938 719 310.991210938 703 290.991210938 703 c 2
 266.991210938 703 l 2
 246.991210938 703 229.991210938 719 229.991210938 739 c 2
 229.991210938 764 l 2
 229.991210938 784 246.991210938 800 266.991210938 800 c 2
557.991210938 480 m 0
 532.669748428 532.132422814 494.542637516 549.443359375 366.991210938 549.443359375 c 0
 211.081956337 549.443359375 180.700256813 523.896036859 155.014648438 470.682617188 c 0
 141.95703125 443.62890625 136.997070312 409.533203125 135.493164062 350 c 1
 578.991210938 350 l 1
 579.991210938 354 580.48828125 361.392578125 580.48828125 365 c 0
 580.48828125 415.8359375 572.078125 450.998046875 557.991210938 480 c 0
645.107421875 118 m 1
 608.954778934 -0.0553370301005 540.274811567 -12.1962890625 367.671875 -12.1962890625 c 0
 205.829033346 -12.1962890625 138.814290688 -2.45764701815 93.3974609375 93.685546875 c 0
 71.9912109375 139 71 214.609375 71 296.98828125 c 0
 71 414.387495444 71 562.927790638 205.866210938 596.095703125 c 0
 238.791992188 604.193359375 287.490234375 608.329101562 366.991210938 608.329101562 c 0
 562.311303259 608.329101562 645.982421875 581.709030692 645.982421875 322.98828125 c 0
 645.982421875 306.975585938 644.991210938 294 643.024414062 286 c 1
 134.948242188 286 l 1
 135.112304688 189.630859375 137.684570312 164.904296875 153.991210938 128 c 0
 176.198949935 77.7403801639 206.479670374 46.328125 367.538085938 46.328125 c 0
 524.790497058 46.328125 562.787398304 69.6911859589 584.552734375 138 c 1
 645.107421875 118 l 1
EndSplineSet
Validated: 1
EndChar

StartChar: igrave
Encoding: 236 236 167
Width: 224
VWidth: 800
Flags: W
HStem: 0 21G<74 144> 580 20G<74 144> 780 20G<-56 57.8116>
VStem: 74 70<0 600>
LayerCount: 2
Fore
SplineSet
-56 800 m 1
 41 800 l 1
 157 662 l 1
 85 662 l 1
 -56 800 l 1
74 600 m 1
 144 600 l 1
 144 0 l 1
 74 0 l 1
 74 600 l 1
EndSplineSet
Validated: 1
EndChar

StartChar: iacute
Encoding: 237 237 168
Width: 224
VWidth: 800
Flags: W
HStem: 0 21G<74 144> 580 20G<74 144> 780 20G<160.188 274>
VStem: 74 70<0 600>
LayerCount: 2
Fore
SplineSet
274 800 m 1
 133 662 l 1
 61 662 l 1
 177 800 l 1
 274 800 l 1
74 600 m 1
 144 600 l 1
 144 0 l 1
 74 0 l 1
 74 600 l 1
EndSplineSet
Validated: 1
EndChar

StartChar: icircumflex
Encoding: 238 238 169
Width: 224
Flags: W
HStem: 0 21G<74 144> 580 20G<74 144> 780 20G<58.3709 159.629>
VStem: 74 70<0 600>
LayerCount: 2
Fore
SplineSet
74 600 m 5
 144 600 l 5
 144 0 l 5
 74 0 l 5
 74 600 l 5
74 800 m 1
 144 800 l 1
 262 649 l 1
 214 649 l 1
 109 751 l 1
 4 649 l 1
 -44 649 l 1
 74 800 l 1
EndSplineSet
Validated: 1
EndChar

StartChar: idieresis
Encoding: 239 239 170
Width: 224
VWidth: 800
Flags: W
HStem: 0 21G<74 144> 580 20G<74 144> 703 97<-21.0312 71.0312 146.969 239.031>
VStem: -24 98<706.162 796.838> 74 70<0 600> 144 98<706.162 796.838>
LayerCount: 2
Fore
SplineSet
181 800 m 2xe4
 205 800 l 2
 225 800 242 784 242 764 c 2
 242 739 l 2
 242 719 225 703 205 703 c 2
 181 703 l 2
 161 703 144 719 144 739 c 2
 144 764 l 2
 144 784 161 800 181 800 c 2xe4
13 800 m 2
 37 800 l 2
 57 800 74 784 74 764 c 2
 74 739 l 2
 74 719 57 703 37 703 c 2
 13 703 l 2
 -7 703 -24 719 -24 739 c 2
 -24 764 l 2xf0
 -24 784 -7 800 13 800 c 2
74 600 m 1xe8
 144 600 l 1
 144 0 l 1
 74 0 l 1
 74 600 l 1xe8
EndSplineSet
Validated: 1
EndChar

StartChar: thorn
Encoding: 254 254 171
Width: 742
Flags: W
HStem: -200 21G<75 145> -12.1963 58.5244<208.865 528.497> 549.443 58.8857<217.211 535.051> 791 20G<75 145>
VStem: 75 70<-200 45.4062 104.447 483.76 552.182 811> 611.052 66.9395<129.058 468.636>
LayerCount: 2
Fore
SplineSet
145 552.181640625 m 1
 176.204412675 581.983817859 222.952474112 608.329101562 375 608.329101562 c 0
 529.292258016 608.329101562 605.783475913 596.093857039 645 509 c 0
 672.416992188 448.110351562 677.991210938 393.048828125 677.991210938 295.98828125 c 0
 677.991210938 203.933161377 675.218925779 41.6669830668 535 4 c 0
 489.9765625 -8.0947265625 439 -12.1962890625 375.319335938 -12.1962890625 c 0
 238.73287243 -12.1962890625 186.964269577 -0.104103042041 145 45.40625 c 1
 145 -200 l 1
 75 -200 l 1
 75 811 l 1
 145 811 l 1
 145 552.181640625 l 1
375 549.443359375 m 0
 148.485709758 549.443359375 145.664850495 483.973848228 145 333.151367188 c 2
 145 251.577148438 l 2
 145.275390625 175.307617188 148.543945312 133.018554688 160 113 c 0
 196.407963558 49.3812330626 275.027166059 46.328125 375.453125 46.328125 c 0
 521.984488799 46.328125 565.840046773 78.4640982234 588 125 c 0
 605.993164062 162.78515625 611.051757812 191.458007812 611.051757812 297.08203125 c 0
 611.051757812 464.492097947 583.960517775 523.8792792 497.620117188 539.313476562 c 0
 463.444335938 545.424804688 433.6640625 549.443359375 375 549.443359375 c 0
EndSplineSet
Validated: 1
EndChar

StartChar: ydieresis
Encoding: 255 255 172
Width: 700
Flags: W
HStem: -200 64<144.5 277.217> 580 20G<67 151.972 549.825 633.5> 703 97<225.469 317.531 393.469 485.531>
VStem: 222.5 98<706.162 796.838> 390.5 98<706.162 796.838>
LayerCount: 2
Fore
SplineSet
427.5 800 m 2
 451.5 800 l 2
 471.5 800 488.5 784 488.5 764 c 2
 488.5 739 l 2
 488.5 719 471.5 703 451.5 703 c 2
 427.5 703 l 2
 407.5 703 390.5 719 390.5 739 c 2
 390.5 764 l 2
 390.5 784 407.5 800 427.5 800 c 2
259.5 800 m 2
 283.5 800 l 2
 303.5 800 320.5 784 320.5 764 c 2
 320.5 739 l 2
 320.5 719 303.5 703 283.5 703 c 2
 259.5 703 l 2
 239.5 703 222.5 719 222.5 739 c 2
 222.5 764 l 2
 222.5 784 239.5 800 259.5 800 c 2
633.5 600 m 1
 352.5 -133 l 2
 335.615234375 -177.043945312 300.5 -200 254.5 -200 c 2
 144.5 -200 l 5
 144.5 -136 l 5
 225.5 -136 l 2
 260.5 -136 279.752929688 -121.708984375 292.5 -89 c 2
 331.51171875 11.10546875 l 1
 67 600 l 1
 143 600 l 1
 366.3984375 102.016601562 l 1
 557.5 600 l 1
 633.5 600 l 1
EndSplineSet
Validated: 1
EndChar

StartChar: copyright
Encoding: 169 169 173
Width: 940
Flags: W
HStem: -12.1963 51.4932<254.303 688.03> 107.128 58.5732<325.675 620.522> 620.099 58.9062<323.688 617.662> 756.475 51.8545<252.766 687.972>
VStem: 74.0088 59.7383<171.371 619.918> 199.603 63.084<230.178 554.912> 668.222 62.5537<206.591 239.5 549.946 577.43> 806.253 59.7383<171.677 620.748>
LayerCount: 2
Fore
SplineSet
472.762695312 165.701171875 m 0
 601.514755134 165.701171875 653.058930008 182.119097186 668.221679688 251.12890625 c 1
 730.775390625 238.034179688 l 1
 704.002586223 109.316598716 605.336009047 107.127929688 473.014648438 107.127929688 c 0
 322.891698698 107.127929688 261.880119346 116.571946086 220.243164062 204.708984375 c 0
 200.515625 246.470703125 199.602539062 316.15234375 199.602539062 392.072265625 c 0
 199.602539062 500.274748323 199.602539062 637.16194955 323.895507812 667.73046875 c 0
 354.239257812 675.193359375 403.727539062 679.004882812 476.995117188 679.004882812 c 0
 593.531477547 679.004882812 713.397809326 672.042987054 724.818359375 551.125 c 1
 663.385742188 539.774414062 l 1
 655.73370141 575.170058652 638.70272646 620.098632812 476.783203125 620.098632812 c 0
 331.688225199 620.098632812 304.446049302 597.918431532 280.818359375 548.96484375 c 0
 265.905273438 518.068359375 262.686523438 477.001953125 262.686523438 392.173828125 c 0
 262.686523438 296.77734375 264.616210938 274.038085938 279.893554688 239.46484375 c 0
 299.48358453 195.12974776 325.664789949 165.701171875 472.762695312 165.701171875 c 0
693.612304688 745.122070312 m 0
 659.032226562 751.305664062 530.094726562 756.474609375 471.01953125 756.474609375 c 0
 411.182617188 756.474609375 280.2265625 753.395507812 245.3671875 747.162109375 c 0
 197.223632812 738.555664062 158.430664062 709.059570312 150.143554688 659.818359375 c 0
 136.763671875 580.29296875 133.747070312 505.971679688 133.747070312 397.06640625 c 0
 133.747070312 289.329101562 137.783203125 217.047851562 151.1640625 137.521484375 c 0
 159.450195312 88.2822265625 198.243164062 58.7861328125 246.387695312 50.1796875 c 0
 290.4609375 42.298828125 390.439453125 39.296875 470.557617188 39.296875 c 24
 550.581054688 39.296875 650.561523438 40.2587890625 694.6328125 48.1396484375 c 0
 742.778320312 56.74609375 781.571289062 86.2421875 789.856445312 135.481445312 c 0
 803.236328125 215.0078125 806.252929688 289.329101562 806.252929688 397.06640625 c 0
 806.252929688 505.971679688 802.216796875 578.252929688 788.8359375 657.778320312 c 0
 780.551757812 707.01953125 741.758789062 736.515625 693.612304688 745.122070312 c 0
74.0087890625 396.98828125 m 0
 74.0087890625 662.784552128 86.0530124201 765.889084289 208.875 796.095703125 c 0
 241.800298542 804.19329186 391.499023438 808.329101562 471 808.329101562 c 0
 549.841796875 808.329101562 698.489257812 804.30859375 731.125 796.095703125 c 0
 788.670898438 781.614257812 824.700195312 752.911132812 840 704 c 0
 860.48828125 638.500976562 865.991210938 524.283203125 865.991210938 396.98828125 c 0
 865.991210938 102.609265339 844.428634992 22.3803943652 731.125 -0.7861328125 c 0
 685.450195312 -10.1240234375 565 -12.1962890625 470.680664062 -12.1962890625 c 24
 376 -12.1962890625 254.366210938 -10.9814453125 208.875 -0.7861328125 c 0
 76.8758216948 28.7976881879 74.0087890625 153.620807853 74.0087890625 396.98828125 c 0
EndSplineSet
Validated: 1
EndChar

StartChar: registered
Encoding: 174 174 174
Width: 940
Flags: W
HStem: -12 51<255.231 688.1> 384.5 50.8799<286.08 616.707> 632.18 51.8398<286.08 640.187> 756 52<252.628 688.019>
VStem: 74 60<172.957 623.189> 225.6 60.4805<108.98 384.5 435.38 632.18> 661.44 58.5596<109.496 345.786> 672 58.5596<464.573 602.58> 806 60<174.246 620.851>
LayerCount: 2
Fore
SplineSet
730.559570312 538.099609375 m 0xfd80
 730.559570312 450.341486837 704.334369351 423.001700372 646.080078125 402.740234375 c 1
 708.173030342 378.858329678 715.030505258 350.405233453 717.120117188 250.099609375 c 0
 718.080078125 219.379882812 718.109375 182.297851562 720 162.740234375 c 0
 721.942382812 142.650390625 724.799804688 119.540039062 734.400390625 108.98046875 c 1
 676.799804688 108.98046875 l 1
 664.420200632 119.984561244 664.105209278 130.694587704 661.440429688 221.299804688 c 0xfe80
 658.632333825 328.013160759 656.144953793 354.680050411 586.559570312 375.860351562 c 0
 560.639648438 383.540039062 543.360351562 384.5 493.440429688 384.5 c 2
 286.080078125 384.5 l 1
 286.080078125 108.98046875 l 1
 225.599609375 108.98046875 l 1
 225.599609375 684.01953125 l 1
 490.559570312 684.01953125 l 2
 638.285834289 684.01953125 730.559570312 676.552365915 730.559570312 538.099609375 c 0xfd80
672 538.099609375 m 0xfd80
 672 624.504689182 612.839172674 632.1796875 491.51953125 632.1796875 c 2
 286.080078125 632.1796875 l 1
 286.080078125 435.379882812 l 1
 493.440429688 435.379882812 l 2
 630.299334496 435.379882812 672 445.095630967 672 538.099609375 c 0xfd80
694 745 m 0
 659 751 530 756 471 756 c 0
 411 756 280 753 245 747 c 0
 197 738 158 709 150 660 c 0
 137 580 134 506 134 397 c 0
 134 289 138 218 151 138 c 0
 159 89 198 59 246 50 c 0
 290 42 391 39 471 39 c 24
 551 39 651 40 695 48 c 0
 743 57 782 86 790 135 c 0
 803 215 806 289 806 397 c 0
 806 506 802 578 789 658 c 0
 781 707 742 736 694 745 c 0
74 397 m 0
 74 660.845557383 84.8809641204 764.97024103 209 796 c 0
 242 804 391 808 471 808 c 0
 550 808 698 804 731 796 c 0
 789 782 825 753 840 704 c 0
 860 639 866 524 866 397 c 0
 866 114.738368377 849.372455303 22.6744910606 731 -1 c 0
 685 -10 565 -12 471 -12 c 24
 376 -12 254 -11 209 -1 c 0
 74.6032600203 28.3229250865 74 159.812599456 74 397 c 0
EndSplineSet
Validated: 1
EndChar

StartChar: ugrave
Encoding: 249 249 175
Width: 713
Flags: W
HStem: -8.3291 58.8857<205.4 493.719> 0 21G<574 638> 580 20G<74 141 574 638> 780 20G<244 357.812>
VStem: 74.0088 66.9912<117.079 600> 574 64<0 68.6836 140.418 600>
LayerCount: 2
Fore
SplineSet
244 800 m 1x3c
 341 800 l 1
 457 662 l 1
 385 662 l 1
 244 800 l 1x3c
574 68.68359375 m 1
 529.218203486 -8.3291015625 445.982903457 -8.3291015625 339 -8.3291015625 c 0
 231.352881071 -8.3291015625 140.64050769 -4.9382380076 97 95 c 0
 74.51171875 146.499023438 74.0087890625 202 74.0087890625 303.01171875 c 2
 74 600 l 1
 141 600 l 1
 141 303 l 2
 141 170.523357595 141 83.8559078217 236.379882812 59.6865234375 c 0
 269.764872925 51.2267242128 291.083984375 50.556640625 339 50.556640625 c 0xbc
 510.207485944 50.556640625 574 68.2256680007 574 303 c 2
 574 600 l 1
 638 600 l 1
 638 0 l 1
 574 0 l 1x7c
 574 68.68359375 l 1
EndSplineSet
Validated: 1
EndChar

StartChar: section
Encoding: 167 167 176
Width: 860
Flags: W
HStem: -212 58.8857<245.924 634.445> 749.443 58.8857<225.555 614.076>
VStem: 83.751 63.0361<295.636 470.087> 105.751 66.2305<543.925 701.441> 112.63 67.2754<-98.0827 -33.3623> 680.095 67.2754<629.691 694.412> 688.019 66.2305<-105.112 52.4039> 713.213 63.0361<126.242 300.693>
LayerCount: 2
Fore
SplineSet
431.586914062 -153.114257812 m 0xca
 617.001752347 -153.114257812 688.018554688 -145.168500225 688.018554688 -25.6708984375 c 0
 688.018554688 19.3309427334 688.018554688 68.439355994 588.586914062 90.3291015625 c 0
 271.573619422 160.119567446 163.952440763 185.1787722 114.586914062 255.329101562 c 0
 95.5869140625 282.329101562 83.7509765625 325.05078125 83.7509765625 380.329101562 c 0xe2
 83.7509765625 424.719726562 84.7509765625 487.130859375 125.81640625 518.458984375 c 1
 109.989257812 542.151367188 105.750976562 577.200195312 105.750976562 617 c 0
 105.750976562 763.489339129 195.728163051 787.84224529 229.288085938 796.095703125 c 0
 262.213867188 804.193359375 326.411132812 808.329101562 428.413085938 808.329101562 c 0
 675.420914694 808.329101562 726.654131295 787.703270838 747.370117188 630.556640625 c 1
 680.094726562 622.241210938 l 1xd4
 667.421498312 712.420132621 648.03074801 749.443359375 428.413085938 749.443359375 c 0
 242.998247642 749.443359375 171.981445312 741.497601781 171.981445312 622 c 0
 171.981445312 576.998158832 171.981445312 527.889745567 271.413085938 506 c 0
 588.42638043 436.209534146 696.047559222 411.150329386 745.413085938 341 c 0
 764.413085938 314 776.249023438 271.278320312 776.249023438 216 c 0xd1
 776.249023438 171.611328125 775.249023438 109.198242188 734.18359375 77.8701171875 c 1
 750.010742188 54.177734375 754.249023438 19.12890625 754.249023438 -20.6708984375 c 0
 754.249023438 -167.160237566 664.27183695 -191.513143727 630.711914062 -199.766601562 c 0
 597.786132812 -207.864257812 533.588867188 -212 431.586914062 -212 c 0
 184.579186922 -212 133.345882512 -191.374274012 112.629882812 -34.2275390625 c 1
 179.905273438 -25.912109375 l 1
 192.578501688 -116.091031056 211.96925198 -153.114257812 431.586914062 -153.114257812 c 0xca
684.923828125 119.931640625 m 1
 708.834960938 135.748046875 713.212890625 195.809570312 713.212890625 216 c 0xe1
 713.212890625 310.002929688 665.413085938 330 624.413085938 348 c 0
 581.5078125 366.836914062 525.267578125 384.458984375 440.413085938 403 c 0
 357.231445312 421.17578125 299.638671875 435.155273438 240.413085938 450 c 0
 216.20703125 456.067382812 193.952148438 465.390625 175.075195312 476.397460938 c 1
 151.1640625 460.581054688 146.787109375 400.51953125 146.787109375 380.329101562 c 0
 146.787109375 286.326171875 194.586914062 266.329101562 235.586914062 248.329101562 c 0
 278.4921875 229.4921875 334.732421875 211.870117188 419.586914062 193.329101562 c 0
 502.768554688 175.153320312 560.361328125 161.173828125 619.586914062 146.329101562 c 0
 643.791992188 140.26171875 666.047851562 130.938476562 684.923828125 119.931640625 c 1
EndSplineSet
Validated: 1
EndChar

StartChar: uacute
Encoding: 250 250 177
Width: 713
Flags: W
HStem: -8.3291 58.8857<205.4 493.719> 0 21G<574 638> 580 20G<74 141 574 638> 780 20G<382.188 496>
VStem: 74.0088 66.9912<117.079 600> 574 64<0 68.6836 140.418 600>
LayerCount: 2
Fore
SplineSet
496 800 m 1x3c
 355 662 l 1
 283 662 l 1
 399 800 l 1
 496 800 l 1x3c
574 68.68359375 m 1
 529.218203486 -8.3291015625 445.982903457 -8.3291015625 339 -8.3291015625 c 0
 231.352881071 -8.3291015625 140.64050769 -4.9382380076 97 95 c 0
 74.51171875 146.499023438 74.0087890625 202 74.0087890625 303.01171875 c 2
 74 600 l 1
 141 600 l 1
 141 303 l 2
 141 170.523357595 141 83.8559078217 236.379882812 59.6865234375 c 0
 269.764872925 51.2267242128 291.083984375 50.556640625 339 50.556640625 c 0xbc
 510.207485944 50.556640625 574 68.2256680007 574 303 c 2
 574 600 l 1
 638 600 l 1
 638 0 l 1
 574 0 l 1x7c
 574 68.68359375 l 1
EndSplineSet
Validated: 1
EndChar

StartChar: ucircumflex
Encoding: 251 251 178
Width: 713
Flags: W
HStem: -8.3291 58.8857<205.4 493.719> 0 21G<574 638> 580 20G<74 141 574 638> 780 20G<306.371 407.629>
VStem: 74.0088 66.9912<117.079 600> 574 64<0 68.6836 140.418 600>
LayerCount: 2
Fore
SplineSet
322 800 m 5x3c
 392 800 l 5
 510 649 l 5
 462 649 l 5
 357 751 l 5
 252 649 l 5
 204 649 l 5
 322 800 l 5x3c
574 68.68359375 m 1
 529.218203486 -8.3291015625 445.982903457 -8.3291015625 339 -8.3291015625 c 0
 231.352881071 -8.3291015625 140.64050769 -4.9382380076 97 95 c 0
 74.51171875 146.499023438 74.0087890625 202 74.0087890625 303.01171875 c 2
 74 600 l 1
 141 600 l 1
 141 303 l 2
 141 170.523357595 141 83.8559078217 236.379882812 59.6865234375 c 0
 269.764872925 51.2267242128 291.083984375 50.556640625 339 50.556640625 c 0xbc
 510.207485944 50.556640625 574 68.2256680007 574 303 c 2
 574 600 l 1
 638 600 l 1
 638 0 l 1
 574 0 l 1x7c
 574 68.68359375 l 1
EndSplineSet
Validated: 1
EndChar

StartChar: udieresis
Encoding: 252 252 179
Width: 713
Flags: W
HStem: -8.3291 58.8857<205.4 493.719> 0 21G<574 638> 580 20G<74 141 574 638> 703 97<223.969 316.031 391.969 484.031>
VStem: 74.0088 66.9912<117.079 600> 221 98<706.162 796.838> 389 98<706.162 796.838> 574 64<0 68.6836 140.418 600>
LayerCount: 2
Fore
SplineSet
426 800 m 2x3f
 450 800 l 2
 470 800 487 784 487 764 c 2
 487 739 l 2
 487 719 470 703 450 703 c 2
 426 703 l 2
 406 703 389 719 389 739 c 2
 389 764 l 2
 389 784 406 800 426 800 c 2x3f
258 800 m 2
 282 800 l 2
 302 800 319 784 319 764 c 2
 319 739 l 2
 319 719 302 703 282 703 c 2
 258 703 l 2
 238 703 221 719 221 739 c 2
 221 764 l 2
 221 784 238 800 258 800 c 2
574 68.68359375 m 1
 529.218203486 -8.3291015625 445.982903457 -8.3291015625 339 -8.3291015625 c 0
 231.352881071 -8.3291015625 140.64050769 -4.9382380076 97 95 c 0
 74.51171875 146.499023438 74.0087890625 202 74.0087890625 303.01171875 c 2
 74 600 l 1
 141 600 l 1
 141 303 l 2
 141 170.523357595 141 83.8559078217 236.379882812 59.6865234375 c 0
 269.764872925 51.2267242128 291.083984375 50.556640625 339 50.556640625 c 0xbf
 510.207485944 50.556640625 574 68.2256680007 574 303 c 2
 574 600 l 1
 638 600 l 1
 638 0 l 1
 574 0 l 1x7f
 574 68.68359375 l 1
EndSplineSet
Validated: 1
EndChar

StartChar: yacute
Encoding: 253 253 180
Width: 700
Flags: W
HStem: -200 64<144.5 277.217> 580 20G<67 151.972 549.825 633.5> 780 20G<391.688 505.5>
LayerCount: 2
Fore
SplineSet
505.5 800 m 1
 364.5 662 l 1
 292.5 662 l 1
 408.5 800 l 1
 505.5 800 l 1
633.5 600 m 1
 352.5 -133 l 2
 335.615234375 -177.043945312 300.5 -200 254.5 -200 c 2
 144.5 -200 l 5
 144.5 -136 l 5
 225.5 -136 l 2
 260.5 -136 279.752929688 -121.708984375 292.5 -89 c 2
 331.51171875 11.10546875 l 1
 67 600 l 1
 143 600 l 1
 366.3984375 102.016601562 l 1
 557.5 600 l 1
 633.5 600 l 1
EndSplineSet
Validated: 1
EndChar

